# https://github.com/mikedh/trimesh
mtllib material.mtl
usemtl null.001
v 0.05258236 0.07953720 -0.03401640
v 0.05428936 0.02855026 -0.03246634
v 0.04568097 0.02752951 -0.01981152
v 0.04340332 0.07845975 -0.02065474
v 0.10019657 0.08502971 0.03251244
v 0.09929960 0.03375267 0.03054615
v 0.11280014 0.03528478 0.02203746
v 0.11435898 0.08664761 0.02352943
v 0.06646131 0.08115611 -0.04299772
v 0.06734765 0.03008356 -0.04097227
v 0.08354849 0.08311661 0.03574732
v 0.08349516 0.03194078 0.03361006
v 0.09968093 0.08498597 -0.04322610
v 0.09881122 0.03371125 -0.04118833
v 0.08296679 0.03189594 -0.04403491
v 0.08299036 0.08306928 -0.04623155
v 0.06697670 0.08119985 0.03274081
v 0.06783603 0.03012522 0.03076246
v 0.11396433 0.08661415 -0.03443838
v 0.11242634 0.03525307 -0.03286602
v 0.05297701 0.07957067 0.02395141
v 0.05466316 0.02858197 0.02243714
v 0.12360299 0.08770620 -0.02120610
v 0.12164064 0.03628720 -0.02033373
v 0.04361690 0.07847786 0.01071723
v 0.04588326 0.02754667 0.00990190
v 0.12465596 0.08783666 -0.00552674
v 0.12257383 0.03641110 -0.00548287
v 0.04235458 0.07834797 -0.00496094
v 0.04462341 0.02742389 -0.00494698
v 0.12381657 0.08772432 0.01016588
v 0.12184293 0.03630435 0.00937969
v 0.10364648 0.02095750 0.01386151
v 0.09191009 0.01325598 0.00338537
v 0.09471883 0.01357714 -0.00060087
v 0.10994609 0.02167085 0.00500618
v 0.06271128 0.01624590 -0.02427003
v 0.07348286 0.01113500 -0.01377992
v 0.07073253 0.01081368 -0.00979433
v 0.05666200 0.01553188 -0.01541641
v 0.09422952 0.01988560 0.01981418
v 0.08769846 0.01277337 0.00606476
v 0.07187547 0.01731873 -0.03022097
v 0.07763559 0.01161801 -0.01645890
v 0.08318440 0.01861799 0.02195788
v 0.08273812 0.01220266 0.00702954
v 0.08267994 0.00955791 -0.00519576
v 0.07221714 0.01734770 0.01996551
v 0.07778940 0.01163105 0.00613288
v 0.08281456 0.01858662 -0.03236395
v 0.08257163 0.01218854 -0.01742376
v 0.10338497 0.02093532 -0.02454965
v 0.09179237 0.01324599 -0.01390580
v 0.08754465 0.01276032 -0.01652703
v 0.09388784 0.01985662 -0.03037230
v 0.06297279 0.01626808 0.01414113
v 0.07360058 0.01114498 0.00351125
v 0.10980456 0.02165885 -0.01578175
v 0.09465512 0.01357174 -0.00995879
v 0.05680354 0.01554388 0.00537153
v 0.07079624 0.01081908 -0.00043640
v 0.11047756 0.02174545 -0.00539205
v 0.09497839 0.01361071 -0.00528183
v 0.05594230 0.01545779 -0.00501713
v 0.07042880 0.01078047 -0.00511306
v 0.05706454 0.02258839 0.02012651
v 0.06914063 0.02400214 0.02775523
v 0.11843120 0.02964867 -0.01906469
v 0.10999347 0.02870118 -0.03054793
v 0.04901408 0.02163963 0.00864063
v 0.11929013 0.02976221 -0.00545668
v 0.04786359 0.02152711 -0.00496564
v 0.11861681 0.02966439 0.00816213
v 0.04882871 0.02162390 -0.01858618
v 0.11033598 0.02873024 0.01976028
v 0.05672203 0.02255934 -0.03018170
v 0.09797098 0.02732621 0.02755702
v 0.06869312 0.02396419 -0.03797576
v 0.08349178 0.02566596 0.03036442
v 0.09752347 0.02728825 -0.03817396
v 0.08300740 0.02562488 -0.04078228
v 0.10201171 0.22174342 0.02699510
v 0.10567470 0.20522511 0.02496249
v 0.11415643 0.21026304 0.01215798
v 0.10888077 0.23073018 0.01538203
v 0.10824823 0.19166304 0.02385621
v 0.11368400 0.14401841 0.02464510
v 0.12337006 0.14513789 0.01075499
v 0.11768192 0.19429450 0.01033313
v 0.11402149 0.11533302 0.02408727
v 0.12359343 0.11643110 0.01046056
v 0.03874344 0.19299524 -0.02010797
v 0.03698502 0.17975123 -0.02055247
v 0.03651569 0.17783920 -0.00520296
v 0.03911291 0.18811321 -0.00561535
v 0.03626733 0.16925432 -0.02084585
v 0.03978243 0.13551125 -0.02128226
v 0.03880107 0.13543378 -0.00496971
v 0.03531194 0.16906583 -0.00496538
v 0.04159300 0.10698537 -0.02096863
v 0.04057783 0.10689087 -0.00496533
v 0.11462528 0.21199322 -0.00319117
v 0.10851105 0.23552138 0.00088946
v 0.12435152 0.14525463 -0.00555783
v 0.11863673 0.19427019 -0.00554722
v 0.12450386 0.11654551 -0.00554229
v 0.03804093 0.17677815 0.01019800
v 0.04125461 0.18443085 0.00904344
v 0.04000467 0.13561378 0.01132806
v 0.03648406 0.16949598 0.01090026
v 0.04181091 0.10704581 0.01102253
v 0.11309949 0.21294382 -0.01859207
v 0.10636896 0.23914804 -0.01376905
v 0.12314804 0.14511906 -0.02185538
v 0.11746427 0.19371194 -0.02141254
v 0.12337563 0.11641262 -0.02153086
v 0.04741840 0.17950155 0.02346229
v 0.05025304 0.18626009 0.02214369
v 0.04987897 0.13675559 0.02508369
v 0.04610213 0.17257200 0.02429009
v 0.05142787 0.10816312 0.02451755
v 0.10372220 0.21028520 -0.03185640
v 0.09737086 0.23735142 -0.02686957
v 0.11327376 0.14398363 -0.03561126
v 0.10784641 0.19071348 -0.03480266
v 0.11361905 0.11529889 -0.03502470
v 0.06108150 0.18462324 0.03251556
v 0.06283761 0.19200581 0.03151294
v 0.06457734 0.13839659 0.03421930
v 0.06041954 0.17709029 0.03318193
v 0.06577703 0.10979810 0.03348006
v 0.09005904 0.20532648 -0.04091000
v 0.08478602 0.23168719 -0.03623886
v 0.09857254 0.14229061 -0.04474682
v 0.09352853 0.18638514 -0.04369436
v 0.09912674 0.11363829 -0.04398646
v 0.07695036 0.19130865 0.03597986
v 0.07709335 0.20076594 0.03572505
v 0.08186376 0.14035322 0.03734388
v 0.07725764 0.18230295 0.03622178
v 0.08270612 0.11173505 0.03654572
v 0.07053047 0.22299653 -0.04045101
v 0.07419007 0.19878024 -0.04437414
v 0.05853162 0.19160414 -0.04172194
v 0.05677485 0.21258336 -0.03886451
v 0.07669038 0.18133472 -0.04673430
v 0.08128358 0.14029813 -0.04787136
v 0.06404123 0.13830940 -0.04450942
v 0.05989596 0.17628546 -0.04345955
v 0.08213697 0.11168382 -0.04705145
v 0.06525114 0.10973264 -0.04375357
v 0.09260977 0.19856746 0.03332760
v 0.09084933 0.21122056 0.03413852
v 0.09910855 0.14233606 0.03398193
v 0.09405307 0.18744989 0.03294696
v 0.09965257 0.11368289 0.03324718
v 0.04546677 0.18488659 -0.03335679
v 0.04561263 0.20203057 -0.03172107
v 0.04946848 0.13662727 -0.03517262
v 0.04570133 0.17200136 -0.03436875
v 0.05102530 0.10808236 -0.03459438
v 0.05024688 0.12235469 -0.03488350
v 0.04068759 0.12124831 -0.02112557
v 0.09938043 0.12800948 0.03361456
v 0.11385287 0.12967572 0.02436630
v 0.06464618 0.12402114 -0.04413150
v 0.08228494 0.12604414 0.03694480
v 0.09884952 0.12796445 -0.04436664
v 0.08171027 0.12599099 -0.04746129
v 0.06517718 0.12409733 0.03384968
v 0.11344653 0.12964126 -0.03531798
v 0.05065342 0.12245935 0.02480075
v 0.12326197 0.13076596 -0.02169300
v 0.04090767 0.12132979 0.01117529
v 0.12442757 0.13090007 -0.00555006
v 0.03968945 0.12116245 -0.00496752
v 0.12348187 0.13078462 0.01060765
v 0.04575849 0.21917431 -0.03008511
v 0.04050209 0.20623924 -0.01966348
v 0.08908912 0.22387391 0.03494969
v 0.09834872 0.23826197 0.02902772
v 0.05501809 0.23356235 -0.03600709
v 0.07723609 0.21022321 0.03547048
v 0.07951324 0.25804788 -0.03156797
v 0.06687111 0.24721307 -0.03652788
v 0.06459397 0.19938838 0.03051057
v 0.09101953 0.26441765 -0.02188249
v 0.05308744 0.19301865 0.02082510
v 0.09963868 0.26535249 -0.00894628
v 0.04446854 0.19208378 0.00788889
v 0.10239682 0.25904930 0.00497033
v 0.04171038 0.19838697 -0.00602773
v 0.10360512 0.25119704 0.01860633
vn -0.69275951 -0.04892212 -0.71950746
vn -0.65951043 -0.26723179 -0.70259029
vn -0.90513176 -0.27371526 -0.32529441
vn -0.94229281 -0.05460750 -0.33030641
vn 0.37375066 -0.02919139 0.92706978
vn 0.38006115 -0.24677688 0.89143407
vn 0.68015498 -0.24663046 0.69033521
vn 0.69111770 -0.02366116 0.72235489
vn -0.36850512 -0.04209326 -0.92867225
vn -0.33959642 -0.25827289 -0.90441662
vn 0.01186246 -0.03478821 0.99932432
vn 0.03216248 -0.25011572 0.96768171
vn 0.36109486 -0.03026582 -0.93203783
vn 0.36789542 -0.24781011 -0.89623833
vn 0.01899441 -0.25123703 -0.96773922
vn -0.00173724 -0.03594572 -0.99935222
vn -0.35584354 -0.04100052 0.93364573
vn -0.32724756 -0.25721458 0.90925783
vn 0.68122166 -0.02450120 -0.73166710
vn 0.67069614 -0.24743643 -0.69924390
vn -0.68290609 -0.04804767 0.72892439
vn -0.64987814 -0.26641080 0.71181720
vn 0.94035918 -0.01939590 -0.33962995
vn 0.91391623 -0.24475864 -0.32380605
vn -0.93770260 -0.05418192 0.34318817
vn -0.90061671 -0.27333230 0.33790380
vn 0.99983793 -0.01667237 -0.00679794
vn 0.96972108 -0.24412954 -0.00646327
vn -0.99851274 -0.05408762 0.00685048
vn -0.96328598 -0.26839349 0.00671273
vn 0.94489664 -0.01901104 0.32681638
vn 0.91824365 -0.24438596 0.31161535
vn 0.43240917 -0.82521158 0.36338443
vn 0.30636287 -0.92741334 0.21458422
vn 0.37663007 -0.92157471 0.09407400
vn 0.54995406 -0.81986195 0.15930149
vn -0.28546396 -0.87357879 -0.39417064
vn -0.10831255 -0.96788460 -0.22686529
vn -0.19013439 -0.97635859 -0.10282453
vn -0.42987895 -0.88456595 -0.18096191
vn 0.28140894 -0.83055389 0.48061344
vn 0.21708795 -0.93421513 0.28304595
vn -0.10712993 -0.85729998 -0.50354743
vn -0.00813637 -0.95630908 -0.29224440
vn 0.09674665 -0.84133160 0.53179061
vn 0.10896984 -0.94408947 0.31116015
vn 0.10938628 -0.99399936 -0.00017220
vn -0.10025439 -0.85671645 0.50595063
vn -0.00414492 -0.95597088 0.29343241
vn 0.08950365 -0.84194785 -0.53208357
vn 0.10473027 -0.94444788 -0.31152818
vn 0.42742935 -0.82563293 -0.36828575
vn 0.30341920 -0.92766255 -0.21766715
vn 0.21322541 -0.93454224 -0.28489608
vn 0.27484801 -0.83111089 -0.48343900
vn -0.28006384 -0.87312108 0.39902863
vn -0.10520688 -0.96762156 0.22943409
vn 0.54774368 -0.82004726 -0.16582954
vn 0.37532136 -0.92168534 -0.09813250
vn -0.42736828 -0.88435316 0.18781891
vn -0.18870899 -0.97623807 0.10652783
vn 0.57649213 -0.81709546 -0.00345496
vn 0.39289883 -0.91957927 -0.00214387
vn -0.46655411 -0.88448501 0.00368670
vn -0.20908916 -0.97789454 0.00198824
vn -0.48899385 -0.64368224 0.58869189
vn -0.22121477 -0.62727511 0.74671948
vn 0.75861472 -0.60080117 -0.25207490
vn 0.57295328 -0.60451430 -0.55343211
vn -0.70268881 -0.65424091 0.27963778
vn 0.80124778 -0.59831101 -0.00511338
vn -0.75957346 -0.65039796 0.00554626
vn 0.76198488 -0.60051143 0.24241522
vn -0.70642591 -0.65455788 -0.26928896
vn 0.58043891 -0.60387796 0.54628021
vn -0.49695858 -0.64436221 -0.58123106
vn 0.34916902 -0.60521638 0.71539789
vn -0.23135756 -0.62814641 -0.74290365
vn 0.07217567 -0.61310822 0.78669494
vn 0.33940595 -0.60604650 -0.71938258
vn 0.06146495 -0.61402434 -0.78689021
vn 0.68473339 0.06667186 0.72573757
vn 0.68500668 0.06996845 0.72516912
vn 0.92866993 0.17711723 0.32588619
vn 0.92730898 0.18592545 0.32485360
vn 0.68659621 0.08189858 0.72241145
vn 0.69008315 0.04246052 0.72248346
vn 0.94246846 0.05812871 0.32920262
vn 0.93684411 0.14194278 0.31964877
vn 0.69119781 -0.00574862 0.72264278
vn 0.94454169 0.00296562 0.32837817
vn -0.97068983 0.14024188 -0.19517551
vn -0.95576167 0.10784431 -0.27365887
vn -0.97898567 0.19413447 0.06244116
vn -0.95609611 0.25121096 0.15090822
vn -0.94815189 -0.01114682 -0.31762207
vn -0.93951899 -0.07734916 -0.33364832
vn -0.99652743 -0.08295717 0.00715647
vn -0.99973845 0.01574391 0.01658878
vn -0.94206744 -0.06239694 -0.32956889
vn -0.99798608 -0.06305632 0.00690655
vn 0.97134316 0.23736115 -0.01233459
vn 0.96756256 0.25241739 -0.01040453
vn 0.99809134 0.06131580 -0.00735147
vn 0.98540401 0.16973868 -0.01295062
vn 0.99995738 0.00623096 -0.00681200
vn -0.90498686 0.27725014 0.32269368
vn -0.86304694 0.36804956 0.34596190
vn -0.93473893 -0.07670937 0.34695643
vn -0.94071323 0.04768427 0.33583462
vn -0.93747109 -0.06193465 0.34250852
vn 0.89715827 0.27159414 -0.34834433
vn 0.89774948 0.28798202 -0.33333516
vn 0.93759239 0.05830155 -0.34281409
vn 0.91528237 0.18526007 -0.35768262
vn 0.93998283 0.00257899 -0.34121197
vn -0.71147895 0.27966374 0.64465958
vn -0.71884817 0.36915252 0.58905333
vn -0.67501885 -0.05324773 0.73587656
vn -0.70198804 0.06995509 0.70874470
vn -0.68161350 -0.05157061 0.72989285
vn 0.63149816 0.26127216 -0.73003215
vn 0.64651889 0.28081420 -0.70933539
vn 0.67989922 0.04241058 -0.73207814
vn 0.65115446 0.16682793 -0.74038255
vn 0.68129891 -0.00658836 -0.73197567
vn -0.44405943 0.17468980 0.87880301
vn -0.50844383 0.22298054 0.83172393
vn -0.35174656 -0.02658267 0.93571776
vn -0.38954958 0.05462820 0.91938400
vn -0.35650900 -0.03937010 0.93346202
vn 0.31693411 0.21062650 -0.92476445
vn 0.34011835 0.22992191 -0.91184187
vn 0.35833308 0.02230631 -0.93332732
vn 0.33158165 0.12724364 -0.93480623
vn 0.35955298 -0.01751274 -0.93296033
vn -0.05344173 0.04533081 0.99754155
vn -0.11669285 0.04908355 0.99195445
vn 0.01037122 -0.00060275 0.99994612
vn -0.01463631 0.03331845 0.99933761
vn 0.00959118 -0.02759534 0.99957317
vn -0.01917625 0.16027291 -0.98688644
vn -0.03502941 0.14427973 -0.98891675
vn -0.39619341 0.08594047 -0.91413623
vn -0.40654570 0.09767487 -0.90839428
vn -0.02327540 0.07735873 -0.99673158
vn -0.00311082 -0.00145430 -0.99999410
vn -0.36431089 -0.02778962 -0.93086267
vn -0.37926587 0.02877230 -0.92484027
vn -0.00400149 -0.02875697 -0.99957848
vn -0.36913696 -0.04047971 -0.92849302
vn 0.35362381 0.01155137 0.93531638
vn 0.33093047 -0.00039333 0.94365513
vn 0.37103039 0.02271128 0.92834294
vn 0.36189252 0.04193809 0.93127602
vn 0.37222204 -0.01643755 0.92799813
vn -0.72322965 0.06628275 -0.68741947
vn -0.75951213 0.08104612 -0.64542460
vn -0.68502557 -0.05445208 -0.72648126
vn -0.69849890 -0.00418984 -0.71559888
vn -0.69146597 -0.05248355 -0.72050005
vn -0.69018531 -0.05243458 -0.72173047
vn -0.94205552 -0.06240727 -0.32960096
vn 0.37295932 -0.01641725 0.92770243
vn 0.69248021 -0.00570752 0.72141439
vn -0.36840418 -0.04045263 -0.92878520
vn 0.00977569 -0.02758795 0.99957162
vn 0.36029610 -0.01749589 -0.93267387
vn -0.00380480 -0.02875306 -0.99957931
vn -0.35580248 -0.03934063 0.93373281
vn 0.68259811 -0.00654898 -0.73076463
vn -0.68032712 -0.05151990 0.73109555
vn 0.93999863 0.00259593 -0.34116846
vn -0.93743885 -0.06194504 0.34259489
vn 0.99995744 0.00622403 -0.00681202
vn -0.99798644 -0.06304508 0.00695878
vn 0.94455653 0.00298380 0.32833540
vn -0.68999773 0.07486033 -0.71992987
vn -0.96064889 0.11889575 -0.25103295
vn 0.41977185 0.00622128 0.90760833
vn 0.74551028 0.08884863 0.66054547
vn -0.30317372 0.11099702 -0.94644886
vn -0.03397779 0.01753301 0.99926883
vn 0.40653637 0.24132022 -0.88118827
vn 0.07607401 0.17770383 -0.98113918
vn -0.49435404 0.18422121 0.84951556
vn 0.67628533 0.28373638 -0.67980283
vn -0.72404796 0.36297703 0.58651710
vn 0.89310515 0.28854430 -0.34511667
vn -0.85543752 0.36298895 0.36941251
vn 0.96681386 0.25440773 -0.02340208
vn -0.95535386 0.23099232 0.18423218
vn 0.94972378 0.20663375 0.23521741
vt 0.87038171 0.70362830
vt 0.87038243 0.70362961
vt 0.87038261 0.70362955
vt 0.87038243 0.70362812
vt 0.87038428 0.70363140
vt 0.87038302 0.70363033
vt 0.87038291 0.70363045
vt 0.87038362 0.70363194
vt 0.87038106 0.70362878
vt 0.87038225 0.70362973
vt 0.87038457 0.70363057
vt 0.87038314 0.70363009
vt 0.87038052 0.70363033
vt 0.87038213 0.70363009
vt 0.87038219 0.70362985
vt 0.87038064 0.70362949
vt 0.87038463 0.70362973
vt 0.87038314 0.70362997
vt 0.87038076 0.70363110
vt 0.87038219 0.70363027
vt 0.87038434 0.70362902
vt 0.87038302 0.70362973
vt 0.87038130 0.70363176
vt 0.87038231 0.70363045
vt 0.87038380 0.70362848
vt 0.87038291 0.70362961
vt 0.87038201 0.70363212
vt 0.87038249 0.70363057
vt 0.87038314 0.70362818
vt 0.87038273 0.70362961
vt 0.87038279 0.70363224
vt 0.87038267 0.70363057
vt 0.87038279 0.70363027
vt 0.87038273 0.70363009
vt 0.87038267 0.70363009
vt 0.87038267 0.70363033
vt 0.87038249 0.70362973
vt 0.87038261 0.70362985
vt 0.87038261 0.70362985
vt 0.87038261 0.70362973
vt 0.87038291 0.70363021
vt 0.87038273 0.70363009
vt 0.87038243 0.70362985
vt 0.87038255 0.70362991
vt 0.87038291 0.70363009
vt 0.87038273 0.70363003
vt 0.87038267 0.70362997
vt 0.87038291 0.70362997
vt 0.87038273 0.70362997
vt 0.87038237 0.70362991
vt 0.87038249 0.70362997
vt 0.87038237 0.70363015
vt 0.87038255 0.70363009
vt 0.87038249 0.70362997
vt 0.87038231 0.70363003
vt 0.87038291 0.70362985
vt 0.87038273 0.70362997
vt 0.87038243 0.70363027
vt 0.87038255 0.70363009
vt 0.87038279 0.70362979
vt 0.87038273 0.70362985
vt 0.87038255 0.70363033
vt 0.87038261 0.70363009
vt 0.87038273 0.70362973
vt 0.87038267 0.70362985
vt 0.87038296 0.70362979
vt 0.87038302 0.70362997
vt 0.87038237 0.70363039
vt 0.87038225 0.70363021
vt 0.87038285 0.70362973
vt 0.87038249 0.70363045
vt 0.87038273 0.70362961
vt 0.87038267 0.70363045
vt 0.87038261 0.70362961
vt 0.87038285 0.70363039
vt 0.87038243 0.70362967
vt 0.87038296 0.70363027
vt 0.87038231 0.70362973
vt 0.87038302 0.70363009
vt 0.87038219 0.70363009
vt 0.87038225 0.70362985
vt 0.87039667 0.70368278
vt 0.87039369 0.70366573
vt 0.87038106 0.70366752
vt 0.87037855 0.70368844
vt 0.87039137 0.70365602
vt 0.87038600 0.70363766
vt 0.87038302 0.70363832
vt 0.87038189 0.70365679
vt 0.87038451 0.70363390
vt 0.87038291 0.70363438
vt 0.87037152 0.70359206
vt 0.87037706 0.70360351
vt 0.87038857 0.70360368
vt 0.87038958 0.70359325
vt 0.87037915 0.70360970
vt 0.87038136 0.70362210
vt 0.87038469 0.70362198
vt 0.87038761 0.70360959
vt 0.87038219 0.70362604
vt 0.87038368 0.70362616
vt 0.87037003 0.70366472
vt 0.87036145 0.70368618
vt 0.87038022 0.70363784
vt 0.87037408 0.70365387
vt 0.87038136 0.70363414
vt 0.87039840 0.70360947
vt 0.87040323 0.70360345
vt 0.87038773 0.70362341
vt 0.87039536 0.70361334
vt 0.87038511 0.70362681
vt 0.87036055 0.70365906
vt 0.87034601 0.70367944
vt 0.87037778 0.70363647
vt 0.87036777 0.70364940
vt 0.87038004 0.70363343
vt 0.87040716 0.70361757
vt 0.87041366 0.70361614
vt 0.87039000 0.70362604
vt 0.87040251 0.70361942
vt 0.87038624 0.70362800
vt 0.87035370 0.70364976
vt 0.87033385 0.70366633
vt 0.87037587 0.70363426
vt 0.87036324 0.70364285
vt 0.87037903 0.70363224
vt 0.87041277 0.70362985
vt 0.87041962 0.70363218
vt 0.87039095 0.70362943
vt 0.87040728 0.70362908
vt 0.87038678 0.70362961
vt 0.87035018 0.70363843
vt 0.87032706 0.70364863
vt 0.87037486 0.70363152
vt 0.87036097 0.70363510
vt 0.87037855 0.70363069
vt 0.87041271 0.70364463
vt 0.87041986 0.70365095
vt 0.87039053 0.70363295
vt 0.87040687 0.70364082
vt 0.87038666 0.70363128
vt 0.87032753 0.70362860
vt 0.87035090 0.70362628
vt 0.87035638 0.70361507
vt 0.87033635 0.70360982
vt 0.87036145 0.70362675
vt 0.87037492 0.70362842
vt 0.87037617 0.70362544
vt 0.87036502 0.70361894
vt 0.87037867 0.70362902
vt 0.87037945 0.70362759
vt 0.87040544 0.70365787
vt 0.87041181 0.70366955
vt 0.87038875 0.70363581
vt 0.87040073 0.70365071
vt 0.87038589 0.70363283
vt 0.87036574 0.70360708
vt 0.87035233 0.70359659
vt 0.87037843 0.70362324
vt 0.87037122 0.70361292
vt 0.87038064 0.70362651
vt 0.87037981 0.70362520
vt 0.87038189 0.70362443
vt 0.87038714 0.70363408
vt 0.87038523 0.70363545
vt 0.87037808 0.70362663
vt 0.87038833 0.70363194
vt 0.87037694 0.70363098
vt 0.87037706 0.70362872
vt 0.87038857 0.70362949
vt 0.87037772 0.70363307
vt 0.87038773 0.70362723
vt 0.87037909 0.70363474
vt 0.87038618 0.70362544
vt 0.87038082 0.70363569
vt 0.87038410 0.70362449
vt 0.87038296 0.70363605
vt 0.87032729 0.70358711
vt 0.87035871 0.70357543
vt 0.87041795 0.70368624
vt 0.87039715 0.70370656
vt 0.87030441 0.70361125
vt 0.87042773 0.70366031
vt 0.87029535 0.70367014
vt 0.87029380 0.70364106
vt 0.87042773 0.70363641
vt 0.87030673 0.70369375
vt 0.87042272 0.70361507
vt 0.87032473 0.70370936
vt 0.87041110 0.70359433
vt 0.87034720 0.70371592
vt 0.87038928 0.70357656
vt 0.87037146 0.70371687
f 44/44/44 47/47/47 38/38/38
f 46/46/46 47/47/47 42/42/42
f 54/54/54 47/47/47 51/51/51
f 51/51/51 47/47/47 44/44/44
f 49/49/49 47/47/47 46/46/46
f 53/53/53 47/47/47 54/54/54
f 57/57/57 47/47/47 49/49/49
f 59/59/59 47/47/47 53/53/53
f 61/61/61 47/47/47 57/57/57
f 63/63/63 47/47/47 59/59/59
f 65/65/65 47/47/47 61/61/61
f 35/35/35 47/47/47 63/63/63
f 39/39/39 47/47/47 65/65/65
f 34/34/34 47/47/47 35/35/35
f 38/38/38 47/47/47 39/39/39
f 42/42/42 47/47/47 34/34/34
f 1/1/1 2/2/2 3/3/3
f 1/1/1 3/3/3 4/4/4
f 5/5/5 6/6/6 7/7/7
f 5/5/5 7/7/7 8/8/8
f 9/9/9 10/10/10 2/2/2
f 9/9/9 2/2/2 1/1/1
f 11/11/11 12/12/12 6/6/6
f 11/11/11 6/6/6 5/5/5
f 13/13/13 14/14/14 15/15/15
f 13/13/13 15/15/15 16/16/16
f 16/16/16 15/15/15 10/10/10
f 16/16/16 10/10/10 9/9/9
f 17/17/17 18/18/18 12/12/12
f 17/17/17 12/12/12 11/11/11
f 19/19/19 20/20/20 14/14/14
f 19/19/19 14/14/14 13/13/13
f 21/21/21 22/22/22 18/18/18
f 21/21/21 18/18/18 17/17/17
f 23/23/23 24/24/24 20/20/20
f 23/23/23 20/20/20 19/19/19
f 25/25/25 26/26/26 22/22/22
f 25/25/25 22/22/22 21/21/21
f 27/27/27 28/28/28 24/24/24
f 27/27/27 24/24/24 23/23/23
f 29/29/29 30/30/30 26/26/26
f 29/29/29 26/26/26 25/25/25
f 31/31/31 32/32/32 28/28/28
f 31/31/31 28/28/28 27/27/27
f 4/4/4 3/3/3 30/30/30
f 4/4/4 30/30/30 29/29/29
f 8/8/8 7/7/7 32/32/32
f 8/8/8 32/32/32 31/31/31
f 33/33/33 34/34/34 35/35/35
f 33/33/33 35/35/35 36/36/36
f 37/37/37 38/38/38 39/39/39
f 37/37/37 39/39/39 40/40/40
f 41/41/41 42/42/42 34/34/34
f 41/41/41 34/34/34 33/33/33
f 43/43/43 44/44/44 38/38/38
f 43/43/43 38/38/38 37/37/37
f 45/45/45 46/46/46 42/42/42
f 45/45/45 42/42/42 41/41/41
f 48/48/48 49/49/49 46/46/46
f 48/48/48 46/46/46 45/45/45
f 50/50/50 51/51/51 44/44/44
f 50/50/50 44/44/44 43/43/43
f 52/52/52 53/53/53 54/54/54
f 52/52/52 54/54/54 55/55/55
f 56/56/56 57/57/57 49/49/49
f 56/56/56 49/49/49 48/48/48
f 58/58/58 59/59/59 53/53/53
f 58/58/58 53/53/53 52/52/52
f 60/60/60 61/61/61 57/57/57
f 60/60/60 57/57/57 56/56/56
f 62/62/62 63/63/63 59/59/59
f 62/62/62 59/59/59 58/58/58
f 64/64/64 65/65/65 61/61/61
f 64/64/64 61/61/61 60/60/60
f 36/36/36 35/35/35 63/63/63
f 36/36/36 63/63/63 62/62/62
f 40/40/40 39/39/39 65/65/65
f 40/40/40 65/65/65 64/64/64
f 22/22/22 66/66/66 67/67/67
f 22/22/22 67/67/67 18/18/18
f 24/24/24 68/68/68 69/69/69
f 24/24/24 69/69/69 20/20/20
f 26/26/26 70/70/70 66/66/66
f 26/26/26 66/66/66 22/22/22
f 28/28/28 71/71/71 68/68/68
f 28/28/28 68/68/68 24/24/24
f 30/30/30 72/72/72 70/70/70
f 30/30/30 70/70/70 26/26/26
f 32/32/32 73/73/73 71/71/71
f 32/32/32 71/71/71 28/28/28
f 3/3/3 74/74/74 72/72/72
f 3/3/3 72/72/72 30/30/30
f 7/7/7 75/75/75 73/73/73
f 7/7/7 73/73/73 32/32/32
f 2/2/2 76/76/76 74/74/74
f 2/2/2 74/74/74 3/3/3
f 6/6/6 77/77/77 75/75/75
f 6/6/6 75/75/75 7/7/7
f 10/10/10 78/78/78 76/76/76
f 10/10/10 76/76/76 2/2/2
f 12/12/12 79/79/79 77/77/77
f 12/12/12 77/77/77 6/6/6
f 14/14/14 80/80/80 81/81/81
f 14/14/14 81/81/81 15/15/15
f 15/15/15 81/81/81 78/78/78
f 15/15/15 78/78/78 10/10/10
f 18/18/18 67/67/67 79/79/79
f 18/18/18 79/79/79 12/12/12
f 20/20/20 69/69/69 80/80/80
f 20/20/20 80/80/80 14/14/14
f 80/80/80 55/55/55 50/50/50
f 80/80/80 50/50/50 81/81/81
f 69/69/69 52/52/52 55/55/55
f 69/69/69 55/55/55 80/80/80
f 68/68/68 58/58/58 52/52/52
f 68/68/68 52/52/52 69/69/69
f 71/71/71 62/62/62 58/58/58
f 71/71/71 58/58/58 68/68/68
f 73/73/73 36/36/36 62/62/62
f 73/73/73 62/62/62 71/71/71
f 75/75/75 33/33/33 36/36/36
f 75/75/75 36/36/36 73/73/73
f 77/77/77 41/41/41 33/33/33
f 77/77/77 33/33/33 75/75/75
f 79/79/79 45/45/45 41/41/41
f 79/79/79 41/41/41 77/77/77
f 67/67/67 48/48/48 45/45/45
f 67/67/67 45/45/45 79/79/79
f 66/66/66 56/56/56 48/48/48
f 66/66/66 48/48/48 67/67/67
f 70/70/70 60/60/60 56/56/56
f 70/70/70 56/56/56 66/66/66
f 72/72/72 64/64/64 60/60/60
f 72/72/72 60/60/60 70/70/70
f 74/74/74 40/40/40 64/64/64
f 74/74/74 64/64/64 72/72/72
f 76/76/76 37/37/37 40/40/40
f 76/76/76 40/40/40 74/74/74
f 78/78/78 43/43/43 37/37/37
f 78/78/78 37/37/37 76/76/76
f 81/81/81 50/50/50 43/43/43
f 81/81/81 43/43/43 78/78/78
f 55/55/55 54/54/54 51/51/51
f 55/55/55 51/51/51 50/50/50
f 82/82/82 83/83/83 84/84/84
f 82/82/82 84/84/84 85/85/85
f 86/86/86 87/87/87 88/88/88
f 86/86/86 88/88/88 89/89/89
f 90/90/90 8/8/8 31/31/31
f 90/90/90 31/31/31 91/91/91
f 92/92/92 93/93/93 94/94/94
f 92/92/92 94/94/94 95/95/95
f 96/96/96 97/97/97 98/98/98
f 96/96/96 98/98/98 99/99/99
f 100/100/100 4/4/4 29/29/29
f 100/100/100 29/29/29 101/101/101
f 85/85/85 84/84/84 102/102/102
f 85/85/85 102/102/102 103/103/103
f 89/89/89 88/88/88 104/104/104
f 89/89/89 104/104/104 105/105/105
f 91/91/91 31/31/31 27/27/27
f 91/91/91 27/27/27 106/106/106
f 95/95/95 94/94/94 107/107/107
f 95/95/95 107/107/107 108/108/108
f 99/99/99 98/98/98 109/109/109
f 99/99/99 109/109/109 110/110/110
f 101/101/101 29/29/29 25/25/25
f 101/101/101 25/25/25 111/111/111
f 103/103/103 102/102/102 112/112/112
f 103/103/103 112/112/112 113/113/113
f 105/105/105 104/104/104 114/114/114
f 105/105/105 114/114/114 115/115/115
f 106/106/106 27/27/27 23/23/23
f 106/106/106 23/23/23 116/116/116
f 108/108/108 107/107/107 117/117/117
f 108/108/108 117/117/117 118/118/118
f 110/110/110 109/109/109 119/119/119
f 110/110/110 119/119/119 120/120/120
f 111/111/111 25/25/25 21/21/21
f 111/111/111 21/21/21 121/121/121
f 113/113/113 112/112/112 122/122/122
f 113/113/113 122/122/122 123/123/123
f 115/115/115 114/114/114 124/124/124
f 115/115/115 124/124/124 125/125/125
f 116/116/116 23/23/23 19/19/19
f 116/116/116 19/19/19 126/126/126
f 118/118/118 117/117/117 127/127/127
f 118/118/118 127/127/127 128/128/128
f 120/120/120 119/119/119 129/129/129
f 120/120/120 129/129/129 130/130/130
f 121/121/121 21/21/21 17/17/17
f 121/121/121 17/17/17 131/131/131
f 123/123/123 122/122/122 132/132/132
f 123/123/123 132/132/132 133/133/133
f 125/125/125 124/124/124 134/134/134
f 125/125/125 134/134/134 135/135/135
f 126/126/126 19/19/19 13/13/13
f 126/126/126 13/13/13 136/136/136
f 128/128/128 127/127/127 137/137/137
f 128/128/128 137/137/137 138/138/138
f 130/130/130 129/129/129 139/139/139
f 130/130/130 139/139/139 140/140/140
f 131/131/131 17/17/17 11/11/11
f 131/131/131 11/11/11 141/141/141
f 142/142/142 143/143/143 144/144/144
f 142/142/142 144/144/144 145/145/145
f 146/146/146 147/147/147 148/148/148
f 146/146/146 148/148/148 149/149/149
f 150/150/150 16/16/16 9/9/9
f 150/150/150 9/9/9 151/151/151
f 133/133/133 132/132/132 143/143/143
f 133/133/133 143/143/143 142/142/142
f 135/135/135 134/134/134 147/147/147
f 135/135/135 147/147/147 146/146/146
f 136/136/136 13/13/13 16/16/16
f 136/136/136 16/16/16 150/150/150
f 138/138/138 137/137/137 152/152/152
f 138/138/138 152/152/152 153/153/153
f 140/140/140 139/139/139 154/154/154
f 140/140/140 154/154/154 155/155/155
f 141/141/141 11/11/11 5/5/5
f 141/141/141 5/5/5 156/156/156
f 145/145/145 144/144/144 157/157/157
f 145/145/145 157/157/157 158/158/158
f 149/149/149 148/148/148 159/159/159
f 149/149/149 159/159/159 160/160/160
f 151/151/151 9/9/9 1/1/1
f 151/151/151 1/1/1 161/161/161
f 153/153/153 152/152/152 83/83/83
f 153/153/153 83/83/83 82/82/82
f 155/155/155 154/154/154 87/87/87
f 155/155/155 87/87/87 86/86/86
f 156/156/156 5/5/5 8/8/8
f 156/156/156 8/8/8 90/90/90
f 158/158/158 157/157/157 93/93/93
f 158/158/158 93/93/93 92/92/92
f 160/160/160 159/159/159 97/97/97
f 160/160/160 97/97/97 96/96/96
f 161/161/161 1/1/1 4/4/4
f 161/161/161 4/4/4 100/100/100
f 157/157/157 160/160/160 96/96/96
f 157/157/157 96/96/96 93/93/93
f 152/152/152 155/155/155 86/86/86
f 152/152/152 86/86/86 83/83/83
f 144/144/144 149/149/149 160/160/160
f 144/144/144 160/160/160 157/157/157
f 137/137/137 140/140/140 155/155/155
f 137/137/137 155/155/155 152/152/152
f 132/132/132 135/135/135 146/146/146
f 132/132/132 146/146/146 143/143/143
f 143/143/143 146/146/146 149/149/149
f 143/143/143 149/149/149 144/144/144
f 127/127/127 130/130/130 140/140/140
f 127/127/127 140/140/140 137/137/137
f 122/122/122 125/125/125 135/135/135
f 122/122/122 135/135/135 132/132/132
f 117/117/117 120/120/120 130/130/130
f 117/117/117 130/130/130 127/127/127
f 112/112/112 115/115/115 125/125/125
f 112/112/112 125/125/125 122/122/122
f 107/107/107 110/110/110 120/120/120
f 107/107/107 120/120/120 117/117/117
f 102/102/102 105/105/105 115/115/115
f 102/102/102 115/115/115 112/112/112
f 94/94/94 99/99/99 110/110/110
f 94/94/94 110/110/110 107/107/107
f 84/84/84 89/89/89 105/105/105
f 84/84/84 105/105/105 102/102/102
f 93/93/93 96/96/96 99/99/99
f 93/93/93 99/99/99 94/94/94
f 83/83/83 86/86/86 89/89/89
f 83/83/83 89/89/89 84/84/84
f 162/162/162 161/161/161 100/100/100
f 162/162/162 100/100/100 163/163/163
f 164/164/164 156/156/156 90/90/90
f 164/164/164 90/90/90 165/165/165
f 166/166/166 151/151/151 161/161/161
f 166/166/166 161/161/161 162/162/162
f 167/167/167 141/141/141 156/156/156
f 167/167/167 156/156/156 164/164/164
f 168/168/168 136/136/136 150/150/150
f 168/168/168 150/150/150 169/169/169
f 169/169/169 150/150/150 151/151/151
f 169/169/169 151/151/151 166/166/166
f 170/170/170 131/131/131 141/141/141
f 170/170/170 141/141/141 167/167/167
f 171/171/171 126/126/126 136/136/136
f 171/171/171 136/136/136 168/168/168
f 172/172/172 121/121/121 131/131/131
f 172/172/172 131/131/131 170/170/170
f 173/173/173 116/116/116 126/126/126
f 173/173/173 126/126/126 171/171/171
f 174/174/174 111/111/111 121/121/121
f 174/174/174 121/121/121 172/172/172
f 175/175/175 106/106/106 116/116/116
f 175/175/175 116/116/116 173/173/173
f 176/176/176 101/101/101 111/111/111
f 176/176/176 111/111/111 174/174/174
f 177/177/177 91/91/91 106/106/106
f 177/177/177 106/106/106 175/175/175
f 163/163/163 100/100/100 101/101/101
f 163/163/163 101/101/101 176/176/176
f 165/165/165 90/90/90 91/91/91
f 165/165/165 91/91/91 177/177/177
f 87/87/87 165/165/165 177/177/177
f 87/87/87 177/177/177 88/88/88
f 97/97/97 163/163/163 176/176/176
f 97/97/97 176/176/176 98/98/98
f 88/88/88 177/177/177 175/175/175
f 88/88/88 175/175/175 104/104/104
f 98/98/98 176/176/176 174/174/174
f 98/98/98 174/174/174 109/109/109
f 104/104/104 175/175/175 173/173/173
f 104/104/104 173/173/173 114/114/114
f 109/109/109 174/174/174 172/172/172
f 109/109/109 172/172/172 119/119/119
f 114/114/114 173/173/173 171/171/171
f 114/114/114 171/171/171 124/124/124
f 119/119/119 172/172/172 170/170/170
f 119/119/119 170/170/170 129/129/129
f 124/124/124 171/171/171 168/168/168
f 124/124/124 168/168/168 134/134/134
f 129/129/129 170/170/170 167/167/167
f 129/129/129 167/167/167 139/139/139
f 147/147/147 169/169/169 166/166/166
f 147/147/147 166/166/166 148/148/148
f 134/134/134 168/168/168 169/169/169
f 134/134/134 169/169/169 147/147/147
f 139/139/139 167/167/167 164/164/164
f 139/139/139 164/164/164 154/154/154
f 148/148/148 166/166/166 162/162/162
f 148/148/148 162/162/162 159/159/159
f 154/154/154 164/164/164 165/165/165
f 154/154/154 165/165/165 87/87/87
f 159/159/159 162/162/162 163/163/163
f 159/159/159 163/163/163 97/97/97
f 178/178/178 158/158/158 92/92/92
f 178/178/178 92/92/92 179/179/179
f 180/180/180 153/153/153 82/82/82
f 180/180/180 82/82/82 181/181/181
f 182/182/182 145/145/145 158/158/158
f 182/182/182 158/158/158 178/178/178
f 183/183/183 138/138/138 153/153/153
f 183/183/183 153/153/153 180/180/180
f 184/184/184 133/133/133 142/142/142
f 184/184/184 142/142/142 185/185/185
f 185/185/185 142/142/142 145/145/145
f 185/185/185 145/145/145 182/182/182
f 186/186/186 128/128/128 138/138/138
f 186/186/186 138/138/138 183/183/183
f 187/187/187 123/123/123 133/133/133
f 187/187/187 133/133/133 184/184/184
f 188/188/188 118/118/118 128/128/128
f 188/188/188 128/128/128 186/186/186
f 189/189/189 113/113/113 123/123/123
f 189/189/189 123/123/123 187/187/187
f 190/190/190 108/108/108 118/118/118
f 190/190/190 118/118/118 188/188/188
f 191/191/191 103/103/103 113/113/113
f 191/191/191 113/113/113 189/189/189
f 192/192/192 95/95/95 108/108/108
f 192/192/192 108/108/108 190/190/190
f 193/193/193 85/85/85 103/103/103
f 193/193/193 103/103/103 191/191/191
f 179/179/179 92/92/92 95/95/95
f 179/179/179 95/95/95 192/192/192
f 181/181/181 82/82/82 85/85/85
f 181/181/181 85/85/85 193/193/193

