# https://github.com/mikedh/trimesh
mtllib material.mtl
usemtl null.001
v -0.04341589 0.07979547 -0.03336297
v -0.03406174 0.07866816 -0.02012747
v -0.03660170 0.02775089 -0.01925145
v -0.04537595 0.02881840 -0.03178795
v -0.09008982 0.08554167 0.03380765
v -0.10436429 0.08723607 0.02501820
v -0.10310228 0.03586565 0.02350704
v -0.08949561 0.03426061 0.03183122
v -0.05740690 0.08148937 -0.04215459
v -0.05854037 0.03042225 -0.04011539
v -0.07340978 0.08353890 0.03681568
v -0.07366091 0.03236360 0.03467977
v -0.09060546 0.08549793 -0.04193088
v -0.07396790 0.08349156 -0.04516318
v -0.07418977 0.03231876 -0.04296520
v -0.08998400 0.03421919 -0.03990326
v -0.05689101 0.08153310 0.03358394
v -0.05805198 0.03046392 0.03161934
v -0.10475895 0.08720260 -0.03294961
v -0.10347608 0.03583394 -0.03139644
v -0.04302123 0.07982895 0.02460484
v -0.04500216 0.02885011 0.02311553
v -0.11421057 0.08834603 -0.01958738
v -0.11251322 0.03691717 -0.01873993
v -0.03384815 0.07868627 0.01124451
v -0.03639941 0.02776805 0.01046197
v -0.11504930 0.08848157 -0.00389515
v -0.11324349 0.03704555 -0.00387775
v -0.03280009 0.07855017 -0.00444939
v -0.03534248 0.02763904 -0.00440268
v -0.11399698 0.08836415 0.01178459
v -0.11231092 0.03693433 0.01097350
v -0.09413799 0.02148963 0.01520776
v -0.10055363 0.02223719 0.00643898
v -0.08544788 0.01406187 0.00062547
v -0.08258691 0.01372545 0.00457311
v -0.05375160 0.01655923 -0.02347730
v -0.04758629 0.01581235 -0.01470682
v -0.06160416 0.01116972 -0.00889356
v -0.06440672 0.01150598 -0.01284136
v -0.08464678 0.02036686 0.02103173
v -0.07834185 0.01322009 0.00719493
v -0.06299003 0.01768157 -0.02930299
v -0.06859288 0.01201143 -0.01546358
v -0.07358047 0.01903976 0.02302492
v -0.07337198 0.01262266 0.00809212
v -0.07349446 0.00997809 -0.00413274
v -0.06264836 0.01771055 0.02088349
v -0.06843907 0.01202447 0.00712820
v -0.07395031 0.01900839 -0.03129691
v -0.07353846 0.01260854 -0.01636118
v -0.09439950 0.02146745 -0.02320340
v -0.08498845 0.02033788 -0.02915475
v -0.07849566 0.01320704 -0.01539685
v -0.08270463 0.01371547 -0.01271806
v -0.05349009 0.01658141 0.01493385
v -0.06428900 0.01151596 0.00444981
v -0.10069516 0.02222518 -0.01434895
v -0.08551159 0.01405646 -0.00873245
v -0.04744476 0.01582435 0.00608111
v -0.06154045 0.01117512 0.00046437
v -0.10122619 0.02231502 -0.00395106
v -0.08577095 0.01409701 -0.00405153
v -0.04672550 0.01573401 -0.00431831
v -0.06123692 0.01113470 -0.00421686
v -0.05943032 0.02434805 0.02863036
v -0.04746698 0.02286963 0.02083802
v -0.10104716 0.02926898 -0.02911145
v -0.10932257 0.03026142 -0.01751444
v -0.03957884 0.02187798 0.00924365
v -0.10999556 0.03037908 -0.00389601
v -0.03861430 0.02175978 -0.00437701
v -0.10913745 0.03027714 0.00971237
v -0.03976420 0.02186226 -0.01798316
v -0.10070465 0.02929803 0.02119676
v -0.04780949 0.02284058 -0.02947019
v -0.08824240 0.02782720 0.02882451
v -0.05987784 0.02431010 -0.03710062
v -0.07373547 0.02608897 0.03143461
v -0.07421985 0.02604789 -0.03971209
v -0.08868991 0.02778925 -0.03690647
v -0.09124427 0.22226335 0.02831053
v -0.09822232 0.23128736 0.01679171
v -0.10365143 0.21084903 0.01364052
v -0.09502341 0.20576507 0.02632857
v -0.09768470 0.19221708 0.02525792
v -0.10728730 0.19489975 0.01186441
v -0.11323358 0.14577445 0.01236547
v -0.10336550 0.14460237 0.02612248
v -0.10386490 0.11591922 0.02557034
v -0.11361540 0.11706930 0.01207516
v -0.02877865 0.19317690 -0.01964837
v -0.02897707 0.18829639 -0.00515188
v -0.02642979 0.17800856 -0.00477452
v -0.02709774 0.17992365 -0.02011628
v -0.02644059 0.16942303 -0.02041902
v -0.02527014 0.16922882 -0.00455302
v -0.02893992 0.13561603 -0.00450862
v -0.03014281 0.13569938 -0.02080631
v -0.03210240 0.10718364 -0.02046701
v -0.03087000 0.10708310 -0.00447901
v -0.09802414 0.23607704 0.00229527
v -0.10431986 0.21258228 -0.00170089
v -0.10845832 0.19488117 -0.00400147
v -0.11443637 0.14589708 -0.00393248
v -0.11474295 0.11718919 -0.00391382
v -0.03093881 0.18462507 0.00953484
v -0.02775094 0.17695516 0.01064582
v -0.02622385 0.16966470 0.01132709
v -0.02992057 0.13580191 0.01180402
v -0.03188448 0.10724409 0.01152414
v -0.09606231 0.23969266 -0.01239117
v -0.10299876 0.21352522 -0.01712116
v -0.10750496 0.19431719 -0.01988125
v -0.11345560 0.14575562 -0.02024490
v -0.11383320 0.11705082 -0.01991627
v -0.03974810 0.18650223 0.02275630
v -0.03693218 0.17972849 0.02403643
v -0.03564208 0.17279193 0.02484649
v -0.03960041 0.13699631 0.02569275
v -0.04131070 0.10841263 0.02514879
v -0.08725318 0.23784813 -0.02561289
v -0.09381735 0.21081667 -0.03051181
v -0.09808653 0.19126752 -0.03340095
v -0.10377574 0.14456758 -0.03413388
v -0.10426734 0.11588510 -0.03354163
v -0.05217287 0.19231524 0.03229578
v -0.05044303 0.18492329 0.03327467
v -0.04981260 0.17738687 0.03393224
v -0.05416403 0.13871606 0.03502753
v -0.05552752 0.11012445 0.03430573
v -0.07482769 0.23211662 -0.03515243
v -0.08030558 0.20578483 -0.03975039
v -0.08391451 0.18686254 -0.04248657
v -0.08920956 0.14279582 -0.04346865
v -0.08990752 0.11414687 -0.04269977
v -0.06632261 0.20115179 0.03670123
v -0.06622706 0.19169386 0.03695442
v -0.06657946 0.18268995 0.03720082
v -0.07139553 0.14076556 0.03838706
v -0.07240266 0.11215235 0.03760149
v -0.06067777 0.22334954 -0.03955792
v -0.04695806 0.21286245 -0.03815844
v -0.04886641 0.19189309 -0.04099092
v -0.06452068 0.19915344 -0.04342998
v -0.06714672 0.18172170 -0.04575525
v -0.05033669 0.17658202 -0.04270924
v -0.05470014 0.13862887 -0.04370119
v -0.07197571 0.14071046 -0.04682818
v -0.07297181 0.11210114 -0.04599568
v -0.05605340 0.11005900 -0.04292789
v -0.08004246 0.21168034 0.03530172
v -0.08188184 0.19903693 0.03451531
v -0.08338998 0.18792728 0.03415475
v -0.08867356 0.14284128 0.03526010
v -0.08938169 0.11419147 0.03453387
v -0.03575658 0.20224950 -0.03116722
v -0.03572524 0.18510504 -0.03280415
v -0.03604288 0.17222129 -0.03381235
v -0.04001090 0.13686801 -0.03456356
v -0.04171327 0.10833187 -0.03396314
v -0.04086208 0.12259982 -0.03426335
v -0.03112249 0.12144151 -0.02063678
v -0.08902751 0.12851638 0.03489698
v -0.10361532 0.13026080 0.02584654
v -0.05537677 0.12434406 -0.04331455
v -0.07189909 0.12645896 0.03799427
v -0.08955842 0.12847134 -0.04308421
v -0.07247376 0.12640581 -0.04641181
v -0.05484577 0.12442025 0.03466663
v -0.10402166 0.13022634 -0.03383775
v -0.04045555 0.12270448 0.02542089
v -0.11364453 0.13140334 -0.02008046
v -0.03090241 0.12152299 0.01166408
v -0.11458953 0.13154313 -0.00392315
v -0.02990496 0.12134969 -0.00449381
v -0.11342461 0.13142200 0.01222019
v -0.03578791 0.21939372 -0.02953005
v -0.03045981 0.20643015 -0.01918047
v -0.07820332 0.22432400 0.03608840
v -0.08746512 0.23876189 0.03029249
v -0.04504971 0.23383157 -0.03532596
v -0.06641792 0.21060970 0.03644828
v -0.06935006 0.25844839 -0.03055471
v -0.05683511 0.24754588 -0.03568585
v -0.05390297 0.19970718 0.03131714
v -0.08068901 0.26487961 -0.02071373
v -0.04256378 0.19327599 0.02147616
v -0.08912610 0.26586035 -0.00766143
v -0.03412693 0.19229524 0.00842386
v -0.09172843 0.25957158 0.00629167
v -0.03152460 0.19858401 -0.00552924
v -0.09279323 0.25172544 0.01994314
vn 0.68262768 -0.05262249 -0.72886926
vn 0.93740171 -0.05966470 -0.34310082
vn 0.89913392 -0.27856955 -0.33757547
vn 0.64843792 -0.27075070 -0.71149302
vn -0.36124778 -0.02721393 0.93207264
vn -0.68133777 -0.01996866 0.73169678
vn -0.67201185 -0.24299252 0.69953895
vn -0.36921349 -0.24476095 0.89653414
vn 0.35559753 -0.04404141 -0.93360096
vn 0.32585892 -0.26006323 -0.90894616
vn 0.00155501 -0.03476046 0.99939448
vn -0.02033216 -0.24997446 0.96803898
vn -0.37390646 -0.02828836 -0.92703491
vn -0.01206013 -0.03591796 -0.99928200
vn -0.03351758 -0.25109568 -0.96738178
vn -0.38138944 -0.24579421 -0.89113826
vn 0.36829415 -0.04294876 0.92871678
vn 0.33820587 -0.25900498 0.90472829
vn -0.69124043 -0.02080869 -0.72232521
vn -0.68147409 -0.24379852 -0.69004017
vn 0.69249690 -0.05174812 0.71956247
vn 0.65806484 -0.26992980 0.70291436
vn -0.94498605 -0.01432351 -0.32679707
vn -0.91954309 -0.23982586 -0.31132632
vn 0.94198233 -0.05923910 0.33039379
vn 0.90364939 -0.27818656 0.32562274
vn -0.99991310 -0.01129217 0.00681374
vn -0.97101873 -0.23890810 0.00674680
vn 0.99820793 -0.05945966 -0.00674052
vn 0.96183008 -0.27357289 -0.00639098
vn -0.94044888 -0.01393865 0.33964941
vn -0.91521829 -0.23945312 0.32409519
vn -0.43185636 -0.82288629 0.36926717
vn -0.55213797 -0.81689686 0.16680299
vn -0.38026771 -0.91953832 0.09922593
vn -0.30839902 -0.92575932 0.21876872
vn 0.27536738 -0.87508768 -0.39798796
vn 0.42261004 -0.88685948 -0.18676454
vn 0.18346095 -0.97736377 -0.10536749
vn 0.10000496 -0.96844506 -0.22828321
vn -0.27930525 -0.82904536 0.48442999
vn -0.21823835 -0.93304390 0.28600904
vn 0.09565110 -0.85784549 -0.50492764
vn -0.00098820 -0.95632833 -0.29229301
vn -0.09402407 -0.84081835 0.53308910
vn -0.10980221 -0.94350088 0.31264931
vn -0.11472523 -0.99339640 0.00135325
vn 0.10252132 -0.85726202 0.50457036
vn 0.00299519 -0.95599002 0.29338378
vn -0.10126728 -0.84143460 -0.53078508
vn -0.11404144 -0.94385928 -0.31003913
vn -0.43683925 -0.82330775 -0.36240286
vn -0.28587130 -0.82960236 -0.47962224
vn -0.22210912 -0.93337095 -0.28193286
vn -0.31134108 -0.92600864 -0.21348263
vn 0.28076774 -0.87463003 0.39521116
vn 0.10311244 -0.96818203 0.22801614
vn -0.55435473 -0.81708211 -0.15832795
vn -0.38157618 -0.91964895 -0.09298050
vn 0.42512089 -0.88664669 0.18201631
vn 0.18488619 -0.97724324 0.10398489
vn -0.58087379 -0.81398159 0.00442277
vn -0.39783376 -0.91745180 0.00323837
vn 0.46179530 -0.88698268 -0.00263226
vn 0.20383219 -0.97900546 -0.00082240
vn 0.22798075 -0.62848365 0.74366200
vn 0.49349174 -0.64632559 0.58200449
vn -0.58367807 -0.60140234 -0.54555947
vn -0.76519746 -0.59670144 -0.24170290
vn 0.70289993 -0.65802258 0.27007040
vn -0.80445075 -0.59399092 0.00581607
vn 0.75606799 -0.65447563 -0.00477024
vn -0.76183444 -0.59641165 0.25278738
vn 0.69916260 -0.65833950 -0.27885631
vn -0.57618964 -0.60076618 0.55415303
vn 0.48552629 -0.64700550 -0.58791846
vn -0.34264964 -0.60335505 0.72010690
vn 0.21784018 -0.62935489 -0.74596119
vn -0.06475788 -0.61273980 0.78762710
vn -0.07547378 -0.61365598 -0.78595805
vn -0.35242307 -0.60418522 -0.71467352
vn -0.67442214 0.07032856 0.73498887
vn -0.92178714 0.19090036 0.33743986
vn -0.92318118 0.18209952 0.33849123
vn -0.67468542 0.07362662 0.73442405
vn -0.67624813 0.08556525 0.73168784
vn -0.93162882 0.14696981 0.33236688
vn -0.93757343 0.06318684 0.34199938
vn -0.67994595 0.04614649 0.73180878
vn -0.68131781 -0.00205598 0.73198491
vn -0.93995446 0.00803573 0.34120533
vn 0.96868360 0.13502410 -0.20837606
vn 0.95939964 0.24605747 0.13787006
vn 0.98077530 0.18886192 0.04910176
vn 0.95251435 0.10271020 -0.28664792
vn 0.94366670 -0.01623666 -0.33049902
vn 0.99994189 0.01036388 0.00297766
vn 0.99607176 -0.08831813 -0.00640645
vn 0.93446034 -0.08239099 -0.34640390
vn 0.93714446 -0.06745283 -0.34235999
vn 0.99763393 -0.06842541 -0.00667690
vn -0.96624237 0.25762016 0.00275840
vn -0.97012985 0.24258459 0.00088055
vn -0.98456144 0.17503874 0.00045836
vn -0.99775457 0.06668549 0.00623356
vn -0.99990946 0.01161147 0.00680040
vn 0.86964434 0.36338773 0.33416781
vn 0.91077429 0.27236500 0.31033444
vn 0.94544053 0.04260973 0.32299635
vn 0.93894905 -0.08175041 0.33420295
vn 0.94169980 -0.06699044 0.32971770
vn -0.90064126 0.29282048 -0.32109413
vn -0.90034264 0.27643028 -0.33610937
vn -0.91905648 0.19019526 -0.34519696
vn -0.94184482 0.06335802 -0.33002138
vn -0.94451302 0.00764911 -0.32838494
vn 0.72877604 0.36525759 0.57919973
vn 0.72168291 0.27580795 0.63490462
vn 0.71193701 0.06615110 0.69912076
vn 0.68467724 -0.05690590 0.72662157
vn 0.69119871 -0.05526407 0.72054863
vn -0.65459460 0.28431484 -0.70047921
vn -0.63996232 0.26469296 -0.72137779
vn -0.66026551 0.17035624 -0.73145622
vn -0.68956357 0.04609500 -0.72275680
vn -0.69122541 -0.00289565 -0.72263342
vn 0.52091104 0.22021097 0.82471740
vn 0.45691457 0.17226575 0.87267041
vn 0.40231702 0.05249776 0.91399401
vn 0.36430335 -0.02850917 0.93084389
vn 0.36896580 -0.04132193 0.92852396
vn -0.35125723 0.23178194 -0.90713584
vn -0.32835534 0.21236266 -0.92037219
vn -0.34358659 0.12906015 -0.93021059
vn -0.37087962 0.02426820 -0.92836380
vn -0.37230861 -0.01554372 -0.92797887
vn 0.13044754 0.04841860 0.99027228
vn 0.06725912 0.04500594 0.99671996
vn 0.02841762 0.03320254 0.99904466
vn 0.00323850 -0.00058359 0.99999458
vn 0.00386814 -0.02757990 0.99961215
vn 0.00660251 0.16020358 -0.98706198
vn 0.39466214 0.09551927 -0.91384780
vn 0.38416967 0.08384095 -0.91944784
vn 0.02234024 0.14412540 -0.98930728
vn 0.01012104 0.07726889 -0.99695897
vn 0.36679059 0.02676507 -0.92991847
vn 0.35145089 -0.02971534 -0.93573469
vn -0.01050984 -0.00143437 -0.99994379
vn -0.00976054 -0.02874150 -0.99953926
vn 0.35624045 -0.04243130 -0.93343043
vn -0.31805143 0.00135268 0.94807249
vn -0.34079161 0.01341963 0.94004309
vn -0.34895101 0.04385052 0.93611449
vn -0.35823122 0.02467329 0.93330681
vn -0.35963818 -0.01446850 0.93297964
vn 0.75108093 0.07698197 -0.65570670
vn 0.71415132 0.06241556 -0.69720316
vn 0.68866032 -0.00792192 -0.72504085
vn 0.67476994 -0.05811056 -0.73573691
vn 0.68130177 -0.05617692 -0.72984391
vn 0.68000460 -0.05612105 -0.73105699
vn 0.93713206 -0.06746311 -0.34239197
vn -0.36037931 -0.01444425 0.93269402
vn -0.68261641 -0.00200794 0.73077410
vn 0.35550386 -0.04240027 -0.93371266
vn 0.00368364 -0.02757156 0.99961305
vn -0.37304777 -0.01552290 -0.92768234
vn -0.00995719 -0.02873649 -0.99953747
vn 0.36826324 -0.04128870 0.92880434
vn -0.69250768 -0.00284935 -0.72140491
vn 0.68992913 -0.05520648 0.72176868
vn -0.94452810 0.00766612 -0.32834122
vn 0.94166875 -0.06700065 0.32980451
vn -0.99990964 0.01160454 0.00680038
vn 0.99763501 -0.06841415 -0.00662473
vn -0.93996978 0.00805399 0.34116274
vn 0.68052655 0.07117303 -0.72925860
vn 0.95776850 0.11373438 -0.26409084
vn -0.40733844 0.00844652 0.91323823
vn -0.73596072 0.09283441 0.67062920
vn 0.29085493 0.10939884 -0.95049214
vn 0.04767117 0.01731327 0.99871302
vn -0.41718951 0.24353638 -0.87558150
vn -0.08846548 0.17814651 -0.98001921
vn 0.50685644 0.18152747 0.84270066
vn -0.68393999 0.28739595 -0.67054433
vn 0.73390764 0.35905424 0.57659310
vn -0.89615482 0.29335818 -0.33293787
vn 0.86232781 0.35836726 0.35772005
vn -0.96565998 0.25960702 -0.01024828
vn 0.95900232 0.22584176 0.17120178
vn -0.94530827 0.21173221 0.24811640
vt 0.87024778 0.70366400
vt 0.87024850 0.70366418
vt 0.87024862 0.70366275
vt 0.87024850 0.70366275
vt 0.87025028 0.70366096
vt 0.87024963 0.70366037
vt 0.87024891 0.70366180
vt 0.87024909 0.70366198
vt 0.87024713 0.70366353
vt 0.87024832 0.70366263
vt 0.87025064 0.70366168
vt 0.87024915 0.70366216
vt 0.87024653 0.70366204
vt 0.87024665 0.70366281
vt 0.87024820 0.70366246
vt 0.87024814 0.70366228
vt 0.87025064 0.70366251
vt 0.87024915 0.70366240
vt 0.87024677 0.70366120
vt 0.87024820 0.70366204
vt 0.87025034 0.70366329
vt 0.87024909 0.70366251
vt 0.87024736 0.70366055
vt 0.87024832 0.70366186
vt 0.87024981 0.70366383
vt 0.87024897 0.70366263
vt 0.87024808 0.70366019
vt 0.87024850 0.70366180
vt 0.87024915 0.70366412
vt 0.87024879 0.70366275
vt 0.87024885 0.70366013
vt 0.87024873 0.70366174
vt 0.87024885 0.70366204
vt 0.87024873 0.70366198
vt 0.87024868 0.70366216
vt 0.87024873 0.70366216
vt 0.87024856 0.70366251
vt 0.87024868 0.70366257
vt 0.87024868 0.70366240
vt 0.87024862 0.70366240
vt 0.87024891 0.70366216
vt 0.87024879 0.70366228
vt 0.87024850 0.70366251
vt 0.87024862 0.70366240
vt 0.87024897 0.70366228
vt 0.87024879 0.70366228
vt 0.87024868 0.70366228
vt 0.87024897 0.70366234
vt 0.87024879 0.70366234
vt 0.87024844 0.70366240
vt 0.87024856 0.70366234
vt 0.87024844 0.70366216
vt 0.87024838 0.70366228
vt 0.87024856 0.70366228
vt 0.87024856 0.70366228
vt 0.87024891 0.70366246
vt 0.87024879 0.70366240
vt 0.87024850 0.70366204
vt 0.87024862 0.70366222
vt 0.87024885 0.70366251
vt 0.87024873 0.70366240
vt 0.87024862 0.70366204
vt 0.87024868 0.70366216
vt 0.87024873 0.70366257
vt 0.87024873 0.70366240
vt 0.87024909 0.70366240
vt 0.87024903 0.70366251
vt 0.87024826 0.70366204
vt 0.87024838 0.70366192
vt 0.87024891 0.70366263
vt 0.87024856 0.70366186
vt 0.87024879 0.70366263
vt 0.87024873 0.70366180
vt 0.87024868 0.70366269
vt 0.87024885 0.70366192
vt 0.87024850 0.70366263
vt 0.87024903 0.70366204
vt 0.87024838 0.70366251
vt 0.87024909 0.70366216
vt 0.87024826 0.70366240
vt 0.87024826 0.70366228
vt 0.87026262 0.70360947
vt 0.87024450 0.70360386
vt 0.87024719 0.70362484
vt 0.87025970 0.70362663
vt 0.87025738 0.70363629
vt 0.87024796 0.70363551
vt 0.87024903 0.70365405
vt 0.87025201 0.70365465
vt 0.87025052 0.70365840
vt 0.87024897 0.70365798
vt 0.87023759 0.70370030
vt 0.87025553 0.70369905
vt 0.87025452 0.70368862
vt 0.87024301 0.70368880
vt 0.87024510 0.70368260
vt 0.87025356 0.70368278
vt 0.87025070 0.70367026
vt 0.87024748 0.70367020
vt 0.87024820 0.70366621
vt 0.87024975 0.70366615
vt 0.87022746 0.70360613
vt 0.87023604 0.70362759
vt 0.87024009 0.70363843
vt 0.87024617 0.70365453
vt 0.87024742 0.70365816
vt 0.87026930 0.70368886
vt 0.87026429 0.70368290
vt 0.87026137 0.70367897
vt 0.87025362 0.70366883
vt 0.87025112 0.70366549
vt 0.87021202 0.70361280
vt 0.87022662 0.70363325
vt 0.87023377 0.70364290
vt 0.87024373 0.70365584
vt 0.87024605 0.70365882
vt 0.87027973 0.70367622
vt 0.87027317 0.70367467
vt 0.87026864 0.70367289
vt 0.87025601 0.70366621
vt 0.87025219 0.70366430
vt 0.87019986 0.70362604
vt 0.87021971 0.70364249
vt 0.87022924 0.70364940
vt 0.87024188 0.70365798
vt 0.87024504 0.70366007
vt 0.87028557 0.70366013
vt 0.87027884 0.70366251
vt 0.87027329 0.70366323
vt 0.87025702 0.70366287
vt 0.87025279 0.70366275
vt 0.87019306 0.70364368
vt 0.87021619 0.70365381
vt 0.87022704 0.70365721
vt 0.87024087 0.70366085
vt 0.87024456 0.70366168
vt 0.87028575 0.70364130
vt 0.87027872 0.70364761
vt 0.87027287 0.70365155
vt 0.87025654 0.70365936
vt 0.87025267 0.70366096
vt 0.87019354 0.70366371
vt 0.87020236 0.70368254
vt 0.87022227 0.70367724
vt 0.87021697 0.70366609
vt 0.87022746 0.70366555
vt 0.87023097 0.70367336
vt 0.87024212 0.70366681
vt 0.87024087 0.70366389
vt 0.87024468 0.70366329
vt 0.87024540 0.70366472
vt 0.87027776 0.70362276
vt 0.87027150 0.70363438
vt 0.87026674 0.70364159
vt 0.87025470 0.70365644
vt 0.87025183 0.70365942
vt 0.87021840 0.70369565
vt 0.87023169 0.70368528
vt 0.87023723 0.70367932
vt 0.87024444 0.70366907
vt 0.87024665 0.70366573
vt 0.87024575 0.70366716
vt 0.87024790 0.70366788
vt 0.87025303 0.70365822
vt 0.87025118 0.70365679
vt 0.87024409 0.70366561
vt 0.87025428 0.70366037
vt 0.87024289 0.70366132
vt 0.87024301 0.70366359
vt 0.87025452 0.70366281
vt 0.87024367 0.70365918
vt 0.87025368 0.70366514
vt 0.87024504 0.70365757
vt 0.87025213 0.70366687
vt 0.87024689 0.70365655
vt 0.87025011 0.70366782
vt 0.87024903 0.70365632
vt 0.87019330 0.70370519
vt 0.87022465 0.70371687
vt 0.87028396 0.70360613
vt 0.87026316 0.70358574
vt 0.87017041 0.70368099
vt 0.87029368 0.70363200
vt 0.87016129 0.70362222
vt 0.87015975 0.70365125
vt 0.87029368 0.70365584
vt 0.87017274 0.70359862
vt 0.87028873 0.70367730
vt 0.87019068 0.70358294
vt 0.87027711 0.70369804
vt 0.87021321 0.70357633
vt 0.87025529 0.70371574
vt 0.87023753 0.70357543
f 44/44/44 40/40/40 47/47/47
f 46/46/46 42/42/42 47/47/47
f 54/54/54 51/51/51 47/47/47
f 51/51/51 44/44/44 47/47/47
f 49/49/49 46/46/46 47/47/47
f 55/55/55 54/54/54 47/47/47
f 57/57/57 49/49/49 47/47/47
f 59/59/59 55/55/55 47/47/47
f 61/61/61 57/57/57 47/47/47
f 63/63/63 59/59/59 47/47/47
f 65/65/65 61/61/61 47/47/47
f 35/35/35 63/63/63 47/47/47
f 39/39/39 65/65/65 47/47/47
f 36/36/36 35/35/35 47/47/47
f 40/40/40 39/39/39 47/47/47
f 42/42/42 36/36/36 47/47/47
f 1/1/1 2/2/2 3/3/3
f 1/1/1 3/3/3 4/4/4
f 5/5/5 6/6/6 7/7/7
f 5/5/5 7/7/7 8/8/8
f 9/9/9 1/1/1 4/4/4
f 9/9/9 4/4/4 10/10/10
f 11/11/11 5/5/5 8/8/8
f 11/11/11 8/8/8 12/12/12
f 13/13/13 14/14/14 15/15/15
f 13/13/13 15/15/15 16/16/16
f 14/14/14 9/9/9 10/10/10
f 14/14/14 10/10/10 15/15/15
f 17/17/17 11/11/11 12/12/12
f 17/17/17 12/12/12 18/18/18
f 19/19/19 13/13/13 16/16/16
f 19/19/19 16/16/16 20/20/20
f 21/21/21 17/17/17 18/18/18
f 21/21/21 18/18/18 22/22/22
f 23/23/23 19/19/19 20/20/20
f 23/23/23 20/20/20 24/24/24
f 25/25/25 21/21/21 22/22/22
f 25/25/25 22/22/22 26/26/26
f 27/27/27 23/23/23 24/24/24
f 27/27/27 24/24/24 28/28/28
f 29/29/29 25/25/25 26/26/26
f 29/29/29 26/26/26 30/30/30
f 31/31/31 27/27/27 28/28/28
f 31/31/31 28/28/28 32/32/32
f 2/2/2 29/29/29 30/30/30
f 2/2/2 30/30/30 3/3/3
f 6/6/6 31/31/31 32/32/32
f 6/6/6 32/32/32 7/7/7
f 33/33/33 34/34/34 35/35/35
f 33/33/33 35/35/35 36/36/36
f 37/37/37 38/38/38 39/39/39
f 37/37/37 39/39/39 40/40/40
f 41/41/41 33/33/33 36/36/36
f 41/41/41 36/36/36 42/42/42
f 43/43/43 37/37/37 40/40/40
f 43/43/43 40/40/40 44/44/44
f 45/45/45 41/41/41 42/42/42
f 45/45/45 42/42/42 46/46/46
f 48/48/48 45/45/45 46/46/46
f 48/48/48 46/46/46 49/49/49
f 50/50/50 43/43/43 44/44/44
f 50/50/50 44/44/44 51/51/51
f 52/52/52 53/53/53 54/54/54
f 52/52/52 54/54/54 55/55/55
f 56/56/56 48/48/48 49/49/49
f 56/56/56 49/49/49 57/57/57
f 58/58/58 52/52/52 55/55/55
f 58/58/58 55/55/55 59/59/59
f 60/60/60 56/56/56 57/57/57
f 60/60/60 57/57/57 61/61/61
f 62/62/62 58/58/58 59/59/59
f 62/62/62 59/59/59 63/63/63
f 64/64/64 60/60/60 61/61/61
f 64/64/64 61/61/61 65/65/65
f 34/34/34 62/62/62 63/63/63
f 34/34/34 63/63/63 35/35/35
f 38/38/38 64/64/64 65/65/65
f 38/38/38 65/65/65 39/39/39
f 22/22/22 18/18/18 66/66/66
f 22/22/22 66/66/66 67/67/67
f 24/24/24 20/20/20 68/68/68
f 24/24/24 68/68/68 69/69/69
f 26/26/26 22/22/22 67/67/67
f 26/26/26 67/67/67 70/70/70
f 28/28/28 24/24/24 69/69/69
f 28/28/28 69/69/69 71/71/71
f 30/30/30 26/26/26 70/70/70
f 30/30/30 70/70/70 72/72/72
f 32/32/32 28/28/28 71/71/71
f 32/32/32 71/71/71 73/73/73
f 3/3/3 30/30/30 72/72/72
f 3/3/3 72/72/72 74/74/74
f 7/7/7 32/32/32 73/73/73
f 7/7/7 73/73/73 75/75/75
f 4/4/4 3/3/3 74/74/74
f 4/4/4 74/74/74 76/76/76
f 8/8/8 7/7/7 75/75/75
f 8/8/8 75/75/75 77/77/77
f 10/10/10 4/4/4 76/76/76
f 10/10/10 76/76/76 78/78/78
f 12/12/12 8/8/8 77/77/77
f 12/12/12 77/77/77 79/79/79
f 16/16/16 15/15/15 80/80/80
f 16/16/16 80/80/80 81/81/81
f 15/15/15 10/10/10 78/78/78
f 15/15/15 78/78/78 80/80/80
f 18/18/18 12/12/12 79/79/79
f 18/18/18 79/79/79 66/66/66
f 20/20/20 16/16/16 81/81/81
f 20/20/20 81/81/81 68/68/68
f 81/81/81 80/80/80 50/50/50
f 81/81/81 50/50/50 53/53/53
f 68/68/68 81/81/81 53/53/53
f 68/68/68 53/53/53 52/52/52
f 69/69/69 68/68/68 52/52/52
f 69/69/69 52/52/52 58/58/58
f 71/71/71 69/69/69 58/58/58
f 71/71/71 58/58/58 62/62/62
f 73/73/73 71/71/71 62/62/62
f 73/73/73 62/62/62 34/34/34
f 75/75/75 73/73/73 34/34/34
f 75/75/75 34/34/34 33/33/33
f 77/77/77 75/75/75 33/33/33
f 77/77/77 33/33/33 41/41/41
f 79/79/79 77/77/77 41/41/41
f 79/79/79 41/41/41 45/45/45
f 66/66/66 79/79/79 45/45/45
f 66/66/66 45/45/45 48/48/48
f 67/67/67 66/66/66 48/48/48
f 67/67/67 48/48/48 56/56/56
f 70/70/70 67/67/67 56/56/56
f 70/70/70 56/56/56 60/60/60
f 72/72/72 70/70/70 60/60/60
f 72/72/72 60/60/60 64/64/64
f 74/74/74 72/72/72 64/64/64
f 74/74/74 64/64/64 38/38/38
f 76/76/76 74/74/74 38/38/38
f 76/76/76 38/38/38 37/37/37
f 78/78/78 76/76/76 37/37/37
f 78/78/78 37/37/37 43/43/43
f 80/80/80 78/78/78 43/43/43
f 80/80/80 43/43/43 50/50/50
f 53/53/53 50/50/50 51/51/51
f 53/53/53 51/51/51 54/54/54
f 82/82/82 83/83/83 84/84/84
f 82/82/82 84/84/84 85/85/85
f 86/86/86 87/87/87 88/88/88
f 86/86/86 88/88/88 89/89/89
f 90/90/90 91/91/91 31/31/31
f 90/90/90 31/31/31 6/6/6
f 92/92/92 93/93/93 94/94/94
f 92/92/92 94/94/94 95/95/95
f 96/96/96 97/97/97 98/98/98
f 96/96/96 98/98/98 99/99/99
f 100/100/100 101/101/101 29/29/29
f 100/100/100 29/29/29 2/2/2
f 83/83/83 102/102/102 103/103/103
f 83/83/83 103/103/103 84/84/84
f 87/87/87 104/104/104 105/105/105
f 87/87/87 105/105/105 88/88/88
f 91/91/91 106/106/106 27/27/27
f 91/91/91 27/27/27 31/31/31
f 93/93/93 107/107/107 108/108/108
f 93/93/93 108/108/108 94/94/94
f 97/97/97 109/109/109 110/110/110
f 97/97/97 110/110/110 98/98/98
f 101/101/101 111/111/111 25/25/25
f 101/101/101 25/25/25 29/29/29
f 102/102/102 112/112/112 113/113/113
f 102/102/102 113/113/113 103/103/103
f 104/104/104 114/114/114 115/115/115
f 104/104/104 115/115/115 105/105/105
f 106/106/106 116/116/116 23/23/23
f 106/106/106 23/23/23 27/27/27
f 107/107/107 117/117/117 118/118/118
f 107/107/107 118/118/118 108/108/108
f 109/109/109 119/119/119 120/120/120
f 109/109/109 120/120/120 110/110/110
f 111/111/111 121/121/121 21/21/21
f 111/111/111 21/21/21 25/25/25
f 112/112/112 122/122/122 123/123/123
f 112/112/112 123/123/123 113/113/113
f 114/114/114 124/124/124 125/125/125
f 114/114/114 125/125/125 115/115/115
f 116/116/116 126/126/126 19/19/19
f 116/116/116 19/19/19 23/23/23
f 117/117/117 127/127/127 128/128/128
f 117/117/117 128/128/128 118/118/118
f 119/119/119 129/129/129 130/130/130
f 119/119/119 130/130/130 120/120/120
f 121/121/121 131/131/131 17/17/17
f 121/121/121 17/17/17 21/21/21
f 122/122/122 132/132/132 133/133/133
f 122/122/122 133/133/133 123/123/123
f 124/124/124 134/134/134 135/135/135
f 124/124/124 135/135/135 125/125/125
f 126/126/126 136/136/136 13/13/13
f 126/126/126 13/13/13 19/19/19
f 127/127/127 137/137/137 138/138/138
f 127/127/127 138/138/138 128/128/128
f 129/129/129 139/139/139 140/140/140
f 129/129/129 140/140/140 130/130/130
f 131/131/131 141/141/141 11/11/11
f 131/131/131 11/11/11 17/17/17
f 142/142/142 143/143/143 144/144/144
f 142/142/142 144/144/144 145/145/145
f 146/146/146 147/147/147 148/148/148
f 146/146/146 148/148/148 149/149/149
f 150/150/150 151/151/151 9/9/9
f 150/150/150 9/9/9 14/14/14
f 132/132/132 142/142/142 145/145/145
f 132/132/132 145/145/145 133/133/133
f 134/134/134 146/146/146 149/149/149
f 134/134/134 149/149/149 135/135/135
f 136/136/136 150/150/150 14/14/14
f 136/136/136 14/14/14 13/13/13
f 137/137/137 152/152/152 153/153/153
f 137/137/137 153/153/153 138/138/138
f 139/139/139 154/154/154 155/155/155
f 139/139/139 155/155/155 140/140/140
f 141/141/141 156/156/156 5/5/5
f 141/141/141 5/5/5 11/11/11
f 143/143/143 157/157/157 158/158/158
f 143/143/143 158/158/158 144/144/144
f 147/147/147 159/159/159 160/160/160
f 147/147/147 160/160/160 148/148/148
f 151/151/151 161/161/161 1/1/1
f 151/151/151 1/1/1 9/9/9
f 152/152/152 82/82/82 85/85/85
f 152/152/152 85/85/85 153/153/153
f 154/154/154 86/86/86 89/89/89
f 154/154/154 89/89/89 155/155/155
f 156/156/156 90/90/90 6/6/6
f 156/156/156 6/6/6 5/5/5
f 157/157/157 92/92/92 95/95/95
f 157/157/157 95/95/95 158/158/158
f 159/159/159 96/96/96 99/99/99
f 159/159/159 99/99/99 160/160/160
f 161/161/161 100/100/100 2/2/2
f 161/161/161 2/2/2 1/1/1
f 158/158/158 95/95/95 96/96/96
f 158/158/158 96/96/96 159/159/159
f 153/153/153 85/85/85 86/86/86
f 153/153/153 86/86/86 154/154/154
f 144/144/144 158/158/158 159/159/159
f 144/144/144 159/159/159 147/147/147
f 138/138/138 153/153/153 154/154/154
f 138/138/138 154/154/154 139/139/139
f 133/133/133 145/145/145 146/146/146
f 133/133/133 146/146/146 134/134/134
f 145/145/145 144/144/144 147/147/147
f 145/145/145 147/147/147 146/146/146
f 128/128/128 138/138/138 139/139/139
f 128/128/128 139/139/139 129/129/129
f 123/123/123 133/133/133 134/134/134
f 123/123/123 134/134/134 124/124/124
f 118/118/118 128/128/128 129/129/129
f 118/118/118 129/129/129 119/119/119
f 113/113/113 123/123/123 124/124/124
f 113/113/113 124/124/124 114/114/114
f 108/108/108 118/118/118 119/119/119
f 108/108/108 119/119/119 109/109/109
f 103/103/103 113/113/113 114/114/114
f 103/103/103 114/114/114 104/104/104
f 94/94/94 108/108/108 109/109/109
f 94/94/94 109/109/109 97/97/97
f 84/84/84 103/103/103 104/104/104
f 84/84/84 104/104/104 87/87/87
f 95/95/95 94/94/94 97/97/97
f 95/95/95 97/97/97 96/96/96
f 85/85/85 84/84/84 87/87/87
f 85/85/85 87/87/87 86/86/86
f 162/162/162 163/163/163 100/100/100
f 162/162/162 100/100/100 161/161/161
f 164/164/164 165/165/165 90/90/90
f 164/164/164 90/90/90 156/156/156
f 166/166/166 162/162/162 161/161/161
f 166/166/166 161/161/161 151/151/151
f 167/167/167 164/164/164 156/156/156
f 167/167/167 156/156/156 141/141/141
f 168/168/168 169/169/169 150/150/150
f 168/168/168 150/150/150 136/136/136
f 169/169/169 166/166/166 151/151/151
f 169/169/169 151/151/151 150/150/150
f 170/170/170 167/167/167 141/141/141
f 170/170/170 141/141/141 131/131/131
f 171/171/171 168/168/168 136/136/136
f 171/171/171 136/136/136 126/126/126
f 172/172/172 170/170/170 131/131/131
f 172/172/172 131/131/131 121/121/121
f 173/173/173 171/171/171 126/126/126
f 173/173/173 126/126/126 116/116/116
f 174/174/174 172/172/172 121/121/121
f 174/174/174 121/121/121 111/111/111
f 175/175/175 173/173/173 116/116/116
f 175/175/175 116/116/116 106/106/106
f 176/176/176 174/174/174 111/111/111
f 176/176/176 111/111/111 101/101/101
f 177/177/177 175/175/175 106/106/106
f 177/177/177 106/106/106 91/91/91
f 163/163/163 176/176/176 101/101/101
f 163/163/163 101/101/101 100/100/100
f 165/165/165 177/177/177 91/91/91
f 165/165/165 91/91/91 90/90/90
f 89/89/89 88/88/88 177/177/177
f 89/89/89 177/177/177 165/165/165
f 99/99/99 98/98/98 176/176/176
f 99/99/99 176/176/176 163/163/163
f 88/88/88 105/105/105 175/175/175
f 88/88/88 175/175/175 177/177/177
f 98/98/98 110/110/110 174/174/174
f 98/98/98 174/174/174 176/176/176
f 105/105/105 115/115/115 173/173/173
f 105/105/105 173/173/173 175/175/175
f 110/110/110 120/120/120 172/172/172
f 110/110/110 172/172/172 174/174/174
f 115/115/115 125/125/125 171/171/171
f 115/115/115 171/171/171 173/173/173
f 120/120/120 130/130/130 170/170/170
f 120/120/120 170/170/170 172/172/172
f 125/125/125 135/135/135 168/168/168
f 125/125/125 168/168/168 171/171/171
f 130/130/130 140/140/140 167/167/167
f 130/130/130 167/167/167 170/170/170
f 149/149/149 148/148/148 166/166/166
f 149/149/149 166/166/166 169/169/169
f 135/135/135 149/149/149 169/169/169
f 135/135/135 169/169/169 168/168/168
f 140/140/140 155/155/155 164/164/164
f 140/140/140 164/164/164 167/167/167
f 148/148/148 160/160/160 162/162/162
f 148/148/148 162/162/162 166/166/166
f 155/155/155 89/89/89 165/165/165
f 155/155/155 165/165/165 164/164/164
f 160/160/160 99/99/99 163/163/163
f 160/160/160 163/163/163 162/162/162
f 178/178/178 179/179/179 92/92/92
f 178/178/178 92/92/92 157/157/157
f 180/180/180 181/181/181 82/82/82
f 180/180/180 82/82/82 152/152/152
f 182/182/182 178/178/178 157/157/157
f 182/182/182 157/157/157 143/143/143
f 183/183/183 180/180/180 152/152/152
f 183/183/183 152/152/152 137/137/137
f 184/184/184 185/185/185 142/142/142
f 184/184/184 142/142/142 132/132/132
f 185/185/185 182/182/182 143/143/143
f 185/185/185 143/143/143 142/142/142
f 186/186/186 183/183/183 137/137/137
f 186/186/186 137/137/137 127/127/127
f 187/187/187 184/184/184 132/132/132
f 187/187/187 132/132/132 122/122/122
f 188/188/188 186/186/186 127/127/127
f 188/188/188 127/127/127 117/117/117
f 189/189/189 187/187/187 122/122/122
f 189/189/189 122/122/122 112/112/112
f 190/190/190 188/188/188 117/117/117
f 190/190/190 117/117/117 107/107/107
f 191/191/191 189/189/189 112/112/112
f 191/191/191 112/112/112 102/102/102
f 192/192/192 190/190/190 107/107/107
f 192/192/192 107/107/107 93/93/93
f 193/193/193 191/191/191 102/102/102
f 193/193/193 102/102/102 83/83/83
f 179/179/179 192/192/192 93/93/93
f 179/179/179 93/93/93 92/92/92
f 181/181/181 193/193/193 83/83/83
f 181/181/181 83/83/83 82/82/82

