# https://github.com/mikedh/trimesh
mtllib material.mtl
usemtl null.005
v -0.19557901 -0.13774800 -0.22146800
v -0.15782100 -0.08356400 -0.21694501
v -0.16763601 -0.08018500 -0.00945200
v -0.16763601 -0.08018500 -0.00945200
v -0.20305000 -0.13150500 -0.01373600
v -0.20305000 -0.13150500 -0.01373600
v -0.38767400 0.13465300 -0.24420699
v -0.44560900 0.09844900 -0.25097600
v -0.43986201 0.09220600 -0.04168400
v -0.43986201 0.09220600 -0.04168400
v -0.38463601 0.12649600 -0.03527300
v -0.38463601 0.12649600 -0.03527300
v -0.25235900 -0.17395300 -0.22823800
v -0.25647399 -0.16579600 -0.02014700
v -0.25647399 -0.16579600 -0.02014700
v -0.31977400 0.14736700 -0.23622200
v -0.32017699 0.13853700 -0.02771000
v -0.32017699 0.13853700 -0.02771000
v -0.38767400 -0.17395300 -0.24420699
v -0.31977400 -0.18666600 -0.23622200
v -0.32017800 -0.17783700 -0.02771000
v -0.32017800 -0.17783700 -0.02771000
v -0.38463601 -0.16579500 -0.03527300
v -0.38463601 -0.16579500 -0.03527300
v -0.25235799 0.13465300 -0.22823800
v -0.25647399 0.12649600 -0.02014800
v -0.25647399 0.12649600 -0.02014800
v -0.44560900 -0.13774800 -0.25097600
v -0.43986201 -0.13150500 -0.04168400
v -0.43986201 -0.13150500 -0.04168400
v -0.19557901 0.09844900 -0.22146800
v -0.20305000 0.09220600 -0.01373600
v -0.20305000 0.09220600 -0.01373600
v -0.48450199 -0.08356400 -0.25549901
v -0.47704601 -0.08018500 -0.04596800
v -0.47704601 -0.08018500 -0.04596800
v -0.15782100 0.04426500 -0.21694501
v -0.16763601 0.04088600 -0.00945200
v -0.16763601 0.04088600 -0.00945200
v -0.48835599 -0.01965000 -0.25600401
v -0.48835599 -0.01965000 -0.25600401
v -0.48043501 -0.01965000 -0.04644700
v -0.48043501 -0.01965000 -0.04644700
v -0.48043501 -0.01965000 -0.04644700
v -0.15311401 -0.01965000 -0.21644001
v -0.15311401 -0.01965000 -0.21644001
v -0.16291600 -0.01965000 -0.00897400
v -0.16291600 -0.01965000 -0.00897400
v -0.16291600 -0.01965000 -0.00897400
v -0.48450199 0.04426500 -0.25549901
v -0.47704601 0.04088600 -0.04596800
v -0.47704601 0.04088600 -0.04596800
v -0.40294999 0.05860600 0.01677300
v -0.42885500 0.02270200 0.01377600
v -0.36705700 -0.00058500 0.04690700
v -0.36705700 -0.00058500 0.04690700
v -0.35550600 0.01557800 0.04825600
v -0.35550600 0.01557800 0.04825600
v -0.23727199 -0.09790500 0.03632600
v -0.21238700 -0.06200100 0.03932300
v -0.26961201 -0.03871500 0.05840700
v -0.26961201 -0.03871500 0.05840700
v -0.28092501 -0.05487700 0.05705800
v -0.28092501 -0.05487700 0.05705800
v -0.36442801 0.08259600 0.02125800
v -0.33827701 0.02637700 0.05027500
v -0.33827701 0.02637700 0.05027500
v -0.27476400 -0.12189500 0.03184000
v -0.29791400 -0.06567600 0.05503800
v -0.29791400 -0.06567600 0.05503800
v -0.31937999 0.09102100 0.02654900
v -0.31804600 0.03016900 0.05265700
v -0.31804600 0.03016900 0.05265700
v -0.31817701 -0.01965000 0.06340400
v -0.27476400 0.08259600 0.03184000
v -0.29791400 0.02637700 0.05503800
v -0.29791400 0.02637700 0.05503800
v -0.31937999 -0.13032000 0.02654900
v -0.31804600 -0.06946900 0.05265700
v -0.31804600 -0.06946900 0.05265700
v -0.40294999 -0.09790500 0.01677300
v -0.36442801 -0.12189500 0.02125800
v -0.33827701 -0.06567600 0.05027500
v -0.33827701 -0.06567600 0.05027500
v -0.35550600 -0.05487700 0.04825600
v -0.35550600 -0.05487700 0.04825600
v -0.23727199 0.05860600 0.03632600
v -0.28092501 0.01557800 0.05705800
v -0.28092501 0.01557800 0.05705800
v -0.42885500 -0.06200100 0.01377600
v -0.36705700 -0.03871500 0.04690700
v -0.36705700 -0.03871500 0.04690700
v -0.21238700 0.02270200 0.03932300
v -0.26961201 -0.00058500 0.05840700
v -0.26961201 -0.00058500 0.05840700
v -0.43130800 -0.01965000 0.01344100
v -0.36824399 -0.01965000 0.04675600
v -0.36824399 -0.01965000 0.04675600
v -0.20916700 -0.01965000 0.03965800
v -0.26824501 -0.01965000 0.05855700
v -0.26824501 -0.01965000 0.05855700
v -0.26194000 0.11426500 0.00477900
v -0.21296400 0.08284400 0.01065300
v -0.42995700 -0.12214300 -0.01495600
v -0.46400699 -0.07511900 -0.01888100
v -0.18049200 0.03582000 0.01457900
v -0.46712801 -0.01965000 -0.01932000
v -0.17618300 -0.01965000 0.01501700
v -0.46400800 0.03582000 -0.01888100
v -0.18049200 -0.07511900 0.01457900
v -0.42995700 0.08284400 -0.01495600
v -0.21296400 -0.12214300 0.01065300
v -0.37937599 0.11426500 -0.00908100
v -0.26194000 -0.15356401 0.00477900
v -0.32032201 0.12529799 -0.00215100
v -0.32032201 -0.16459800 -0.00215100
v -0.37937599 -0.15356401 -0.00908100
v -0.39372399 0.11254500 -0.80128199
v -0.42193499 0.06544000 -0.83800203
v -0.44374400 0.05240200 -0.75467402
v -0.40888599 0.10432600 -0.73402297
v -0.41955101 0.09985800 -0.67879498
v -0.45833400 0.04502700 -0.68965298
v -0.48203701 0.04678800 -0.48942500
v -0.44219899 0.10311100 -0.48472399
v -0.44390401 0.10078000 -0.36785001
v -0.48326999 0.04552700 -0.37246200
v -0.13756400 -0.08119600 -0.68356901
v -0.13872100 -0.02214800 -0.66364598
v -0.13872100 -0.02214800 -0.66364598
v -0.12824000 -0.02056400 -0.62175500
v -0.12824000 -0.02056400 -0.62175500
v -0.13055700 -0.08308700 -0.62958801
v -0.12775600 -0.08432700 -0.58681101
v -0.12342500 -0.01965000 -0.58599401
v -0.12342500 -0.01965000 -0.58599401
v -0.13801000 -0.01965000 -0.44899800
v -0.13801000 -0.01965000 -0.44899800
v -0.14246000 -0.08608700 -0.44936401
v -0.15014100 -0.08482600 -0.33315399
v -0.14556199 -0.01965000 -0.33271900
v -0.14556199 -0.01965000 -0.33271900
v -0.42077801 0.00639200 -0.85755497
v -0.42077801 0.00639200 -0.85755497
v -0.44606099 -0.01012000 -0.76176602
v -0.44606099 -0.01012000 -0.76176602
v -0.46266499 -0.01965000 -0.68960297
v -0.46266499 -0.01965000 -0.68960297
v -0.48648700 -0.01965000 -0.48995101
v -0.48648700 -0.01965000 -0.48995101
v -0.48742199 -0.01965000 -0.37297699
v -0.48742199 -0.01965000 -0.37297699
v -0.14708100 0.03762900 -0.64863002
v -0.13403900 0.04222600 -0.61741102
v -0.12775600 0.04502700 -0.58772099
v -0.14246000 0.04678800 -0.44970500
v -0.15014100 0.04552600 -0.33332500
v -0.41241699 -0.05338400 -0.87234402
v -0.44026101 -0.07291000 -0.76565999
v -0.45833400 -0.08432600 -0.68735403
v -0.48203701 -0.08608700 -0.48942500
v -0.48326999 -0.08482600 -0.37246200
v -0.18336099 0.09125900 -0.65614998
v -0.17184900 0.09653700 -0.62857801
v -0.16653900 0.09985700 -0.60032701
v -0.18229800 0.10311100 -0.45443201
v -0.18893801 0.10078000 -0.33794999
v -0.37613800 -0.10701500 -0.86495697
v -0.40245101 -0.12722100 -0.75475699
v -0.41955101 -0.13915700 -0.67506403
v -0.44219899 -0.14241099 -0.48472399
v -0.44390401 -0.14007901 -0.36785001
v -0.23431300 0.12979600 -0.67967600
v -0.22721100 0.13381501 -0.64957398
v -0.22457799 0.13649400 -0.61887199
v -0.24191400 0.14074500 -0.46125701
v -0.24713600 0.13769899 -0.34474701
v -0.32518399 -0.14555199 -0.84176302
v -0.34708700 -0.16450000 -0.73442501
v -0.36150801 -0.17579301 -0.65729302
v -0.38257200 -0.18004499 -0.47768700
v -0.38512301 -0.17699900 -0.36094701
v -0.29218400 0.14737400 -0.71551502
v -0.29169801 0.14838600 -0.67697901
v -0.29304200 0.14935900 -0.64028800
v -0.31223801 0.15396000 -0.46941099
v -0.31600600 0.15066400 -0.35281700
v -0.26731300 -0.16313000 -0.80620700
v -0.21133700 -0.15707199 -0.76362401
v -0.21880400 -0.16871500 -0.67817003
v -0.28259799 -0.17907000 -0.70758700
v -0.29304200 -0.18865800 -0.63653803
v -0.22457901 -0.17579301 -0.61577302
v -0.24191400 -0.18004499 -0.46108699
v -0.31223801 -0.19326000 -0.46938699
v -0.31600600 -0.18996300 -0.35280499
v -0.24713600 -0.17699900 -0.34466201
v -0.34816101 0.14131600 -0.75826699
v -0.35549501 0.13803101 -0.70673299
v -0.36150801 0.13649400 -0.66145098
v -0.38257200 0.14074500 -0.47768700
v -0.38512301 0.13769899 -0.36094701
v -0.16577500 -0.12830099 -0.72048700
v -0.16541401 -0.13501000 -0.65063602
v -0.16653900 -0.13915700 -0.59814000
v -0.18229800 -0.14241099 -0.45405099
v -0.18893801 -0.14007901 -0.33776000
v -0.18561800 -0.14124499 -0.39590499
v -0.14630000 -0.08545700 -0.39125901
v -0.38384700 0.13922200 -0.41931701
v -0.44305199 0.10194600 -0.42628700
v -0.24452500 -0.17852201 -0.40287501
v -0.31412199 0.15231200 -0.41111401
v -0.38384700 -0.17852201 -0.41931701
v -0.31412199 -0.19161101 -0.41109601
v -0.24452500 0.13922200 -0.40300199
v -0.44305199 -0.14124499 -0.42628700
v -0.18561800 0.10194600 -0.39619100
v -0.48265401 -0.08545600 -0.43094400
v -0.14630000 0.04615700 -0.39151499
v -0.48695400 -0.01965000 -0.43146399
v -0.48695400 -0.01965000 -0.43146399
v -0.14178599 -0.01965000 -0.39085901
v -0.14178599 -0.01965000 -0.39085901
v -0.48265401 0.04615700 -0.43094400
v -0.16613600 -0.12159100 -0.79033703
v -0.14457200 -0.07930500 -0.73755002
v -0.34082800 0.14460200 -0.80980200
v -0.37856200 0.12076400 -0.86854202
v -0.20387000 -0.14542900 -0.84907699
v -0.29266900 0.14636301 -0.75405103
v -0.30328199 -0.12660500 -0.94910097
v -0.25202900 -0.14719000 -0.90482801
v -0.24141601 0.12577800 -0.70977801
v -0.34982499 -0.08680800 -0.97515702
v -0.19487201 0.08598100 -0.68372202
v -0.38457400 -0.03385900 -0.97902900
v -0.16012400 0.03303200 -0.67984998
v -0.39549500 0.02290500 -0.95334297
v -0.39549500 0.02290500 -0.95334297
v -0.14920300 -0.02373200 -0.70553601
v -0.14920300 -0.02373200 -0.70553601
v -0.40012601 0.07847900 -0.92132902
v -0.18483241 -0.14792776 -0.23744352
v -0.14381976 -0.08907324 -0.23253065
v -0.15448080 -0.08540298 -0.00715232
v -0.15448080 -0.08540298 -0.00715232
v -0.19294737 -0.14114662 -0.01180559
v -0.19294737 -0.14114662 -0.01180559
v -0.39348546 0.14795347 -0.26214254
v -0.45641428 0.10862878 -0.26949501
v -0.45017195 0.10184766 -0.04216263
v -0.45017195 0.10184766 -0.04216263
v -0.39018559 0.13909335 -0.03519902
v -0.39018559 0.13909335 -0.03519902
v -0.24650668 -0.18725352 -0.24479708
v -0.25097635 -0.17839341 -0.01876920
v -0.25097635 -0.17839341 -0.01876920
v -0.31973267 0.16176338 -0.25346926
v -0.32017040 0.15217227 -0.02698411
v -0.32017040 0.15217227 -0.02698411
v -0.39348546 -0.18725352 -0.26214254
v -0.31973267 -0.20106235 -0.25346926
v -0.32017148 -0.19147231 -0.02698411
v -0.32017148 -0.19147231 -0.02698411
v -0.39018559 -0.17839232 -0.03519902
v -0.39018559 -0.17839232 -0.03519902
v -0.24650559 0.14795347 -0.24479708
v -0.25097635 0.13909335 -0.01877028
v -0.25097635 0.13909335 -0.01877028
v -0.45641428 -0.14792776 -0.26949501
v -0.45017195 -0.14114662 -0.04216263
v -0.45017195 -0.14114662 -0.04216263
v -0.18483241 0.10862878 -0.23744352
v -0.19294737 0.10184766 -0.01180559
v -0.19294737 0.10184766 -0.01180559
v -0.49865976 -0.08907324 -0.27440789
v -0.49056110 -0.08540298 -0.04681590
v -0.49056110 -0.08540298 -0.04681590
v -0.14381976 0.04977427 -0.23253065
v -0.15448080 0.04610401 -0.00715232
v -0.15448080 0.04610401 -0.00715232
v -0.50284594 -0.01965003 -0.27495643
v -0.50284594 -0.01965003 -0.27495643
v -0.49424222 -0.01965003 -0.04733619
v -0.49424222 -0.01965003 -0.04733619
v -0.49424222 -0.01965003 -0.04733619
v -0.13870704 -0.01965003 -0.23198213
v -0.13870704 -0.01965003 -0.23198213
v -0.14935394 -0.01965003 -0.00663312
v -0.14935394 -0.01965003 -0.00663312
v -0.14935394 -0.01965003 -0.00663312
v -0.49865976 0.04977427 -0.27440789
v -0.49056110 0.04610401 -0.04681590
v -0.49056110 0.04610401 -0.04681590
v -0.41007820 0.06535143 0.02133320
v -0.43821615 0.02635260 0.01807787
v -0.37109134 0.00105832 0.05406466
v -0.35854468 0.01861453 0.05552995
v -0.23011921 -0.10465041 0.04257162
v -0.20308919 -0.06565157 0.04582695
v -0.26524687 -0.04035838 0.06655593
v -0.27753499 -0.05791350 0.06509066
v -0.36823574 0.09140928 0.02620480
v -0.33983058 0.03034437 0.05772298
v -0.27084294 -0.13070826 0.03769894
v -0.29598838 -0.06964335 0.06289655
v -0.31930467 0.10056052 0.03195187
v -0.31785572 0.03446323 0.06031030
v -0.31799802 -0.01965003 0.07198367
v -0.27084294 0.09140928 0.03769894
v -0.29598838 0.03034437 0.06289655
v -0.31930467 -0.13985947 0.03195187
v -0.31785572 -0.07376329 0.06031030
v -0.41007820 -0.10465041 0.02133320
v -0.36823574 -0.13070826 0.02620480
v -0.33983058 -0.06964335 0.05772298
v -0.35854468 -0.05791350 0.05552995
v -0.23011921 0.06535143 0.04257162
v -0.27753499 0.01861453 0.06509066
v -0.43821615 -0.06565157 0.01807787
v -0.37109134 -0.04035838 0.05406466
v -0.20308919 0.02635260 0.04582695
v -0.26524687 0.00105832 0.06655593
v -0.44088060 -0.01965003 0.01771399
v -0.37238064 -0.01965003 0.05390066
v -0.19959165 -0.01965003 0.04619082
v -0.26376203 -0.01965003 0.06671888
v -0.25691354 0.12580808 0.00830535
v -0.20371594 0.09167866 0.01468568
v -0.43941313 -0.13097765 -0.01313075
v -0.47639814 -0.07990031 -0.01739408
v -0.16844493 0.04060133 0.01895009
v -0.47978818 -0.01965003 -0.01787091
v -0.16376451 -0.01965003 0.01942584
v -0.47639924 0.04060133 -0.01739408
v -0.16844493 -0.07990031 0.01895009
v -0.43941313 0.09167866 -0.01313075
v -0.20371594 -0.13097765 0.01468568
v -0.38447219 0.12580808 -0.00674934
v -0.25691354 -0.16510706 0.00830535
v -0.32032791 0.13779208 0.00077800
v -0.32032791 -0.17709215 0.00077800
v -0.38447219 -0.16510706 -0.00674934
v -0.41217712 0.17014179 -0.16173701
v -0.22550836 0.15912767 -0.15436435
v -0.41102341 0.16755766 -0.27989849
v -0.22419676 0.15618984 -0.28869811
v -0.34488186 0.16612907 -0.19351797
v -0.34488186 0.16612907 -0.19351797
v -0.34434465 0.16492575 -0.24854127
v -0.34434465 0.16492575 -0.24854127
v -0.28960225 0.16212448 -0.19377325
v -0.28960225 0.16212448 -0.19377325
v -0.28906503 0.16092116 -0.24879655
v -0.28906503 0.16092116 -0.24879655
v -0.43047473 0.16884972 -0.22081779
v -0.43047473 0.16884972 -0.22081779
v -0.26138064 0.16062608 -0.16161865
v -0.26138064 0.16062608 -0.16161865
v -0.20681630 0.15765876 -0.22153123
v -0.20681630 0.15765876 -0.22153123
v -0.37162521 0.16624171 -0.27466944
v -0.37162521 0.16624171 -0.27466944
v -0.36756703 0.16813543 -0.16670579
v -0.36756703 0.16813543 -0.16670579
v -0.31670484 0.16292344 -0.25831345
v -0.31670484 0.16292344 -0.25831345
v -0.34461328 0.16552740 -0.22102956
v -0.34461328 0.16552740 -0.22102956
v -0.34461328 0.16552740 -0.22102956
v -0.34461328 0.16552740 -0.22102956
v -0.31724206 0.16412678 -0.18608904
v -0.31724206 0.16412678 -0.18608904
v -0.26782951 0.15855551 -0.27788439
v -0.26782951 0.15855551 -0.27788439
v -0.28933367 0.16152284 -0.22128485
v -0.28933367 0.16152284 -0.22128485
v -0.28933367 0.16152284 -0.22128485
v -0.28933367 0.16152284 -0.22128485
v -0.31697348 0.16352512 -0.22115727
v -0.31697348 0.16352512 -0.22115727
v -0.31697348 0.16352512 -0.22115727
v -0.31697348 0.16352512 -0.22115727
v -0.37810674 0.16718857 -0.22092374
v -0.37810674 0.16718857 -0.22092374
v -0.37810674 0.16718857 -0.22092374
v -0.37810674 0.16718857 -0.22092374
v -0.25709310 0.15959078 -0.22140810
v -0.25709310 0.15959078 -0.22140810
v -0.25709310 0.15959078 -0.22140810
v -0.25709310 0.15959078 -0.22140810
vn 0.68771207 -0.72423518 0.05035432
vn 0.93987250 -0.33674547 0.05694186
vn 0.90215701 -0.33160713 0.27595192
vn 0.90215701 -0.33160713 0.27595192
vn 0.65399188 -0.70721811 0.26858392
vn 0.65399188 -0.70721811 0.26858392
vn -0.36750901 0.92957580 0.02873959
vn -0.68624622 0.72702944 0.02223472
vn -0.67610139 0.69480735 0.24521375
vn -0.67610139 0.69480735 0.24521375
vn -0.37464738 0.89385831 0.24628606
vn -0.37464738 0.89385831 0.24628606
vn 0.36206105 -0.93118370 0.04252981
vn 0.33273664 -0.90685654 0.25864542
vn 0.33273664 -0.90685654 0.25864542
vn -0.00515391 0.99936169 0.03535156
vn -0.02624803 0.96773362 0.25060472
vn -0.02624803 0.96773362 0.25060472
vn -0.36751044 -0.92957526 0.02874042
vn -0.00516146 -0.99936152 0.03535488
vn -0.02625671 -0.96773243 0.25060862
vn -0.02625671 -0.96773243 0.25060862
vn -0.37465239 -0.89385581 0.24628720
vn -0.37465239 -0.89385581 0.24628720
vn 0.36207849 0.93117768 0.04251249
vn 0.33273575 0.90686011 0.25863451
vn 0.33273575 0.90686011 0.25863451
vn -0.68624967 -0.72702622 0.02223514
vn -0.67610317 -0.69480431 0.24521743
vn -0.67610317 -0.69480431 0.24521743
vn 0.68771988 0.72423041 0.05031627
vn 0.65398914 0.70722216 0.26857978
vn 0.65398914 0.70722216 0.26857978
vn -0.94269794 -0.33323097 0.01666728
vn -0.91675419 -0.31771773 0.24210979
vn -0.91675419 -0.31771773 0.24210979
vn 0.93986762 0.33676502 0.05690518
vn 0.90215725 0.33160654 0.27595192
vn 0.90215725 0.33160654 0.27595192
vn -0.99990225 -0.00000047 0.01398243
vn -0.99990225 -0.00000047 0.01398243
vn -0.97039592 -0.00000228 0.24151973
vn -0.97039592 -0.00000228 0.24151973
vn -0.97039592 -0.00000228 0.24151973
vn 0.99838710 0.00002112 0.05677386
vn 0.99838710 0.00002112 0.05677386
vn 0.96258390 -0.00000062 0.27098405
vn 0.96258390 -0.00000062 0.27098405
vn 0.96258390 -0.00000062 0.27098405
vn -0.94269812 0.33323056 0.01666731
vn -0.91675568 0.31771830 0.24210389
vn -0.91675568 0.31771830 0.24210389
vn -0.43214431 0.36584324 0.82426333
vn -0.55106080 0.16256844 0.81847644
vn -0.37845913 0.09610408 0.92061543
vn -0.37845913 0.09610408 0.92061543
vn -0.30738914 0.21612945 0.92671466
vn -0.30738914 0.21612945 0.92671466
vn 0.28042316 -0.39660928 0.87410748
vn 0.42625597 -0.18439510 0.88560957
vn 0.18680267 -0.10468043 0.97680444
vn 0.18680267 -0.10468043 0.97680444
vn 0.10416163 -0.22815621 0.96803677
vn 0.10416163 -0.22815621 0.96803677
vn -0.28036469 0.48203838 0.83008122
vn -0.21766916 0.28397763 0.93379706
vn -0.21766916 0.28397763 0.93379706
vn 0.10139320 -0.50476009 0.85728455
vn 0.00357434 -0.29284495 0.95615327
vn 0.00357434 -0.29284495 0.95615327
vn -0.09538791 0.53195113 0.84138525
vn -0.10938922 0.31134960 0.94397861
vn -0.10938922 0.31134960 0.94397861
vn -0.11205880 -0.00000141 0.99370158
vn 0.10139063 0.50476170 0.85728389
vn 0.00357013 0.29284516 0.95615321
vn 0.00357013 0.29284516 0.95615321
vn -0.09538808 -0.53194809 0.84138727
vn -0.10938887 -0.31135336 0.94397742
vn -0.10938887 -0.31135336 0.94397742
vn -0.43214592 -0.36584371 0.82426238
vn -0.28036726 -0.48203620 0.83008152
vn -0.21767338 -0.28397739 0.93379617
vn -0.21767338 -0.28397739 0.93379617
vn -0.30738840 -0.21613178 0.92671430
vn -0.30738840 -0.21613178 0.92671430
vn 0.28042340 0.39660850 0.87410790
vn 0.10416253 0.22815394 0.96803725
vn 0.10416253 0.22815394 0.96803725
vn -0.55106378 -0.16257024 0.81847405
vn -0.37845898 -0.09610724 0.92061514
vn -0.37845898 -0.09610724 0.92061514
vn 0.42625609 0.18439433 0.88560975
vn 0.18680276 0.10467692 0.97680473
vn 0.18680276 0.10467692 0.97680473
vn -0.57869852 -0.00000214 0.81554168
vn -0.39537698 -0.00000009 0.91851896
vn -0.39537698 -0.00000009 0.91851896
vn 0.46418712 -0.00000040 0.88573724
vn 0.20646618 -0.00000013 0.97845381
vn 0.20646618 -0.00000013 0.97845381
vn 0.22460389 0.74483383 0.62831181
vn 0.49125612 0.58497739 0.64534414
vn -0.57833105 -0.54986763 0.60264331
vn -0.76192629 -0.24725145 0.59861106
vn 0.70281327 0.27446935 0.65629268
vn -0.80287057 -0.00000406 0.59615338
vn 0.75784117 -0.00000058 0.65243912
vn -0.76193011 0.24725030 0.59860659
vn 0.70281315 -0.27446991 0.65629268
vn -0.57832968 0.54987031 0.60264212
vn 0.49125567 -0.58497280 0.64534855
vn -0.34591866 0.71740890 0.60470235
vn 0.22460501 -0.74482411 0.62832290
vn -0.06846855 0.78681415 0.61338049
vn -0.06847131 -0.78680789 0.61338818
vn -0.34592381 -0.71740478 0.60470414
vn -0.67959607 0.73042089 -0.06807869
vn -0.92457283 0.33126664 -0.18822230
vn -0.92595035 0.33230338 -0.17941700
vn -0.67986465 0.72985590 -0.07137623
vn -0.68144053 0.72711617 -0.08331238
vn -0.93426144 0.32610154 -0.14426835
vn -0.94004607 0.33564502 -0.06046453
vn -0.68503290 0.72718924 -0.04388382
vn -0.68627638 0.72732812 0.00432220
vn -0.94227338 0.33480275 -0.00530735
vn 0.96971267 -0.20169850 -0.13774996
vn 0.95777357 0.14454073 -0.24855179
vn 0.95777357 0.14454073 -0.24855179
vn 0.97990674 0.05588697 -0.19146647
vn 0.97990674 0.05588697 -0.19146647
vn 0.95416367 -0.28009701 -0.10543923
vn 0.94593465 -0.32407597 0.01350471
vn 0.99986696 0.00979119 -0.01304810
vn 0.99986696 0.00979119 -0.01304810
vn 0.99632633 0.00032392 0.08563815
vn 0.99632633 0.00032392 0.08563815
vn 0.93701476 -0.34008139 0.07967396
vn 0.93963116 -0.33601075 0.06473116
vn 0.99783677 0.00007572 0.06574126
vn 0.99783677 0.00007572 0.06574126
vn -0.96692836 -0.00367126 -0.25502175
vn -0.96692836 -0.00367126 -0.25502175
vn -0.97076249 -0.00558386 -0.23997711
vn -0.97076249 -0.00558386 -0.23997711
vn -0.98500919 -0.00614343 -0.17239292
vn -0.98500919 -0.00614343 -0.17239292
vn -0.99794972 -0.00052091 -0.06400152
vn -0.99794972 -0.00052091 -0.06400152
vn -0.99996024 -0.00000048 -0.00892122
vn -0.99996024 -0.00000048 -0.00892122
vn 0.86636871 0.34029058 -0.36552367
vn 0.90790504 0.31668502 -0.27462554
vn 0.94310224 0.32944995 -0.04495666
vn 0.93686908 0.34054026 0.07942677
vn 0.93961066 0.33608252 0.06465690
vn -0.89921951 -0.32704914 -0.29059115
vn -0.89877450 -0.34207156 -0.27421084
vn -0.91719401 -0.35133618 -0.18793130
vn -0.93974376 -0.33638921 -0.06102458
vn -0.94227320 -0.33480319 -0.00530729
vn 0.72383171 0.58435845 -0.36686912
vn 0.71660030 0.63996202 -0.27736747
vn 0.70698130 0.70398968 -0.06764675
vn 0.67986631 0.73123300 0.05549929
vn 0.68642443 0.72520566 0.05383629
vn -0.65057415 -0.70475519 -0.28297257
vn -0.63574719 -0.72556514 -0.26340243
vn -0.65572762 -0.73583591 -0.16901754
vn -0.68474996 -0.72740763 -0.04467321
vn -0.68628085 -0.72732389 0.00432215
vn 0.51469088 0.82837182 -0.22111870
vn 0.45049959 0.87585992 -0.17297287
vn 0.39594361 0.91674209 -0.05303399
vn 0.35803476 0.93328589 0.02808498
vn 0.36274713 0.93099034 0.04088375
vn -0.34569693 -0.90937227 -0.23137793
vn -0.32265356 -0.92246354 -0.21202810
vn -0.33759329 -0.93245351 -0.12869079
vn -0.36461607 -0.93085313 -0.02382485
vn -0.36594063 -0.93050092 0.01599101
vn 0.12357316 0.99116522 -0.04817895
vn 0.06035219 0.99718064 -0.04459295
vn 0.02152766 0.99923390 -0.03268364
vn -0.00356636 0.99999297 0.00117062
vn -0.00286158 0.99959922 0.02816490
vn 0.01288968 -0.98690146 -0.16080880
vn 0.40061483 -0.91108441 -0.09712367
vn 0.39019200 -0.91676265 -0.08542040
vn 0.02868549 -0.98904884 -0.14477429
vn 0.01669868 -0.99682218 -0.07788961
vn 0.37303829 -0.92738420 -0.02830434
vn 0.35789046 -0.93333733 0.02821369
vn -0.00369953 -0.99999285 0.00086698
vn -0.00287949 -0.99959898 0.02817211
vn 0.36269850 -0.93100786 0.04091796
vn -0.32449982 0.94588584 0.00006671
vn -0.34721720 0.93770880 -0.01194413
vn -0.35543126 0.93374234 -0.04235540
vn -0.36464053 0.93086052 -0.02315474
vn -0.36593992 0.93050110 0.01599032
vn 0.75531673 -0.65053368 -0.07938994
vn 0.71870971 -0.69228888 -0.06474914
vn 0.69359827 -0.72033995 0.00563987
vn 0.67991602 -0.73115933 0.05585929
vn 0.68640232 -0.72522098 0.05391163
vn 0.68511343 -0.72644269 0.05385848
vn 0.93961900 -0.33604279 0.06474142
vn -0.36667913 0.93021041 0.01596791
vn -0.68756682 0.72610855 0.00427696
vn 0.36196375 -0.93129498 0.04088884
vn -0.00304602 0.99959886 0.02815701
vn -0.36668167 -0.93020940 0.01597238
vn -0.00307615 -0.99959856 0.02816779
vn 0.36204278 0.93126589 0.04085261
vn -0.68757153 -0.72610408 0.00427994
vn 0.68514663 0.72641695 0.05378291
vn -0.94228864 -0.33475953 -0.00532446
vn 0.93957895 0.33616906 0.06466720
vn -0.99996036 -0.00000049 -0.00891477
vn -0.99996036 -0.00000049 -0.00891477
vn 0.99783748 0.00012787 0.06572999
vn 0.99783748 0.00012787 0.06572999
vn -0.94228834 0.33476019 -0.00532600
vn 0.68528080 -0.72456706 -0.07343549
vn 0.95923448 -0.25749847 -0.11646423
vn -0.41356587 0.91044873 -0.00680812
vn -0.74075526 0.66565692 -0.09045769
vn 0.29702261 -0.94842666 -0.11074600
vn 0.04082511 0.99902433 -0.01684617
vn -0.41187340 -0.87826097 -0.24293615
vn -0.08227174 -0.98049587 -0.17849201
vn 0.50061756 0.84623712 -0.18238658
vn -0.68013096 -0.67501885 -0.28595704
vn 0.72899622 0.58178478 -0.36068141
vn -0.89465404 -0.33886170 -0.29114789
vn 0.85890555 0.36379007 -0.36046949
vn -0.96626288 -0.01667300 -0.25701770
vn -0.96626288 -0.01667300 -0.25701770
vn 0.95720375 0.17785722 -0.22831543
vn 0.95720375 0.17785722 -0.22831543
vn -0.94754142 0.24179746 -0.20904411
vn 0.68294728 -0.72898233 0.04656075
vn 0.93847620 -0.34181294 0.04925784
vn 0.90215707 -0.33160713 0.27595177
vn 0.90215707 -0.33160713 0.27595177
vn 0.65399188 -0.70721805 0.26858377
vn 0.65399188 -0.70721805 0.26858377
vn -0.37821293 0.92479312 0.04138657
vn -0.69227087 0.72050858 0.04035312
vn -0.67610133 0.69480735 0.24521399
vn -0.67610133 0.69480735 0.24521399
vn -0.37464726 0.89385831 0.24628602
vn -0.37464726 0.89385831 0.24628602
vn 0.35223094 -0.93488783 0.04379888
vn 0.33273673 -0.90685660 0.25864539
vn 0.33273673 -0.90685660 0.25864539
vn -0.01760137 0.99895155 0.04226076
vn -0.02624810 0.96773362 0.25060490
vn -0.02624810 0.96773362 0.25060490
vn -0.37821651 -0.92479151 0.04138744
vn -0.01760503 -0.99895161 0.04225934
vn -0.02625671 -0.96773249 0.25060859
vn -0.02625671 -0.96773249 0.25060859
vn -0.37465248 -0.89385593 0.24628700
vn -0.37465248 -0.89385593 0.24628700
vn 0.35223103 0.93488771 0.04380076
vn 0.33273569 0.90685999 0.25863466
vn 0.33273569 0.90685999 0.25863466
vn -0.69227308 -0.72050655 0.04035405
vn -0.67610323 -0.69480419 0.24521731
vn -0.67610323 -0.69480419 0.24521731
vn 0.68294364 0.72898561 0.04656146
vn 0.65398914 0.70722216 0.26857984
vn 0.65398914 0.70722216 0.26857984
vn -0.94419557 -0.32700083 0.03956297
vn -0.91675419 -0.31771767 0.24210995
vn -0.91675419 -0.31771767 0.24210995
vn 0.93847644 0.34181234 0.04925782
vn 0.90215725 0.33160657 0.27595189
vn 0.90215725 0.33160657 0.27595189
vn -0.99931043 -0.00000046 0.03713268
vn -0.99931043 -0.00000046 0.03713268
vn -0.97039592 -0.00000229 0.24152008
vn -0.97039592 -0.00000229 0.24152008
vn -0.97039592 -0.00000229 0.24152008
vn 0.99885511 -0.00000061 0.04783964
vn 0.99885511 -0.00000061 0.04783964
vn 0.96258390 -0.00000062 0.27098411
vn 0.96258390 -0.00000062 0.27098411
vn 0.96258390 -0.00000062 0.27098411
vn -0.94419575 0.32700032 0.03956291
vn -0.91675556 0.31771821 0.24210437
vn -0.91675556 0.31771821 0.24210437
vn -0.43214440 0.36584330 0.82426322
vn -0.55106074 0.16256849 0.81847638
vn -0.37845901 0.09610409 0.92061549
vn -0.30738911 0.21612941 0.92671472
vn 0.28042313 -0.39660928 0.87410760
vn 0.42625591 -0.18439506 0.88560957
vn 0.18680258 -0.10468052 0.97680438
vn 0.10416170 -0.22815602 0.96803677
vn -0.28036472 0.48203844 0.83008111
vn -0.21766908 0.28397772 0.93379706
vn 0.10139319 -0.50475997 0.85728455
vn 0.00357433 -0.29284480 0.95615333
vn -0.09538791 0.53195113 0.84138536
vn -0.10938933 0.31134960 0.94397849
vn -0.11205886 -0.00000141 0.99370164
vn 0.10139062 0.50476158 0.85728389
vn 0.00357009 0.29284504 0.95615327
vn -0.09538803 -0.53194785 0.84138739
vn -0.10938904 -0.31135333 0.94397730
vn -0.43214598 -0.36584374 0.82426220
vn -0.28036723 -0.48203614 0.83008152
vn -0.21767308 -0.28397727 0.93379623
vn -0.30738819 -0.21613163 0.92671442
vn 0.28042328 0.39660847 0.87410790
vn 0.10416262 0.22815372 0.96803725
vn -0.55106407 -0.16257030 0.81847376
vn -0.37845880 -0.09610727 0.92061520
vn 0.42625597 0.18439426 0.88560975
vn 0.18680264 0.10467703 0.97680479
vn -0.57869858 -0.00000215 0.81554163
vn -0.39537671 -0.00000009 0.91851914
vn 0.46418715 -0.00000040 0.88573724
vn 0.20646608 -0.00000013 0.97845381
vn 0.22460374 0.74483359 0.62831217
vn 0.49125597 0.58497727 0.64534432
vn -0.57833111 -0.54986775 0.60264313
vn -0.76192641 -0.24725141 0.59861094
vn 0.70281327 0.27446932 0.65629268
vn -0.80287051 -0.00000408 0.59615344
vn 0.75784117 -0.00000057 0.65243906
vn -0.76192981 0.24725027 0.59860706
vn 0.70281315 -0.27446994 0.65629262
vn -0.57832956 0.54987037 0.60264206
vn 0.49125570 -0.58497292 0.64534837
vn -0.34591866 0.71740890 0.60470229
vn 0.22460495 -0.74482411 0.62832296
vn -0.06846852 0.78681391 0.61338073
vn -0.06847128 -0.78680789 0.61338830
vn -0.34592387 -0.71740496 0.60470396
vn 0.03626138 0.99892241 -0.02896937
vn 0.04080382 0.99909121 -0.01232148
vn 0.03310382 0.99937719 -0.01222268
vn 0.04222908 0.99866265 -0.02982927
vn 0.05292070 0.99827147 -0.02556497
vn 0.07467385 0.99703592 -0.01853076
vn 0.05509416 0.99837667 -0.01444920
vn 0.06903680 0.99745202 -0.01798682
vn 0.06473389 0.99778479 -0.01533077
vn 0.06962852 0.99740005 -0.01858083
vn 0.06511291 0.99749732 -0.02755679
vn 0.07526993 0.99700207 -0.01792717
vn 0.03310382 0.99937719 -0.01222268
vn 0.03626138 0.99892241 -0.02896937
vn 0.04080382 0.99909121 -0.01232148
vn 0.06473389 0.99778479 -0.01533077
vn 0.04080382 0.99909121 -0.01232148
vn 0.04222908 0.99866265 -0.02982927
vn 0.03310382 0.99937719 -0.01222268
vn 0.05509416 0.99837667 -0.01444920
vn 0.03626138 0.99892241 -0.02896937
vn 0.05292070 0.99827147 -0.02556497
vn 0.06903680 0.99745202 -0.01798682
vn 0.07526993 0.99700207 -0.01792717
vn 0.05292070 0.99827147 -0.02556497
vn 0.05509416 0.99837667 -0.01444920
vn 0.06903680 0.99745202 -0.01798682
vn 0.07467385 0.99703592 -0.01853076
vn 0.06962852 0.99740005 -0.01858083
vn 0.07467385 0.99703592 -0.01853076
vn 0.04222908 0.99866265 -0.02982927
vn 0.06511291 0.99749732 -0.02755679
vn 0.06473389 0.99778479 -0.01533077
vn 0.06511291 0.99749732 -0.02755679
vn 0.06962852 0.99740005 -0.01858083
vn 0.07526993 0.99700207 -0.01792717
vn 0.06903680 0.99745202 -0.01798682
vn 0.06962852 0.99740005 -0.01858083
vn 0.07467385 0.99703592 -0.01853076
vn 0.07526993 0.99700207 -0.01792717
vn 0.03310382 0.99937719 -0.01222268
vn 0.03626138 0.99892241 -0.02896937
vn 0.05292070 0.99827147 -0.02556497
vn 0.05509416 0.99837667 -0.01444920
vn 0.04080382 0.99909121 -0.01232148
vn 0.04222908 0.99866265 -0.02982927
vn 0.06473389 0.99778479 -0.01533077
vn 0.06511291 0.99749732 -0.02755679
vt 0.85556376 0.44909483
vt 0.85556757 0.44921571
vt 0.85519087 0.44828665
vt 0.85594898 0.44922185
vt 0.85530794 0.44822890
vt 0.85594445 0.44910711
vt 0.85329831 0.44896561
vt 0.85330153 0.44908881
vt 0.85492438 0.44767338
vt 0.85292286 0.44905788
vt 0.85483474 0.44777286
vt 0.85292071 0.44893837
vt 0.85555798 0.44897199
vt 0.85539496 0.44812953
vt 0.85593808 0.44899005
vt 0.85329252 0.44884098
vt 0.85478759 0.44790000
vt 0.85291541 0.44881785
vt 0.85554552 0.44872189
vt 0.85555136 0.44884717
vt 0.85593134 0.44887012
vt 0.85543919 0.44800270
vt 0.85592574 0.44874859
vt 0.85543352 0.44786721
vt 0.85328591 0.44871694
vt 0.85479057 0.44803435
vt 0.85290873 0.44869894
vt 0.85554194 0.44859803
vt 0.85592330 0.44862807
vt 0.85537875 0.44774503
vt 0.85328001 0.44859493
vt 0.85484278 0.44815558
vt 0.85290235 0.44858283
vt 0.85554236 0.44847673
vt 0.85528523 0.44765610
vt 0.85592544 0.44851071
vt 0.85327607 0.44847506
vt 0.85493648 0.44824654
vt 0.85289800 0.44846910
vt 0.85329175 0.44932574
vt 0.85555035 0.44835931
vt 0.85290951 0.44928515
vt 0.85516524 0.44762224
vt 0.85593599 0.44839883
vt 0.85556757 0.44933349
vt 0.85327601 0.44835848
vt 0.85594940 0.44933349
vt 0.85506052 0.44828665
vt 0.85289752 0.44835848
vt 0.85330045 0.44920933
vt 0.85504073 0.44761759
vt 0.85292035 0.44917428
vt 0.85499895 0.44779950
vt 0.85506785 0.44776404
vt 0.85509151 0.44788647
vt 0.42491099 0.73161602
vt 0.85506201 0.44790155
vt 0.42896101 0.72954601
vt 0.85522199 0.44812709
vt 0.85515404 0.44815934
vt 0.85512835 0.44805604
vt 0.41984800 0.70834303
vt 0.85515738 0.44804168
vt 0.41587001 0.71031600
vt 0.85494721 0.44785994
vt 0.85504007 0.44792736
vt 0.43197900 0.72600996
vt 0.85527384 0.44806987
vt 0.85517949 0.44801706
vt 0.41283101 0.71369302
vt 0.85492104 0.44793570
vt 0.85502887 0.44795966
vt 0.43350601 0.72157001
vt 0.42239401 0.71962500
vt 0.85492432 0.44801480
vt 0.85503030 0.44799352
vt 0.43331900 0.71692199
vt 0.85530126 0.44799566
vt 0.85519117 0.44798523
vt 0.41122299 0.71805900
vt 0.85526901 0.44784206
vt 0.85529959 0.44791543
vt 0.85519052 0.44795108
vt 0.41131100 0.72275299
vt 0.85517758 0.44791979
vt 0.41309500 0.72704500
vt 0.85495603 0.44808513
vt 0.85504371 0.44802374
vt 0.43146601 0.71277404
vt 0.85521430 0.44778711
vt 0.85515416 0.44789636
vt 0.41631201 0.73026097
vt 0.85501069 0.44813675
vt 0.85506690 0.44804633
vt 0.42828700 0.70967299
vt 0.85514188 0.44777048
vt 0.85512316 0.44788945
vt 0.42056799 0.73121399
vt 0.85508138 0.44815457
vt 0.85509729 0.44805336
vt 0.42411500 0.70870900
vt 0.85484666 0.44802672
vt 0.85489076 0.44812644
vt 0.85533392 0.44778425
vt 0.85525697 0.44770843
vt 0.85496819 0.44819969
vt 0.85515571 0.44768280
vt 0.85506958 0.44822931
vt 0.85505152 0.44767606
vt 0.85517514 0.44823229
vt 0.85495490 0.44772452
vt 0.85527134 0.44818640
vt 0.85488111 0.44780856
vt 0.85534400 0.44810510
vt 0.85484290 0.44791508
vt 0.85538185 0.44800001
vt 0.85537833 0.44788694
vt 0.85429329 0.44906336
vt 0.85435671 0.44916707
vt 0.85420036 0.44920230
vt 0.85416752 0.44908625
vt 0.85406542 0.44910032
vt 0.85408020 0.44922316
vt 0.85371876 0.44923037
vt 0.85371637 0.44910783
vt 0.85350895 0.44909829
vt 0.85350960 0.44921988
vt 0.85472119 0.44917661
vt 0.85409701 0.44839680
vt 0.85473907 0.44929129
vt 0.85401773 0.44838256
vt 0.85481811 0.44930780
vt 0.85481942 0.44919276
vt 0.85489517 0.44920129
vt 0.85395098 0.44837290
vt 0.85488468 0.44931763
vt 0.85513872 0.44933033
vt 0.85370028 0.44836116
vt 0.85514235 0.44920772
vt 0.85535496 0.44921172
vt 0.85535312 0.44933188
vt 0.85348815 0.44835979
vt 0.85442734 0.44838685
vt 0.85439926 0.44927329
vt 0.85461330 0.44837207
vt 0.85421920 0.44931644
vt 0.85475278 0.44836438
vt 0.85408390 0.44934106
vt 0.85512024 0.44833857
vt 0.85371757 0.44935066
vt 0.85533530 0.44834894
vt 0.85350466 0.44933820
vt 0.85405147 0.44850135
vt 0.85399061 0.44849259
vt 0.85393822 0.44848782
vt 0.85369748 0.44848126
vt 0.85348684 0.44847816
vt 0.85442251 0.44850165
vt 0.85462749 0.44848639
vt 0.85477155 0.44848007
vt 0.85512221 0.44845963
vt 0.85533226 0.44846821
vt 0.85405397 0.44861817
vt 0.85400075 0.44860750
vt 0.85395139 0.44860208
vt 0.85369790 0.44860524
vt 0.85348892 0.44860011
vt 0.85444355 0.44861889
vt 0.85465258 0.44860399
vt 0.85479599 0.44859660
vt 0.85512692 0.44858187
vt 0.85533446 0.44858992
vt 0.85408771 0.44873661
vt 0.85403222 0.44872540
vt 0.85397798 0.44872075
vt 0.85370111 0.44873059
vt 0.85349351 0.44872379
vt 0.85448360 0.44873542
vt 0.85468483 0.44872314
vt 0.85482174 0.44871563
vt 0.85513228 0.44870543
vt 0.85533887 0.44871366
vt 0.85414809 0.44885081
vt 0.85407722 0.44884610
vt 0.85401070 0.44884545
vt 0.85370630 0.44885713
vt 0.85349947 0.44884902
vt 0.85453910 0.44884962
vt 0.85460347 0.44896007
vt 0.85476029 0.44896168
vt 0.85472196 0.44884294
vt 0.85484731 0.44883746
vt 0.85487020 0.44896048
vt 0.85514110 0.44895703
vt 0.85513735 0.44883078
vt 0.85534436 0.44883901
vt 0.85534954 0.44896448
vt 0.85422093 0.44895899
vt 0.85412502 0.44896740
vt 0.85404170 0.44897354
vt 0.85371196 0.44898331
vt 0.85350513 0.44897449
vt 0.85466796 0.44906771
vt 0.85479504 0.44907808
vt 0.85488743 0.44908214
vt 0.85514295 0.44908279
vt 0.85535336 0.44908881
vt 0.85524821 0.44908583
vt 0.85524863 0.44920975
vt 0.85360861 0.44897890
vt 0.85361260 0.44910306
vt 0.85524535 0.44896078
vt 0.85360283 0.44885308
vt 0.85523558 0.44870955
vt 0.85524088 0.44883490
vt 0.85359734 0.44872719
vt 0.85523069 0.44858593
vt 0.85359347 0.44860268
vt 0.85522729 0.44846392
vt 0.85359210 0.44847971
vt 0.85522783 0.44834375
vt 0.85361111 0.44934446
vt 0.85524595 0.44933110
vt 0.85359424 0.44836044
vt 0.85361421 0.44922513
vt 0.85454082 0.44905728
vt 0.85462296 0.44916040
vt 0.85431677 0.44895053
vt 0.85441905 0.44904047
vt 0.85444665 0.44895846
vt 0.85421896 0.44885552
vt 0.85428244 0.44874775
vt 0.85435617 0.44885635
vt 0.85414320 0.44874781
vt 0.85423452 0.44863373
vt 0.85410714 0.44862884
vt 0.85421747 0.44851691
vt 0.85411227 0.44851011
vt 0.85424137 0.44840169
vt 0.85457927 0.44923013
vt 0.85417622 0.44841105
vt 0.85465997 0.44927484
vt 0.85451299 0.44913191
vt 0.81149203 0.19678581
vt 0.81143004 0.19480503
vt 0.80518013 0.19470507
vt 0.81760263 0.21002960
vt 0.80525374 0.19658458
vt 0.81568354 0.21097624
vt 0.84861571 0.19890356
vt 0.84856462 0.19688475
vt 0.85476762 0.19739175
vt 0.82197046 0.22007906
vt 0.85480368 0.19935024
vt 0.82343948 0.21844923
vt 0.81158715 0.19879973
vt 0.80535811 0.19850361
vt 0.81425828 0.21260405
vt 0.84870994 0.20094609
vt 0.85489082 0.20132482
vt 0.82421142 0.21636599
vt 0.81179160 0.20289767
vt 0.81169540 0.20084441
vt 0.81353366 0.21468335
vt 0.80546957 0.20046884
vt 0.81362766 0.21690291
vt 0.80555969 0.20245993
vt 0.84881914 0.20297849
vt 0.85500032 0.20327365
vt 0.82416141 0.21416473
vt 0.81184906 0.20492715
vt 0.81452417 0.21890557
vt 0.80560017 0.20443475
vt 0.84891623 0.20497787
vt 0.85510337 0.20517665
vt 0.82330579 0.21217752
vt 0.81184226 0.20691454
vt 0.80556422 0.20635831
vt 0.81605726 0.22036260
vt 0.84897989 0.20694232
vt 0.85517627 0.20703989
vt 0.82177097 0.21068662
vt 0.81171232 0.20883870
vt 0.84872323 0.19300240
vt 0.80539137 0.20819151
vt 0.81802273 0.22091758
vt 0.85498673 0.19366777
vt 0.84898144 0.20885324
vt 0.81142992 0.19287574
vt 0.85518396 0.20885324
vt 0.81973857 0.21002960
vt 0.80517244 0.19287574
vt 0.84858179 0.19491005
vt 0.85480887 0.19548452
vt 0.82006359 0.22099394
vt 0.82074857 0.21801245
vt 0.81961942 0.21859425
vt 0.81923097 0.21658719
vt 0.81971461 0.21634007
vt 0.81709278 0.21264488
vt 0.81820649 0.21211606
vt 0.81862664 0.21380907
vt 0.81815195 0.21404457
vt 0.82159543 0.21702254
vt 0.82007486 0.21591794
vt 0.81624353 0.21358216
vt 0.81778902 0.21444774
vt 0.82202488 0.21578062
vt 0.82025707 0.21538800
vt 0.81893069 0.21515584
vt 0.82197165 0.21448481
vt 0.82023478 0.21483314
vt 0.81579441 0.21479869
vt 0.81759709 0.21496892
vt 0.81632227 0.21731484
vt 0.81582093 0.21611243
vt 0.81760764 0.21552920
vt 0.81782055 0.21604156
vt 0.82145184 0.21333182
vt 0.82001358 0.21433800
vt 0.81721783 0.21821582
vt 0.81820470 0.21642542
vt 0.82055473 0.21248615
vt 0.81963402 0.21396786
vt 0.81840563 0.21848822
vt 0.81871265 0.21653914
vt 0.81939739 0.21219438
vt 0.81913602 0.21385276
vt 0.82324350 0.21428967
vt 0.82252032 0.21265554
vt 0.81525809 0.21826231
vt 0.81651938 0.21950519
vt 0.82125139 0.21145463
vt 0.81817913 0.21992499
vt 0.81959039 0.21096981
vt 0.81988746 0.22003591
vt 0.81786072 0.21092021
vt 0.82146978 0.21924126
vt 0.81628406 0.21167272
vt 0.82267976 0.21786392
vt 0.81509322 0.21300524
vt 0.82330400 0.21611881
vt 0.81447321 0.21472704
vt 0.81453043 0.21657968
vt 0.19573997 0.27451974
vt 0.21668948 0.27451974
vt 0.19573997 0.25357026
vt 0.21668948 0.25357026
vt 0.20195933 0.27451974
vt 0.20195933 0.27451974
vt 0.20195933 0.25357026
vt 0.20195933 0.25357026
vt 0.20945594 0.27451974
vt 0.20945594 0.27451974
vt 0.20945594 0.25357026
vt 0.20945594 0.25357026
vt 0.19573997 0.26404500
vt 0.19573997 0.26404500
vt 0.21307273 0.27451974
vt 0.21307273 0.27451974
vt 0.21668948 0.26404500
vt 0.21668948 0.26404500
vt 0.19884963 0.25357026
vt 0.19884963 0.25357026
vt 0.19884963 0.27451974
vt 0.19884963 0.27451974
vt 0.20570765 0.25357026
vt 0.20570765 0.25357026
vt 0.20195933 0.26404500
vt 0.20195933 0.26404500
vt 0.20195933 0.26404500
vt 0.20195933 0.26404500
vt 0.20570765 0.27451974
vt 0.20570765 0.27451974
vt 0.21307273 0.25357026
vt 0.21307273 0.25357026
vt 0.20945594 0.26404500
vt 0.20945594 0.26404500
vt 0.20945594 0.26404500
vt 0.20945594 0.26404500
vt 0.20570765 0.26404500
vt 0.20570765 0.26404500
vt 0.20570765 0.26404500
vt 0.20570765 0.26404500
vt 0.19884963 0.26404500
vt 0.19884963 0.26404500
vt 0.19884963 0.26404500
vt 0.19884963 0.26404500
vt 0.21307273 0.26404500
vt 0.21307273 0.26404500
vt 0.21307273 0.26404500
vt 0.21307273 0.26404500
f 70/70/70 64/64/64 74/74/74
f 73/73/73 67/67/67 74/74/74
f 84/84/84 80/80/80 74/74/74
f 80/80/80 70/70/70 74/74/74
f 77/77/77 73/73/73 74/74/74
f 86/86/86 84/84/84 74/74/74
f 89/89/89 77/77/77 74/74/74
f 92/92/92 86/86/86 74/74/74
f 95/95/95 89/89/89 74/74/74
f 98/98/98 92/92/92 74/74/74
f 101/101/101 95/95/95 74/74/74
f 56/56/56 98/98/98 74/74/74
f 62/62/62 101/101/101 74/74/74
f 58/58/58 56/56/56 74/74/74
f 64/64/64 62/62/62 74/74/74
f 67/67/67 58/58/58 74/74/74
f 307/307/307 303/303/303 310/310/310
f 309/309/309 305/305/305 310/310/310
f 317/317/317 314/314/314 310/310/310
f 314/314/314 307/307/307 310/310/310
f 312/312/312 309/309/309 310/310/310
f 318/318/318 317/317/317 310/310/310
f 320/320/320 312/312/312 310/310/310
f 322/322/322 318/318/318 310/310/310
f 324/324/324 320/320/320 310/310/310
f 326/326/326 322/322/322 310/310/310
f 328/328/328 324/324/324 310/310/310
f 298/298/298 326/326/326 310/310/310
f 302/302/302 328/328/328 310/310/310
f 299/299/299 298/298/298 310/310/310
f 303/303/303 302/302/302 310/310/310
f 305/305/305 299/299/299 310/310/310
f 1/1/1 2/2/2 4/4/4
f 1/1/1 4/4/4 6/6/6
f 7/7/7 8/8/8 10/10/10
f 7/7/7 10/10/10 12/12/12
f 13/13/13 1/1/1 6/6/6
f 13/13/13 6/6/6 15/15/15
f 16/16/16 7/7/7 12/12/12
f 16/16/16 12/12/12 18/18/18
f 19/19/19 20/20/20 21/21/21
f 19/19/19 21/21/21 23/23/23
f 20/20/20 13/13/13 15/15/15
f 20/20/20 15/15/15 21/21/21
f 25/25/25 16/16/16 18/18/18
f 25/25/25 18/18/18 27/27/27
f 28/28/28 19/19/19 23/23/23
f 28/28/28 23/23/23 29/29/29
f 31/31/31 25/25/25 27/27/27
f 31/31/31 27/27/27 33/33/33
f 34/34/34 28/28/28 29/29/29
f 34/34/34 29/29/29 36/36/36
f 37/37/37 31/31/31 33/33/33
f 37/37/37 33/33/33 39/39/39
f 41/41/41 34/34/34 36/36/36
f 41/41/41 36/36/36 44/44/44
f 46/46/46 37/37/37 39/39/39
f 46/46/46 39/39/39 49/49/49
f 50/50/50 40/40/40 42/42/42
f 50/50/50 42/42/42 52/52/52
f 2/2/2 45/45/45 47/47/47
f 2/2/2 47/47/47 4/4/4
f 8/8/8 50/50/50 52/52/52
f 8/8/8 52/52/52 10/10/10
f 53/53/53 54/54/54 55/55/55
f 53/53/53 55/55/55 57/57/57
f 59/59/59 60/60/60 61/61/61
f 59/59/59 61/61/61 63/63/63
f 65/65/65 53/53/53 57/57/57
f 65/65/65 57/57/57 66/66/66
f 68/68/68 59/59/59 63/63/63
f 68/68/68 63/63/63 69/69/69
f 71/71/71 65/65/65 66/66/66
f 71/71/71 66/66/66 72/72/72
f 75/75/75 71/71/71 72/72/72
f 75/75/75 72/72/72 76/76/76
f 78/78/78 68/68/68 69/69/69
f 78/78/78 69/69/69 79/79/79
f 81/81/81 82/82/82 83/83/83
f 81/81/81 83/83/83 85/85/85
f 87/87/87 75/75/75 76/76/76
f 87/87/87 76/76/76 88/88/88
f 90/90/90 81/81/81 85/85/85
f 90/90/90 85/85/85 91/91/91
f 93/93/93 87/87/87 88/88/88
f 93/93/93 88/88/88 94/94/94
f 96/96/96 90/90/90 91/91/91
f 96/96/96 91/91/91 97/97/97
f 99/99/99 93/93/93 94/94/94
f 99/99/99 94/94/94 100/100/100
f 54/54/54 96/96/96 97/97/97
f 54/54/54 97/97/97 55/55/55
f 60/60/60 99/99/99 100/100/100
f 60/60/60 100/100/100 61/61/61
f 32/32/32 26/26/26 102/102/102
f 32/32/32 102/102/102 103/103/103
f 35/35/35 30/30/30 104/104/104
f 35/35/35 104/104/104 105/105/105
f 38/38/38 32/32/32 103/103/103
f 38/38/38 103/103/103 106/106/106
f 43/43/43 35/35/35 105/105/105
f 43/43/43 105/105/105 107/107/107
f 48/48/48 38/38/38 106/106/106
f 48/48/48 106/106/106 108/108/108
f 51/51/51 43/43/43 107/107/107
f 51/51/51 107/107/107 109/109/109
f 3/3/3 48/48/48 108/108/108
f 3/3/3 108/108/108 110/110/110
f 9/9/9 51/51/51 109/109/109
f 9/9/9 109/109/109 111/111/111
f 5/5/5 3/3/3 110/110/110
f 5/5/5 110/110/110 112/112/112
f 11/11/11 9/9/9 111/111/111
f 11/11/11 111/111/111 113/113/113
f 14/14/14 5/5/5 112/112/112
f 14/14/14 112/112/112 114/114/114
f 17/17/17 11/11/11 113/113/113
f 17/17/17 113/113/113 115/115/115
f 24/24/24 22/22/22 116/116/116
f 24/24/24 116/116/116 117/117/117
f 22/22/22 14/14/14 114/114/114
f 22/22/22 114/114/114 116/116/116
f 26/26/26 17/17/17 115/115/115
f 26/26/26 115/115/115 102/102/102
f 30/30/30 24/24/24 117/117/117
f 30/30/30 117/117/117 104/104/104
f 117/117/117 116/116/116 78/78/78
f 117/117/117 78/78/78 82/82/82
f 104/104/104 117/117/117 82/82/82
f 104/104/104 82/82/82 81/81/81
f 105/105/105 104/104/104 81/81/81
f 105/105/105 81/81/81 90/90/90
f 107/107/107 105/105/105 90/90/90
f 107/107/107 90/90/90 96/96/96
f 109/109/109 107/107/107 96/96/96
f 109/109/109 96/96/96 54/54/54
f 111/111/111 109/109/109 54/54/54
f 111/111/111 54/54/54 53/53/53
f 113/113/113 111/111/111 53/53/53
f 113/113/113 53/53/53 65/65/65
f 115/115/115 113/113/113 65/65/65
f 115/115/115 65/65/65 71/71/71
f 102/102/102 115/115/115 71/71/71
f 102/102/102 71/71/71 75/75/75
f 103/103/103 102/102/102 75/75/75
f 103/103/103 75/75/75 87/87/87
f 106/106/106 103/103/103 87/87/87
f 106/106/106 87/87/87 93/93/93
f 108/108/108 106/106/106 93/93/93
f 108/108/108 93/93/93 99/99/99
f 110/110/110 108/108/108 99/99/99
f 110/110/110 99/99/99 60/60/60
f 112/112/112 110/110/110 60/60/60
f 112/112/112 60/60/60 59/59/59
f 114/114/114 112/112/112 59/59/59
f 114/114/114 59/59/59 68/68/68
f 116/116/116 114/114/114 68/68/68
f 116/116/116 68/68/68 78/78/78
f 82/82/82 78/78/78 79/79/79
f 82/82/82 79/79/79 83/83/83
f 118/118/118 119/119/119 120/120/120
f 118/118/118 120/120/120 121/121/121
f 122/122/122 123/123/123 124/124/124
f 122/122/122 124/124/124 125/125/125
f 126/126/126 127/127/127 50/50/50
f 126/126/126 50/50/50 8/8/8
f 128/128/128 130/130/130 132/132/132
f 128/128/128 132/132/132 133/133/133
f 134/134/134 136/136/136 137/137/137
f 134/134/134 137/137/137 139/139/139
f 140/140/140 141/141/141 45/45/45
f 140/140/140 45/45/45 2/2/2
f 119/119/119 144/144/144 146/146/146
f 119/119/119 146/146/146 120/120/120
f 123/123/123 148/148/148 150/150/150
f 123/123/123 150/150/150 124/124/124
f 127/127/127 152/152/152 40/40/40
f 127/127/127 40/40/40 50/50/50
f 129/129/129 153/153/153 154/154/154
f 129/129/129 154/154/154 131/131/131
f 135/135/135 155/155/155 156/156/156
f 135/135/135 156/156/156 138/138/138
f 142/142/142 157/157/157 37/37/37
f 142/142/142 37/37/37 46/46/46
f 143/143/143 158/158/158 159/159/159
f 143/143/143 159/159/159 145/145/145
f 147/147/147 160/160/160 161/161/161
f 147/147/147 161/161/161 149/149/149
f 151/151/151 162/162/162 34/34/34
f 151/151/151 34/34/34 41/41/41
f 153/153/153 163/163/163 164/164/164
f 153/153/153 164/164/164 154/154/154
f 155/155/155 165/165/165 166/166/166
f 155/155/155 166/166/166 156/156/156
f 157/157/157 167/167/167 31/31/31
f 157/157/157 31/31/31 37/37/37
f 158/158/158 168/168/168 169/169/169
f 158/158/158 169/169/169 159/159/159
f 160/160/160 170/170/170 171/171/171
f 160/160/160 171/171/171 161/161/161
f 162/162/162 172/172/172 28/28/28
f 162/162/162 28/28/28 34/34/34
f 163/163/163 173/173/173 174/174/174
f 163/163/163 174/174/174 164/164/164
f 165/165/165 175/175/175 176/176/176
f 165/165/165 176/176/176 166/166/166
f 167/167/167 177/177/177 25/25/25
f 167/167/167 25/25/25 31/31/31
f 168/168/168 178/178/178 179/179/179
f 168/168/168 179/179/179 169/169/169
f 170/170/170 180/180/180 181/181/181
f 170/170/170 181/181/181 171/171/171
f 172/172/172 182/182/182 19/19/19
f 172/172/172 19/19/19 28/28/28
f 173/173/173 183/183/183 184/184/184
f 173/173/173 184/184/184 174/174/174
f 175/175/175 185/185/185 186/186/186
f 175/175/175 186/186/186 176/176/176
f 177/177/177 187/187/187 16/16/16
f 177/177/177 16/16/16 25/25/25
f 188/188/188 189/189/189 190/190/190
f 188/188/188 190/190/190 191/191/191
f 192/192/192 193/193/193 194/194/194
f 192/192/192 194/194/194 195/195/195
f 196/196/196 197/197/197 13/13/13
f 196/196/196 13/13/13 20/20/20
f 178/178/178 188/188/188 191/191/191
f 178/178/178 191/191/191 179/179/179
f 180/180/180 192/192/192 195/195/195
f 180/180/180 195/195/195 181/181/181
f 182/182/182 196/196/196 20/20/20
f 182/182/182 20/20/20 19/19/19
f 183/183/183 198/198/198 199/199/199
f 183/183/183 199/199/199 184/184/184
f 185/185/185 200/200/200 201/201/201
f 185/185/185 201/201/201 186/186/186
f 187/187/187 202/202/202 7/7/7
f 187/187/187 7/7/7 16/16/16
f 189/189/189 203/203/203 204/204/204
f 189/189/189 204/204/204 190/190/190
f 193/193/193 205/205/205 206/206/206
f 193/193/193 206/206/206 194/194/194
f 197/197/197 207/207/207 1/1/1
f 197/197/197 1/1/1 13/13/13
f 198/198/198 118/118/118 121/121/121
f 198/198/198 121/121/121 199/199/199
f 200/200/200 122/122/122 125/125/125
f 200/200/200 125/125/125 201/201/201
f 202/202/202 126/126/126 8/8/8
f 202/202/202 8/8/8 7/7/7
f 203/203/203 128/128/128 133/133/133
f 203/203/203 133/133/133 204/204/204
f 205/205/205 134/134/134 139/139/139
f 205/205/205 139/139/139 206/206/206
f 207/207/207 140/140/140 2/2/2
f 207/207/207 2/2/2 1/1/1
f 204/204/204 133/133/133 134/134/134
f 204/204/204 134/134/134 205/205/205
f 199/199/199 121/121/121 122/122/122
f 199/199/199 122/122/122 200/200/200
f 190/190/190 204/204/204 205/205/205
f 190/190/190 205/205/205 193/193/193
f 184/184/184 199/199/199 200/200/200
f 184/184/184 200/200/200 185/185/185
f 179/179/179 191/191/191 192/192/192
f 179/179/179 192/192/192 180/180/180
f 191/191/191 190/190/190 193/193/193
f 191/191/191 193/193/193 192/192/192
f 174/174/174 184/184/184 185/185/185
f 174/174/174 185/185/185 175/175/175
f 169/169/169 179/179/179 180/180/180
f 169/169/169 180/180/180 170/170/170
f 164/164/164 174/174/174 175/175/175
f 164/164/164 175/175/175 165/165/165
f 159/159/159 169/169/169 170/170/170
f 159/159/159 170/170/170 160/160/160
f 154/154/154 164/164/164 165/165/165
f 154/154/154 165/165/165 155/155/155
f 145/145/145 159/159/159 160/160/160
f 145/145/145 160/160/160 147/147/147
f 131/131/131 154/154/154 155/155/155
f 131/131/131 155/155/155 135/135/135
f 120/120/120 146/146/146 148/148/148
f 120/120/120 148/148/148 123/123/123
f 133/133/133 132/132/132 136/136/136
f 133/133/133 136/136/136 134/134/134
f 121/121/121 120/120/120 123/123/123
f 121/121/121 123/123/123 122/122/122
f 208/208/208 209/209/209 140/140/140
f 208/208/208 140/140/140 207/207/207
f 210/210/210 211/211/211 126/126/126
f 210/210/210 126/126/126 202/202/202
f 212/212/212 208/208/208 207/207/207
f 212/212/212 207/207/207 197/197/197
f 213/213/213 210/210/210 202/202/202
f 213/213/213 202/202/202 187/187/187
f 214/214/214 215/215/215 196/196/196
f 214/214/214 196/196/196 182/182/182
f 215/215/215 212/212/212 197/197/197
f 215/215/215 197/197/197 196/196/196
f 216/216/216 213/213/213 187/187/187
f 216/216/216 187/187/187 177/177/177
f 217/217/217 214/214/214 182/182/182
f 217/217/217 182/182/182 172/172/172
f 218/218/218 216/216/216 177/177/177
f 218/218/218 177/177/177 167/167/167
f 219/219/219 217/217/217 172/172/172
f 219/219/219 172/172/172 162/162/162
f 220/220/220 218/218/218 167/167/167
f 220/220/220 167/167/167 157/157/157
f 221/221/221 219/219/219 162/162/162
f 221/221/221 162/162/162 151/151/151
f 224/224/224 220/220/220 157/157/157
f 224/224/224 157/157/157 142/142/142
f 225/225/225 222/222/222 152/152/152
f 225/225/225 152/152/152 127/127/127
f 209/209/209 223/223/223 141/141/141
f 209/209/209 141/141/141 140/140/140
f 211/211/211 225/225/225 127/127/127
f 211/211/211 127/127/127 126/126/126
f 125/125/125 124/124/124 225/225/225
f 125/125/125 225/225/225 211/211/211
f 139/139/139 137/137/137 223/223/223
f 139/139/139 223/223/223 209/209/209
f 124/124/124 150/150/150 222/222/222
f 124/124/124 222/222/222 225/225/225
f 138/138/138 156/156/156 220/220/220
f 138/138/138 220/220/220 224/224/224
f 149/149/149 161/161/161 219/219/219
f 149/149/149 219/219/219 221/221/221
f 156/156/156 166/166/166 218/218/218
f 156/156/156 218/218/218 220/220/220
f 161/161/161 171/171/171 217/217/217
f 161/161/161 217/217/217 219/219/219
f 166/166/166 176/176/176 216/216/216
f 166/166/166 216/216/216 218/218/218
f 171/171/171 181/181/181 214/214/214
f 171/171/171 214/214/214 217/217/217
f 176/176/176 186/186/186 213/213/213
f 176/176/176 213/213/213 216/216/216
f 195/195/195 194/194/194 212/212/212
f 195/195/195 212/212/212 215/215/215
f 181/181/181 195/195/195 215/215/215
f 181/181/181 215/215/215 214/214/214
f 186/186/186 201/201/201 210/210/210
f 186/186/186 210/210/210 213/213/213
f 194/194/194 206/206/206 208/208/208
f 194/194/194 208/208/208 212/212/212
f 201/201/201 125/125/125 211/211/211
f 201/201/201 211/211/211 210/210/210
f 206/206/206 139/139/139 209/209/209
f 206/206/206 209/209/209 208/208/208
f 226/226/226 227/227/227 128/128/128
f 226/226/226 128/128/128 203/203/203
f 228/228/228 229/229/229 118/118/118
f 228/228/228 118/118/118 198/198/198
f 230/230/230 226/226/226 203/203/203
f 230/230/230 203/203/203 189/189/189
f 231/231/231 228/228/228 198/198/198
f 231/231/231 198/198/198 183/183/183
f 232/232/232 233/233/233 188/188/188
f 232/232/232 188/188/188 178/178/178
f 233/233/233 230/230/230 189/189/189
f 233/233/233 189/189/189 188/188/188
f 234/234/234 231/231/231 183/183/183
f 234/234/234 183/183/183 173/173/173
f 235/235/235 232/232/232 178/178/178
f 235/235/235 178/178/178 168/168/168
f 236/236/236 234/234/234 173/173/173
f 236/236/236 173/173/173 163/163/163
f 237/237/237 235/235/235 168/168/168
f 237/237/237 168/168/168 158/158/158
f 238/238/238 236/236/236 163/163/163
f 238/238/238 163/163/163 153/153/153
f 239/239/239 237/237/237 158/158/158
f 239/239/239 158/158/158 143/143/143
f 241/241/241 238/238/238 153/153/153
f 241/241/241 153/153/153 129/129/129
f 243/243/243 240/240/240 144/144/144
f 243/243/243 144/144/144 119/119/119
f 227/227/227 242/242/242 130/130/130
f 227/227/227 130/130/130 128/128/128
f 229/229/229 243/243/243 119/119/119
f 229/229/229 119/119/119 118/118/118
f 244/244/244 245/245/245 246/246/246
f 244/244/244 246/246/246 248/248/248
f 250/250/250 251/251/251 252/252/252
f 250/250/250 252/252/252 254/254/254
f 256/256/256 244/244/244 248/248/248
f 256/256/256 248/248/248 257/257/257
f 259/259/259 250/250/250 254/254/254
f 259/259/259 254/254/254 260/260/260
f 262/262/262 263/263/263 265/265/265
f 262/262/262 265/265/265 267/267/267
f 263/263/263 256/256/256 257/257/257
f 263/263/263 257/257/257 265/265/265
f 268/268/268 259/259/259 260/260/260
f 268/268/268 260/260/260 269/269/269
f 271/271/271 262/262/262 267/267/267
f 271/271/271 267/267/267 273/273/273
f 274/274/274 268/268/268 269/269/269
f 274/274/274 269/269/269 275/275/275
f 277/277/277 271/271/271 273/273/273
f 277/277/277 273/273/273 278/278/278
f 280/280/280 274/274/274 275/275/275
f 280/280/280 275/275/275 281/281/281
f 283/283/283 277/277/277 278/278/278
f 283/283/283 278/278/278 285/285/285
f 288/288/288 280/280/280 281/281/281
f 288/288/288 281/281/281 290/290/290
f 293/293/293 284/284/284 287/287/287
f 293/293/293 287/287/287 294/294/294
f 245/245/245 289/289/289 292/292/292
f 245/245/245 292/292/292 246/246/246
f 251/251/251 293/293/293 294/294/294
f 251/251/251 294/294/294 252/252/252
f 296/296/296 297/297/297 298/298/298
f 296/296/296 298/298/298 299/299/299
f 300/300/300 301/301/301 302/302/302
f 300/300/300 302/302/302 303/303/303
f 304/304/304 296/296/296 299/299/299
f 304/304/304 299/299/299 305/305/305
f 306/306/306 300/300/300 303/303/303
f 306/306/306 303/303/303 307/307/307
f 308/308/308 304/304/304 305/305/305
f 308/308/308 305/305/305 309/309/309
f 311/311/311 308/308/308 309/309/309
f 311/311/311 309/309/309 312/312/312
f 313/313/313 306/306/306 307/307/307
f 313/313/313 307/307/307 314/314/314
f 315/315/315 316/316/316 317/317/317
f 315/315/315 317/317/317 318/318/318
f 319/319/319 311/311/311 312/312/312
f 319/319/319 312/312/312 320/320/320
f 321/321/321 315/315/315 318/318/318
f 321/321/321 318/318/318 322/322/322
f 323/323/323 319/319/319 320/320/320
f 323/323/323 320/320/320 324/324/324
f 325/325/325 321/321/321 322/322/322
f 325/325/325 322/322/322 326/326/326
f 327/327/327 323/323/323 324/324/324
f 327/327/327 324/324/324 328/328/328
f 297/297/297 325/325/325 326/326/326
f 297/297/297 326/326/326 298/298/298
f 301/301/301 327/327/327 328/328/328
f 301/301/301 328/328/328 302/302/302
f 276/276/276 270/270/270 329/329/329
f 276/276/276 329/329/329 330/330/330
f 279/279/279 272/272/272 331/331/331
f 279/279/279 331/331/331 332/332/332
f 282/282/282 276/276/276 330/330/330
f 282/282/282 330/330/330 333/333/333
f 286/286/286 279/279/279 332/332/332
f 286/286/286 332/332/332 334/334/334
f 291/291/291 282/282/282 333/333/333
f 291/291/291 333/333/333 335/335/335
f 295/295/295 286/286/286 334/334/334
f 295/295/295 334/334/334 336/336/336
f 247/247/247 291/291/291 335/335/335
f 247/247/247 335/335/335 337/337/337
f 253/253/253 295/295/295 336/336/336
f 253/253/253 336/336/336 338/338/338
f 249/249/249 247/247/247 337/337/337
f 249/249/249 337/337/337 339/339/339
f 255/255/255 253/253/253 338/338/338
f 255/255/255 338/338/338 340/340/340
f 258/258/258 249/249/249 339/339/339
f 258/258/258 339/339/339 341/341/341
f 261/261/261 255/255/255 340/340/340
f 261/261/261 340/340/340 342/342/342
f 266/266/266 264/264/264 343/343/343
f 266/266/266 343/343/343 344/344/344
f 264/264/264 258/258/258 341/341/341
f 264/264/264 341/341/341 343/343/343
f 270/270/270 261/261/261 342/342/342
f 270/270/270 342/342/342 329/329/329
f 272/272/272 266/266/266 344/344/344
f 272/272/272 344/344/344 331/331/331
f 344/344/344 343/343/343 313/313/313
f 344/344/344 313/313/313 316/316/316
f 331/331/331 344/344/344 316/316/316
f 331/331/331 316/316/316 315/315/315
f 332/332/332 331/331/331 315/315/315
f 332/332/332 315/315/315 321/321/321
f 334/334/334 332/332/332 321/321/321
f 334/334/334 321/321/321 325/325/325
f 336/336/336 334/334/334 325/325/325
f 336/336/336 325/325/325 297/297/297
f 338/338/338 336/336/336 297/297/297
f 338/338/338 297/297/297 296/296/296
f 340/340/340 338/338/338 296/296/296
f 340/340/340 296/296/296 304/304/304
f 342/342/342 340/340/340 304/304/304
f 342/342/342 304/304/304 308/308/308
f 329/329/329 342/342/342 308/308/308
f 329/329/329 308/308/308 311/311/311
f 330/330/330 329/329/329 311/311/311
f 330/330/330 311/311/311 319/319/319
f 333/333/333 330/330/330 319/319/319
f 333/333/333 319/319/319 323/323/323
f 335/335/335 333/333/333 323/323/323
f 335/335/335 323/323/323 327/327/327
f 337/337/337 335/335/335 327/327/327
f 337/337/337 327/327/327 301/301/301
f 339/339/339 337/337/337 301/301/301
f 339/339/339 301/301/301 300/300/300
f 341/341/341 339/339/339 300/300/300
f 341/341/341 300/300/300 306/306/306
f 343/343/343 341/341/341 306/306/306
f 343/343/343 306/306/306 313/313/313
f 316/316/316 313/313/313 314/314/314
f 316/316/316 314/314/314 317/317/317
f 390/390/390 362/362/362 348/348/348
f 390/390/390 348/348/348 375/375/375
f 388/388/388 370/370/370 351/351/351
f 388/388/388 351/351/351 364/364/364
f 384/384/384 380/380/380 356/356/356
f 384/384/384 356/356/356 368/368/368
f 371/371/371 381/381/381 367/367/367
f 371/371/371 367/367/367 352/352/352
f 350/350/350 374/374/374 383/383/383
f 350/350/350 383/383/383 372/372/372
f 373/373/373 354/354/354 379/379/379
f 373/373/373 379/379/379 382/382/382
f 357/357/357 385/385/385 363/363/363
f 357/357/357 363/363/363 347/347/347
f 345/345/345 365/365/365 386/386/386
f 345/345/345 386/386/386 358/358/358
f 366/366/366 349/349/349 369/369/369
f 366/366/366 369/369/369 387/387/387
f 378/378/378 392/392/392 376/376/376
f 378/378/378 376/376/376 355/355/355
f 353/353/353 360/360/360 391/391/391
f 353/353/353 391/391/391 377/377/377
f 359/359/359 346/346/346 361/361/361
f 359/359/359 361/361/361 389/389/389

