# https://github.com/mikedh/trimesh
mtllib material.mtl
usemtl null.005
v -0.41217712 0.17014179 -0.16173701
v -0.22550836 0.15912767 -0.15436435
v -0.41102341 0.16755766 -0.27989849
v -0.22419676 0.15618984 -0.28869811
v -0.34488186 0.16612907 -0.19351797
v -0.34488186 0.16612907 -0.19351797
v -0.34434465 0.16492575 -0.24854127
v -0.34434465 0.16492575 -0.24854127
v -0.28960225 0.16212448 -0.19377325
v -0.28960225 0.16212448 -0.19377325
v -0.28906503 0.16092116 -0.24879655
v -0.28906503 0.16092116 -0.24879655
v -0.43047473 0.16884972 -0.22081779
v -0.43047473 0.16884972 -0.22081779
v -0.26138064 0.16062608 -0.16161865
v -0.26138064 0.16062608 -0.16161865
v -0.20681630 0.15765876 -0.22153123
v -0.20681630 0.15765876 -0.22153123
v -0.37162521 0.16624171 -0.27466944
v -0.37162521 0.16624171 -0.27466944
v -0.36756703 0.16813543 -0.16670579
v -0.36756703 0.16813543 -0.16670579
v -0.31670484 0.16292344 -0.25831345
v -0.31670484 0.16292344 -0.25831345
v -0.34461328 0.16552740 -0.22102956
v -0.34461328 0.16552740 -0.22102956
v -0.34461328 0.16552740 -0.22102956
v -0.34461328 0.16552740 -0.22102956
v -0.31724206 0.16412678 -0.18608904
v -0.31724206 0.16412678 -0.18608904
v -0.26782951 0.15855551 -0.27788439
v -0.26782951 0.15855551 -0.27788439
v -0.28933367 0.16152284 -0.22128485
v -0.28933367 0.16152284 -0.22128485
v -0.28933367 0.16152284 -0.22128485
v -0.28933367 0.16152284 -0.22128485
v -0.31697348 0.16352512 -0.22115727
v -0.31697348 0.16352512 -0.22115727
v -0.31697348 0.16352512 -0.22115727
v -0.31697348 0.16352512 -0.22115727
v -0.37810674 0.16718857 -0.22092374
v -0.37810674 0.16718857 -0.22092374
v -0.37810674 0.16718857 -0.22092374
v -0.37810674 0.16718857 -0.22092374
v -0.25709310 0.15959078 -0.22140810
v -0.25709310 0.15959078 -0.22140810
v -0.25709310 0.15959078 -0.22140810
v -0.25709310 0.15959078 -0.22140810
v -0.44324011 -0.13774797 -0.22146802
v -0.43576908 -0.13150500 -0.01373602
v -0.43576908 -0.13150500 -0.01373602
v -0.47118309 -0.08018500 -0.00945201
v -0.47118309 -0.08018500 -0.00945201
v -0.48099810 -0.08356398 -0.21694502
v -0.25114509 0.13465303 -0.24420698
v -0.25418308 0.12649600 -0.03527299
v -0.25418308 0.12649600 -0.03527299
v -0.19895709 0.09220601 -0.04168399
v -0.19895709 0.09220601 -0.04168399
v -0.19321010 0.09844903 -0.25097600
v -0.38646010 -0.17395297 -0.22823802
v -0.38234511 -0.16579600 -0.02014702
v -0.38234511 -0.16579600 -0.02014702
v -0.31904510 0.14736703 -0.23622198
v -0.31864211 0.13853700 -0.02770998
v -0.31864211 0.13853700 -0.02770998
v -0.25114509 -0.17395297 -0.24420701
v -0.25418308 -0.16579500 -0.03527302
v -0.25418308 -0.16579500 -0.03527302
v -0.31864110 -0.17783700 -0.02771002
v -0.31864110 -0.17783700 -0.02771002
v -0.31904510 -0.18666597 -0.23622201
v -0.38646111 0.13465303 -0.22823799
v -0.38234511 0.12649600 -0.02014798
v -0.38234511 0.12649600 -0.02014798
v -0.19321010 -0.13774797 -0.25097603
v -0.19895709 -0.13150500 -0.04168402
v -0.19895709 -0.13150500 -0.04168402
v -0.44324011 0.09844903 -0.22146799
v -0.43576908 0.09220600 -0.01373599
v -0.43576908 0.09220600 -0.01373599
v -0.15431711 -0.08356397 -0.25549901
v -0.16177309 -0.08018500 -0.04596801
v -0.16177309 -0.08018500 -0.04596801
v -0.48099810 0.04426502 -0.21694501
v -0.47118309 0.04088600 -0.00945200
v -0.47118309 0.04088600 -0.00945200
v -0.15046310 -0.01964997 -0.25600401
v -0.15046310 -0.01964997 -0.25600401
v -0.15838408 -0.01964999 -0.04644701
v -0.15838408 -0.01964999 -0.04644701
v -0.15838408 -0.01964999 -0.04644701
v -0.48570508 -0.01964997 -0.21644001
v -0.48570508 -0.01964997 -0.21644001
v -0.47590309 -0.01965000 -0.00897400
v -0.47590309 -0.01965000 -0.00897400
v -0.47590309 -0.01965000 -0.00897400
v -0.15431711 0.04426503 -0.25549901
v -0.16177309 0.04088600 -0.04596800
v -0.16177309 0.04088600 -0.04596800
v -0.23586911 0.05860600 0.01677301
v -0.28331310 0.01557799 0.04825600
v -0.28331310 0.01557799 0.04825600
v -0.27176210 -0.00058501 0.04690700
v -0.27176210 -0.00058501 0.04690700
v -0.20996410 0.02270200 0.01377600
v -0.40154710 -0.09790501 0.03632599
v -0.35789409 -0.05487701 0.05705799
v -0.35789409 -0.05487701 0.05705799
v -0.36920708 -0.03871501 0.05840700
v -0.36920708 -0.03871501 0.05840700
v -0.42643210 -0.06200100 0.03932299
v -0.27439108 0.08259600 0.02125801
v -0.30054209 0.02637699 0.05027501
v -0.30054209 0.02637699 0.05027501
v -0.36405510 -0.12189501 0.03183999
v -0.34090510 -0.06567601 0.05503799
v -0.34090510 -0.06567601 0.05503799
v -0.31943911 0.09102100 0.02654901
v -0.32077309 0.03016900 0.05265700
v -0.32077309 0.03016900 0.05265700
v -0.32064208 -0.01965001 0.06340400
v -0.36405510 0.08259599 0.03184001
v -0.34090510 0.02637699 0.05503801
v -0.34090510 0.02637699 0.05503801
v -0.31943911 -0.13032000 0.02654899
v -0.32077309 -0.06946900 0.05265699
v -0.32077309 -0.06946900 0.05265699
v -0.23586911 -0.09790500 0.01677299
v -0.28331310 -0.05487701 0.04825599
v -0.28331310 -0.05487701 0.04825599
v -0.30054209 -0.06567601 0.05027499
v -0.30054209 -0.06567601 0.05027499
v -0.27439108 -0.12189500 0.02125799
v -0.40154710 0.05860600 0.03632601
v -0.35789409 0.01557799 0.05705800
v -0.35789409 0.01557799 0.05705800
v -0.20996410 -0.06200100 0.01377599
v -0.27176210 -0.03871501 0.04690700
v -0.27176210 -0.03871501 0.04690700
v -0.42643210 0.02270199 0.03932300
v -0.36920708 -0.00058501 0.05840700
v -0.36920708 -0.00058501 0.05840700
v -0.20751110 -0.01965000 0.01344100
v -0.27057511 -0.01965000 0.04675600
v -0.27057511 -0.01965000 0.04675600
v -0.42965209 -0.01965000 0.03965800
v -0.37057409 -0.01965001 0.05855700
v -0.37057409 -0.01965001 0.05855700
v -0.42585510 0.08284400 0.01065301
v -0.37687910 0.11426500 0.00477901
v -0.17481211 -0.07511900 -0.01888101
v -0.20886210 -0.12214300 -0.01495602
v -0.45832711 0.03582000 0.01457900
v -0.17169109 -0.01965000 -0.01932000
v -0.46263611 -0.01965000 0.01501700
v -0.17481109 0.03582000 -0.01888100
v -0.45832711 -0.07511900 0.01457899
v -0.20886210 0.08284400 -0.01495599
v -0.42585510 -0.12214300 0.01065299
v -0.25944310 0.11426500 -0.00908099
v -0.37687910 -0.15356401 0.00477898
v -0.31849709 0.12529799 -0.00215099
v -0.25944310 -0.15356401 -0.00908102
v -0.31849709 -0.16459800 -0.00215102
v -0.24509510 0.11254510 -0.80128199
v -0.22993311 0.10432609 -0.73402297
v -0.19507509 0.05240209 -0.75467402
v -0.21688411 0.06544010 -0.83800203
v -0.21926808 0.09985808 -0.67879498
v -0.19662011 0.10311106 -0.48472399
v -0.15678209 0.04678806 -0.48942500
v -0.18048510 0.04502708 -0.68965298
v -0.19491509 0.10078005 -0.36785001
v -0.15554911 0.04552704 -0.37246200
v -0.50125510 -0.08119592 -0.68356901
v -0.50826210 -0.08308692 -0.62958801
v -0.51057911 -0.02056392 -0.62175500
v -0.51057911 -0.02056392 -0.62175500
v -0.50009811 -0.02214792 -0.66364598
v -0.50009811 -0.02214792 -0.66364598
v -0.51106310 -0.08432693 -0.58681101
v -0.49635911 -0.08608695 -0.44936401
v -0.50080907 -0.01964995 -0.44899800
v -0.50080907 -0.01964995 -0.44899800
v -0.51539409 -0.01964993 -0.58599401
v -0.51539409 -0.01964993 -0.58599401
v -0.48867810 -0.08482596 -0.33315399
v -0.49325711 -0.01964996 -0.33271900
v -0.49325711 -0.01964996 -0.33271900
v -0.19275811 -0.01011991 -0.76176602
v -0.19275811 -0.01011991 -0.76176602
v -0.21804109 0.00639210 -0.85755497
v -0.21804109 0.00639210 -0.85755497
v -0.15233210 -0.01964994 -0.48995101
v -0.15233210 -0.01964994 -0.48995101
v -0.17615411 -0.01964992 -0.68960297
v -0.17615411 -0.01964992 -0.68960297
v -0.15139711 -0.01964995 -0.37297699
v -0.15139711 -0.01964995 -0.37297699
v -0.50478011 0.04222608 -0.61741102
v -0.49173808 0.03762908 -0.64863002
v -0.49635911 0.04678805 -0.44970500
v -0.51106310 0.04502707 -0.58772099
v -0.48867810 0.04552604 -0.33332500
v -0.19855809 -0.07290991 -0.76565999
v -0.22640210 -0.05338389 -0.87234402
v -0.15678209 -0.08608694 -0.48942500
v -0.18048510 -0.08432592 -0.68735403
v -0.15554911 -0.08482596 -0.37246200
v -0.46697009 0.09653708 -0.62857801
v -0.45545810 0.09125908 -0.65614998
v -0.45652109 0.10311105 -0.45443201
v -0.47228009 0.09985708 -0.60032701
v -0.44988108 0.10078004 -0.33794999
v -0.23636809 -0.12722091 -0.75475699
v -0.26268110 -0.10701489 -0.86495697
v -0.19662011 -0.14241093 -0.48472401
v -0.21926808 -0.13915692 -0.67506403
v -0.19491509 -0.14007896 -0.36785004
v -0.41160810 0.13381508 -0.64957398
v -0.40450609 0.12979607 -0.67967600
v -0.39690509 0.14074506 -0.46125698
v -0.41424111 0.13649407 -0.61887199
v -0.39168310 0.13769904 -0.34474698
v -0.29173210 -0.16449991 -0.73442501
v -0.31363511 -0.14555189 -0.84176302
v -0.25624710 -0.18004493 -0.47768703
v -0.27731109 -0.17579293 -0.65729302
v -0.25369608 -0.17699896 -0.36094704
v -0.34712109 0.14838608 -0.67697901
v -0.34663510 0.14737409 -0.71551502
v -0.32658109 0.15396006 -0.46941096
v -0.34577709 0.14935908 -0.64028800
v -0.32281309 0.15066405 -0.35281697
v -0.37150609 -0.16312991 -0.80620700
v -0.35622111 -0.17906991 -0.70758700
v -0.42001510 -0.16871493 -0.67817003
v -0.42748210 -0.15707190 -0.76362401
v -0.34577709 -0.18865792 -0.63653803
v -0.32658109 -0.19325994 -0.46938702
v -0.39690509 -0.18004493 -0.46108702
v -0.41424009 -0.17579293 -0.61577302
v -0.32281309 -0.18996295 -0.35280502
v -0.39168310 -0.17699896 -0.34466204
v -0.28332409 0.13803110 -0.70673299
v -0.29065809 0.14131609 -0.75826699
v -0.25624710 0.14074506 -0.47768697
v -0.27731109 0.13649407 -0.66145098
v -0.25369608 0.13769904 -0.36094698
v -0.47340509 -0.13500993 -0.65063602
v -0.47304410 -0.12830091 -0.72048700
v -0.45652109 -0.14241093 -0.45405102
v -0.47228009 -0.13915692 -0.59814000
v -0.44988108 -0.14007896 -0.33776003
v -0.45320112 -0.14124495 -0.39590502
v -0.49251908 -0.08545695 -0.39125901
v -0.25497210 0.13922204 -0.41931698
v -0.19576710 0.10194605 -0.42628700
v -0.39429408 -0.17852196 -0.40287504
v -0.32469711 0.15231204 -0.41111398
v -0.25497210 -0.17852196 -0.41931704
v -0.32469711 -0.19161096 -0.41109604
v -0.39429408 0.13922204 -0.40300196
v -0.19576710 -0.14124495 -0.42628703
v -0.45320112 0.10194604 -0.39619100
v -0.15616509 -0.08545595 -0.43094400
v -0.49251908 0.04615705 -0.39151499
v -0.15186509 -0.01964995 -0.43146399
v -0.15186509 -0.01964995 -0.43146399
v -0.49703312 -0.01964995 -0.39085901
v -0.49703312 -0.01964995 -0.39085901
v -0.15616509 0.04615705 -0.43094400
v -0.47268310 -0.12159090 -0.79033703
v -0.49424708 -0.07930491 -0.73755002
v -0.29799110 0.14460209 -0.80980200
v -0.26025710 0.12076411 -0.86854202
v -0.43494910 -0.14542890 -0.84907699
v -0.34615010 0.14636309 -0.75405103
v -0.33553711 -0.12660488 -0.94910097
v -0.38679010 -0.14718990 -0.90482801
v -0.39740309 0.12577809 -0.70977801
v -0.28899410 -0.08680788 -0.97515702
v -0.44394708 0.08598108 -0.68372202
v -0.25424510 -0.03385888 -0.97902900
v -0.47869509 0.03303208 -0.67984998
v -0.24332410 0.02290511 -0.95334297
v -0.24332410 0.02290511 -0.95334297
v -0.48961610 -0.02373192 -0.70553601
v -0.48961610 -0.02373192 -0.70553601
v -0.23869309 0.07847911 -0.92132902
v -0.45157319 -0.14551142 -0.23379971
v -0.44361109 -0.13885805 -0.01241198
v -0.44361109 -0.13885805 -0.01241198
v -0.48135310 -0.08416443 -0.00784635
v -0.48135310 -0.08416443 -0.00784635
v -0.48135310 -0.08416443 -0.00784635
v -0.48135310 -0.08416443 -0.00784635
v -0.49181330 -0.08776552 -0.22897936
v -0.49181330 -0.08776552 -0.22897936
v -0.24685040 0.14479646 -0.25803345
v -0.25008810 0.13610321 -0.03536473
v -0.25008810 0.13610321 -0.03536473
v -0.19123170 0.09955909 -0.04219718
v -0.19123170 0.09955909 -0.04219718
v -0.18510693 0.10621250 -0.26524746
v -0.39106065 -0.18409644 -0.24101473
v -0.38667515 -0.17540325 -0.01924442
v -0.38667515 -0.17540325 -0.01924442
v -0.31921396 0.15834625 -0.24952357
v -0.31878448 0.14893577 -0.02730455
v -0.31878448 0.14893577 -0.02730455
v -0.24685040 -0.18409644 -0.25803351
v -0.25008810 -0.17540219 -0.03536477
v -0.25008810 -0.17540219 -0.03536477
v -0.31878340 -0.18823580 -0.02730459
v -0.31878340 -0.18823580 -0.02730459
v -0.31921396 -0.19764516 -0.24952361
v -0.39106172 0.14479646 -0.24101470
v -0.38667515 0.13610321 -0.01924545
v -0.38667515 0.13610321 -0.01924545
v -0.18510693 -0.14551142 -0.26524749
v -0.19123170 -0.13885805 -0.04219720
v -0.19123170 -0.13885805 -0.04219720
v -0.45157319 0.10621250 -0.23379968
v -0.44361109 0.09955908 -0.01241195
v -0.44361109 0.09955908 -0.01241195
v -0.14365721 -0.08776552 -0.27006781
v -0.15160334 -0.08416443 -0.04676281
v -0.15160334 -0.08416443 -0.04676281
v -0.49181330 0.04846660 -0.22897935
v -0.49181330 0.04846660 -0.22897935
v -0.48135310 0.04486544 -0.00784633
v -0.48135310 0.04486544 -0.00784633
v -0.48135310 0.04486544 -0.00784633
v -0.48135310 0.04486544 -0.00784633
v -0.13954985 -0.01964999 -0.27060601
v -0.13954985 -0.01964999 -0.27060601
v -0.14799154 -0.01965002 -0.04727330
v -0.14799154 -0.01965002 -0.04727330
v -0.14799154 -0.01965002 -0.04727330
v -0.48638338 -0.01965002 -0.00733692
v -0.48638338 -0.01965002 -0.00733692
v -0.14365721 0.04846660 -0.27006781
v -0.15160334 0.04486545 -0.04676280
v -0.15160334 0.04486545 -0.04676280
v -0.23057023 0.06375031 0.02010263
v -0.28113303 0.01789377 0.05365523
v -0.26882273 0.00066825 0.05221754
v -0.20296228 0.02548608 0.01690861
v -0.40713942 -0.10304930 0.04094097
v -0.36061677 -0.05719276 0.06303584
v -0.37267345 -0.03996831 0.06447352
v -0.43366030 -0.06478507 0.04413498
v -0.27162451 0.08931734 0.02488246
v -0.29949462 0.02940266 0.05580696
v -0.36718279 -0.12861632 0.03616007
v -0.34251100 -0.06870165 0.06088305
v -0.31963387 0.09829619 0.03052128
v -0.32105556 0.03344394 0.05834554
v -0.32091594 -0.01965003 0.06979901
v -0.36718279 0.08931734 0.03616010
v -0.34251100 0.02940266 0.06088306
v -0.31963387 -0.13759516 0.03052125
v -0.32105556 -0.07274399 0.05834553
v -0.23057023 -0.10304929 0.02010261
v -0.28113303 -0.05719276 0.05365522
v -0.29949462 -0.06870165 0.05580695
v -0.27162451 -0.12861632 0.02488244
v -0.40713942 0.06375030 0.04094099
v -0.36061677 0.01789376 0.06303585
v -0.20296228 -0.06478506 0.01690860
v -0.26882273 -0.03996831 0.05221754
v -0.43366030 0.02548607 0.04413499
v -0.37267345 0.00066825 0.06447352
v -0.20034802 -0.01965002 0.01655158
v -0.26755768 -0.01965003 0.05205661
v -0.43709195 -0.01965003 0.04449202
v -0.37413034 -0.01965003 0.06463338
v -0.43304536 0.08958165 0.01358032
v -0.38084981 0.12306819 0.00732018
v -0.16549951 -0.07876541 -0.01789519
v -0.20178783 -0.12888062 -0.01371218
v -0.46765196 0.03946642 0.01776440
v -0.16217333 -0.01965002 -0.01836304
v -0.47224426 -0.01965002 0.01823118
v -0.16549844 0.03946643 -0.01789517
v -0.46765196 -0.07876541 0.01776438
v -0.20178783 0.08958165 -0.01371215
v -0.43304536 -0.12888062 0.01358029
v -0.25569391 0.12306819 -0.00745094
v -0.38084981 -0.16236717 0.00732015
v -0.31862992 0.13482645 -0.00006538
v -0.25569391 -0.16236717 -0.00745097
v -0.31862992 -0.17412651 -0.00006541
v -0.49656868 -0.01964946 -0.22897935
v -0.49656868 -0.01964946 -0.22897935
v -0.48610848 -0.01964949 -0.00784634
v -0.48610848 -0.01964949 -0.00784634
v -0.48610848 -0.01964949 -0.00784634
vn 0.03626138 0.99892241 -0.02896937
vn 0.04080382 0.99909121 -0.01232148
vn 0.03310382 0.99937719 -0.01222268
vn 0.04222908 0.99866265 -0.02982927
vn 0.05292070 0.99827147 -0.02556497
vn 0.07467385 0.99703592 -0.01853076
vn 0.05509416 0.99837667 -0.01444920
vn 0.06903680 0.99745202 -0.01798682
vn 0.06473389 0.99778479 -0.01533077
vn 0.06962852 0.99740005 -0.01858083
vn 0.06511291 0.99749732 -0.02755679
vn 0.07526993 0.99700207 -0.01792717
vn 0.03310382 0.99937719 -0.01222268
vn 0.03626138 0.99892241 -0.02896937
vn 0.04080382 0.99909121 -0.01232148
vn 0.06473389 0.99778479 -0.01533077
vn 0.04080382 0.99909121 -0.01232148
vn 0.04222908 0.99866265 -0.02982927
vn 0.03310382 0.99937719 -0.01222268
vn 0.05509416 0.99837667 -0.01444920
vn 0.03626138 0.99892241 -0.02896937
vn 0.05292070 0.99827147 -0.02556497
vn 0.06903680 0.99745202 -0.01798682
vn 0.07526993 0.99700207 -0.01792717
vn 0.05292070 0.99827147 -0.02556497
vn 0.05509416 0.99837667 -0.01444920
vn 0.06903680 0.99745202 -0.01798682
vn 0.07467385 0.99703592 -0.01853076
vn 0.06962852 0.99740005 -0.01858083
vn 0.07467385 0.99703592 -0.01853076
vn 0.04222908 0.99866265 -0.02982927
vn 0.06511291 0.99749732 -0.02755679
vn 0.06473389 0.99778479 -0.01533077
vn 0.06511291 0.99749732 -0.02755679
vn 0.06962852 0.99740005 -0.01858083
vn 0.07526993 0.99700207 -0.01792717
vn 0.06903680 0.99745202 -0.01798682
vn 0.06962852 0.99740005 -0.01858083
vn 0.07467385 0.99703592 -0.01853076
vn 0.07526993 0.99700207 -0.01792717
vn 0.03310382 0.99937719 -0.01222268
vn 0.03626138 0.99892241 -0.02896937
vn 0.05292070 0.99827147 -0.02556497
vn 0.05509416 0.99837667 -0.01444920
vn 0.04080382 0.99909121 -0.01232148
vn 0.04222908 0.99866265 -0.02982927
vn 0.06473389 0.99778479 -0.01533077
vn 0.06511291 0.99749732 -0.02755679
vn -0.68771213 -0.72423512 0.05035422
vn -0.65399182 -0.70721817 0.26858363
vn -0.65399182 -0.70721817 0.26858363
vn -0.90215713 -0.33160725 0.27595174
vn -0.90215713 -0.33160725 0.27595174
vn -0.93987250 -0.33674544 0.05694172
vn 0.36750919 0.92957580 0.02873969
vn 0.37464750 0.89385825 0.24628600
vn 0.37464750 0.89385825 0.24628600
vn 0.67610145 0.69480729 0.24521366
vn 0.67610145 0.69480729 0.24521366
vn 0.68624628 0.72702938 0.02223491
vn -0.36206117 -0.93118370 0.04252967
vn -0.33273667 -0.90685666 0.25864527
vn -0.33273667 -0.90685666 0.25864527
vn 0.00515394 0.99936169 0.03535169
vn 0.02624807 0.96773362 0.25060490
vn 0.02624807 0.96773362 0.25060490
vn 0.36751062 -0.92957520 0.02874027
vn 0.37465248 -0.89385581 0.24628706
vn 0.37465248 -0.89385581 0.24628706
vn 0.02625663 -0.96773249 0.25060856
vn 0.02625663 -0.96773249 0.25060856
vn 0.00516148 -0.99936152 0.03535473
vn -0.36207864 0.93117768 0.04251262
vn -0.33273581 0.90686005 0.25863436
vn -0.33273581 0.90686005 0.25863436
vn 0.68624967 -0.72702616 0.02223511
vn 0.67610323 -0.69480425 0.24521711
vn 0.67610323 -0.69480425 0.24521711
vn -0.68772000 0.72423035 0.05031636
vn -0.65398926 0.70722222 0.26857942
vn -0.65398926 0.70722222 0.26857942
vn 0.94269794 -0.33323103 0.01666727
vn 0.91675431 -0.31771782 0.24210972
vn 0.91675431 -0.31771782 0.24210972
vn -0.93986762 0.33676502 0.05690516
vn -0.90215719 0.33160654 0.27595198
vn -0.90215719 0.33160654 0.27595198
vn 0.99990225 -0.00000047 0.01398230
vn 0.99990225 -0.00000047 0.01398230
vn 0.97039592 -0.00000231 0.24151985
vn 0.97039592 -0.00000231 0.24151985
vn 0.97039592 -0.00000231 0.24151985
vn -0.99838710 0.00002112 0.05677370
vn -0.99838710 0.00002112 0.05677370
vn -0.96258372 -0.00000066 0.27098438
vn -0.96258372 -0.00000066 0.27098438
vn -0.96258372 -0.00000066 0.27098438
vn 0.94269812 0.33323058 0.01666739
vn 0.91675556 0.31771833 0.24210402
vn 0.91675556 0.31771833 0.24210402
vn 0.43214431 0.36584303 0.82426339
vn 0.30738920 0.21612936 0.92671472
vn 0.30738920 0.21612936 0.92671472
vn 0.37845919 0.09610392 0.92061543
vn 0.37845919 0.09610392 0.92061543
vn 0.55106080 0.16256836 0.81847638
vn -0.28042325 -0.39660949 0.87410742
vn -0.10416163 -0.22815655 0.96803671
vn -0.10416163 -0.22815655 0.96803671
vn -0.18680264 -0.10468046 0.97680444
vn -0.18680264 -0.10468046 0.97680444
vn -0.42625579 -0.18439518 0.88560969
vn 0.28036463 0.48203832 0.83008122
vn 0.21766920 0.28397766 0.93379700
vn 0.21766920 0.28397766 0.93379700
vn -0.10139330 -0.50476027 0.85728449
vn -0.00357443 -0.29284528 0.95615321
vn -0.00357443 -0.29284528 0.95615321
vn 0.09538797 0.53195119 0.84138530
vn 0.10938928 0.31134957 0.94397861
vn 0.10938928 0.31134957 0.94397861
vn 0.11205871 -0.00000148 0.99370158
vn -0.10139069 0.50476158 0.85728389
vn -0.00357016 0.29284504 0.95615327
vn -0.00357016 0.29284504 0.95615327
vn 0.09538815 -0.53194827 0.84138715
vn 0.10938885 -0.31135336 0.94397742
vn 0.10938885 -0.31135336 0.94397742
vn 0.43214586 -0.36584368 0.82426244
vn 0.30738831 -0.21613188 0.92671436
vn 0.30738831 -0.21613188 0.92671436
vn 0.21767317 -0.28397715 0.93379623
vn 0.21767317 -0.28397715 0.93379623
vn 0.28036726 -0.48203626 0.83008152
vn -0.28042337 0.39660850 0.87410790
vn -0.10416253 0.22815391 0.96803725
vn -0.10416253 0.22815391 0.96803725
vn 0.55106395 -0.16257033 0.81847388
vn 0.37845904 -0.09610742 0.92061520
vn 0.37845904 -0.09610742 0.92061520
vn -0.42625603 0.18439417 0.88560975
vn -0.18680263 0.10467675 0.97680479
vn -0.18680263 0.10467675 0.97680479
vn 0.57869852 -0.00000224 0.81554168
vn 0.39537686 -0.00000014 0.91851902
vn 0.39537686 -0.00000014 0.91851902
vn -0.46418700 -0.00000050 0.88573730
vn -0.20646614 -0.00000020 0.97845376
vn -0.20646614 -0.00000020 0.97845376
vn -0.49125630 0.58497757 0.64534378
vn -0.22460400 0.74483395 0.62831169
vn 0.76192641 -0.24725154 0.59861082
vn 0.57833111 -0.54986763 0.60264313
vn -0.70281333 0.27446941 0.65629268
vn 0.80287057 -0.00000415 0.59615338
vn -0.75784081 -0.00000065 0.65243948
vn 0.76193005 0.24725033 0.59860671
vn -0.70281309 -0.27447006 0.65629262
vn 0.57832980 0.54987031 0.60264200
vn -0.49125579 -0.58497310 0.64534819
vn 0.34591866 0.71740890 0.60470235
vn -0.22460502 -0.74482423 0.62832272
vn 0.06846856 0.78681403 0.61338061
vn 0.34592375 -0.71740484 0.60470414
vn 0.06847125 -0.78680795 0.61338806
vn 0.67959607 0.73042089 -0.06807867
vn 0.67986465 0.72985584 -0.07137633
vn 0.92595035 0.33230329 -0.17941704
vn 0.92457283 0.33126664 -0.18822230
vn 0.68144053 0.72711617 -0.08331230
vn 0.68503290 0.72718924 -0.04388361
vn 0.94004607 0.33564502 -0.06046408
vn 0.93426150 0.32610154 -0.14426842
vn 0.68627644 0.72732806 0.00432242
vn 0.94227338 0.33480278 -0.00530733
vn -0.96971273 -0.20169850 -0.13775034
vn -0.95416367 -0.28009704 -0.10543936
vn -0.97990662 0.05588698 -0.19146708
vn -0.97990662 0.05588698 -0.19146708
vn -0.95777363 0.14454077 -0.24855152
vn -0.95777363 0.14454077 -0.24855152
vn -0.94593465 -0.32407597 0.01350466
vn -0.93701476 -0.34008148 0.07967386
vn -0.99632633 0.00032393 0.08563814
vn -0.99632633 0.00032393 0.08563814
vn -0.99986696 0.00979123 -0.01304858
vn -0.99986696 0.00979123 -0.01304858
vn -0.93963110 -0.33601087 0.06473087
vn -0.99783677 0.00007572 0.06574101
vn -0.99783677 0.00007572 0.06574101
vn 0.97076261 -0.00558387 -0.23997699
vn 0.97076261 -0.00558387 -0.23997699
vn 0.96692836 -0.00367129 -0.25502184
vn 0.96692836 -0.00367129 -0.25502184
vn 0.99794972 -0.00052092 -0.06400117
vn 0.99794972 -0.00052092 -0.06400117
vn 0.98500919 -0.00614345 -0.17239285
vn 0.98500919 -0.00614345 -0.17239285
vn 0.99996024 -0.00000049 -0.00892130
vn 0.99996024 -0.00000049 -0.00892130
vn -0.90790462 0.31668529 -0.27462646
vn -0.86636877 0.34029073 -0.36552367
vn -0.93686914 0.34054011 0.07942684
vn -0.94310212 0.32945010 -0.04495733
vn -0.93961066 0.33608252 0.06465686
vn 0.89877445 -0.34207153 -0.27421075
vn 0.89921951 -0.32704917 -0.29059124
vn 0.93974376 -0.33638927 -0.06102435
vn 0.91719407 -0.35133612 -0.18793124
vn 0.94227320 -0.33480322 -0.00530742
vn -0.71659970 0.63996255 -0.27736759
vn -0.72383112 0.58435905 -0.36686933
vn -0.67986625 0.73123300 0.05549933
vn -0.70698118 0.70398974 -0.06764679
vn -0.68642455 0.72520560 0.05383636
vn 0.63574719 -0.72556508 -0.26340249
vn 0.65057415 -0.70475513 -0.28297257
vn 0.68474996 -0.72740763 -0.04467320
vn 0.65572762 -0.73583585 -0.16901763
vn 0.68628085 -0.72732383 0.00432207
vn -0.45049900 0.87586021 -0.17297271
vn -0.51469064 0.82837206 -0.22111833
vn -0.35803461 0.93328589 0.02808511
vn -0.39594379 0.91674215 -0.05303385
vn -0.36274722 0.93099034 0.04088380
vn 0.32265350 -0.92246342 -0.21202821
vn 0.34569699 -0.90937221 -0.23137800
vn 0.36461610 -0.93085313 -0.02382503
vn 0.33759311 -0.93245357 -0.12869090
vn 0.36594069 -0.93050086 0.01599096
vn -0.06035230 0.99718064 -0.04459273
vn -0.12357327 0.99116522 -0.04817872
vn 0.00356652 0.99999297 0.00117083
vn -0.02152779 0.99923390 -0.03268352
vn 0.00286158 0.99959922 0.02816494
vn -0.01288965 -0.98690140 -0.16080898
vn -0.02868553 -0.98904890 -0.14477442
vn -0.39019182 -0.91676265 -0.08542035
vn -0.40061474 -0.91108441 -0.09712376
vn -0.01669873 -0.99682218 -0.07788972
vn 0.00369956 -0.99999285 0.00086682
vn -0.35789055 -0.93333733 0.02821350
vn -0.37303811 -0.92738420 -0.02830428
vn 0.00287941 -0.99959898 0.02817198
vn -0.36269832 -0.93100792 0.04091786
vn 0.34721711 0.93770880 -0.01194397
vn 0.32449973 0.94588584 0.00006666
vn 0.36464068 0.93086046 -0.02315465
vn 0.35543123 0.93374234 -0.04235520
vn 0.36593986 0.93050116 0.01599048
vn -0.71870965 -0.69228894 -0.06474907
vn -0.75531667 -0.65053368 -0.07939008
vn -0.67991596 -0.73115939 0.05585912
vn -0.69359815 -0.72034007 0.00563981
vn -0.68640208 -0.72522122 0.05391150
vn -0.68511319 -0.72644293 0.05385844
vn -0.93961900 -0.33604300 0.06474122
vn 0.36667913 0.93021041 0.01596811
vn 0.68756688 0.72610855 0.00427717
vn -0.36196366 -0.93129510 0.04088877
vn 0.00304617 0.99959886 0.02815717
vn 0.36668175 -0.93020940 0.01597225
vn 0.00307612 -0.99959856 0.02816763
vn -0.36204252 0.93126601 0.04085265
vn 0.68757147 -0.72610414 0.00427986
vn -0.68514669 0.72641689 0.05378295
vn 0.94228864 -0.33475959 -0.00532436
vn -0.93957895 0.33616903 0.06466722
vn 0.99996036 -0.00000050 -0.00891438
vn 0.99996036 -0.00000050 -0.00891438
vn -0.99783748 0.00012789 0.06572983
vn -0.99783748 0.00012789 0.06572983
vn 0.94228834 0.33476019 -0.00532556
vn -0.68528068 -0.72456717 -0.07343552
vn -0.95923442 -0.25749844 -0.11646459
vn 0.41356570 0.91044891 -0.00680808
vn 0.74075520 0.66565704 -0.09045748
vn -0.29702249 -0.94842654 -0.11074615
vn -0.04082543 0.99902433 -0.01684608
vn 0.41187346 -0.87826091 -0.24293618
vn 0.08227181 -0.98049581 -0.17849214
vn -0.50061774 0.84623718 -0.18238620
vn 0.68013096 -0.67501879 -0.28595710
vn -0.72899628 0.58178467 -0.36068150
vn 0.89465392 -0.33886173 -0.29114807
vn -0.85890579 0.36378998 -0.36046880
vn 0.96626282 -0.01667308 -0.25701800
vn 0.96626282 -0.01667308 -0.25701800
vn -0.95720375 0.17785744 -0.22831517
vn -0.95720375 0.17785744 -0.22831517
vn 0.94754142 0.24179745 -0.20904414
vn -0.68294728 -0.72898233 0.04656063
vn -0.65399176 -0.70721811 0.26858392
vn -0.65399176 -0.70721811 0.26858392
vn -0.90274739 -0.33055472 0.27528343
vn -0.90274739 -0.33055472 0.27528343
vn -0.90274739 -0.33055472 0.27528343
vn -0.90274739 -0.33055472 0.27528343
vn -0.93943596 -0.33916149 0.04929190
vn -0.93943596 -0.33916149 0.04929190
vn 0.37821293 0.92479312 0.04138661
vn 0.37464753 0.89385825 0.24628602
vn 0.37464753 0.89385825 0.24628602
vn 0.67610145 0.69480729 0.24521370
vn 0.67610145 0.69480729 0.24521370
vn 0.69227093 0.72050858 0.04035316
vn -0.35223091 -0.93488783 0.04379875
vn -0.33273670 -0.90685666 0.25864539
vn -0.33273670 -0.90685666 0.25864539
vn 0.01760151 0.99895161 0.04226090
vn 0.02624820 0.96773356 0.25060493
vn 0.02624820 0.96773356 0.25060493
vn 0.37821665 -0.92479146 0.04138723
vn 0.37465265 -0.89385575 0.24628711
vn 0.37465265 -0.89385575 0.24628711
vn 0.02625679 -0.96773243 0.25060859
vn 0.02625679 -0.96773243 0.25060859
vn 0.01760511 -0.99895161 0.04225918
vn -0.35223091 0.93488765 0.04380091
vn -0.33273563 0.90685999 0.25863484
vn -0.33273563 0.90685999 0.25863484
vn 0.69227314 -0.72050643 0.04035394
vn 0.67610329 -0.69480425 0.24521722
vn 0.67610329 -0.69480425 0.24521722
vn -0.68294358 0.72898573 0.04656157
vn -0.65398914 0.70722204 0.26858014
vn -0.65398914 0.70722204 0.26858014
vn 0.94419545 -0.32700107 0.03956303
vn 0.91675425 -0.31771782 0.24210972
vn 0.91675425 -0.31771782 0.24210972
vn -0.93943590 0.33916143 0.04929198
vn -0.93943590 0.33916143 0.04929198
vn -0.90274692 0.33055457 0.27528512
vn -0.90274692 0.33055457 0.27528512
vn -0.90274692 0.33055457 0.27528512
vn -0.90274692 0.33055457 0.27528512
vn 0.99931043 -0.00000045 0.03713284
vn 0.99931043 -0.00000045 0.03713284
vn 0.97039592 -0.00000230 0.24151990
vn 0.97039592 -0.00000230 0.24151990
vn 0.97039592 -0.00000230 0.24151990
vn -0.99997383 -0.00002004 0.00723857
vn -0.99997383 -0.00002004 0.00723857
vn 0.94419575 0.32700056 0.03956309
vn 0.91675562 0.31771830 0.24210408
vn 0.91675562 0.31771830 0.24210408
vn 0.43214440 0.36584312 0.82426333
vn 0.30738929 0.21612920 0.92671466
vn 0.37845898 0.09610380 0.92061549
vn 0.55106086 0.16256838 0.81847632
vn -0.28042319 -0.39660934 0.87410748
vn -0.10416163 -0.22815631 0.96803671
vn -0.18680272 -0.10468063 0.97680444
vn -0.42625603 -0.18439528 0.88560957
vn 0.28036469 0.48203838 0.83008111
vn 0.21766919 0.28397766 0.93379700
vn -0.10139325 -0.50476015 0.85728443
vn -0.00357435 -0.29284504 0.95615333
vn 0.09538805 0.53195125 0.84138525
vn 0.10938913 0.31134951 0.94397855
vn 0.11205874 -0.00000151 0.99370158
vn -0.10139053 0.50476146 0.85728401
vn -0.00357017 0.29284495 0.95615327
vn 0.09538813 -0.53194827 0.84138703
vn 0.10938880 -0.31135339 0.94397742
vn 0.43214586 -0.36584368 0.82426232
vn 0.30738842 -0.21613170 0.92671442
vn 0.21767324 -0.28397733 0.93379623
vn 0.28036731 -0.48203626 0.83008152
vn -0.28042334 0.39660820 0.87410796
vn -0.10416252 0.22815400 0.96803725
vn 0.55106395 -0.16257040 0.81847388
vn 0.37845889 -0.09610732 0.92061526
vn -0.42625600 0.18439417 0.88560975
vn -0.18680277 0.10467692 0.97680473
vn 0.57869852 -0.00000223 0.81554157
vn 0.39537683 -0.00000024 0.91851902
vn -0.46418709 -0.00000055 0.88573724
vn -0.20646638 -0.00000042 0.97845370
vn -0.49125585 0.58497697 0.64534467
vn -0.22460364 0.74483353 0.62831229
vn 0.76192653 -0.24725157 0.59861076
vn 0.57833117 -0.54986757 0.60264319
vn -0.70281309 0.27446935 0.65629297
vn 0.80287063 -0.00000413 0.59615320
vn -0.75784093 -0.00000068 0.65243930
vn 0.76193005 0.24725032 0.59860665
vn -0.70281279 -0.27447003 0.65629292
vn 0.57832980 0.54987031 0.60264194
vn -0.49125555 -0.58497280 0.64534861
vn 0.34591866 0.71740890 0.60470229
vn -0.22460493 -0.74482423 0.62832290
vn 0.06846871 0.78681403 0.61338061
vn 0.34592384 -0.71740478 0.60470414
vn 0.06847130 -0.78680801 0.61338812
vn -0.99885541 -0.00000000 0.04783171
vn -0.99885541 -0.00000000 0.04783171
vn -0.97450453 0.00002158 -0.22436781
vn -0.97450453 0.00002158 -0.22436781
vn -0.97450453 0.00002158 -0.22436781
vt 0.22389224 0.26042825
vt 0.19418688 0.26042825
vt 0.22389224 0.29013360
vt 0.19418688 0.29013360
vt 0.21507347 0.26042825
vt 0.21507347 0.26042825
vt 0.21507347 0.29013360
vt 0.21507347 0.29013360
vt 0.20444368 0.26042825
vt 0.20444368 0.26042825
vt 0.20444368 0.29013360
vt 0.20444368 0.29013360
vt 0.22389224 0.27528095
vt 0.22389224 0.27528095
vt 0.19931529 0.26042825
vt 0.19931529 0.26042825
vt 0.19418688 0.27528095
vt 0.19418688 0.27528095
vt 0.21948282 0.29013360
vt 0.21948282 0.29013360
vt 0.21948282 0.26042825
vt 0.21948282 0.26042825
vt 0.20975856 0.29013360
vt 0.20975856 0.29013360
vt 0.21507347 0.27528095
vt 0.21507347 0.27528095
vt 0.21507347 0.27528095
vt 0.21507347 0.27528095
vt 0.20975856 0.26042825
vt 0.20975856 0.26042825
vt 0.19931531 0.29013360
vt 0.19931531 0.29013360
vt 0.20444368 0.27528095
vt 0.20444368 0.27528095
vt 0.20444368 0.27528095
vt 0.20444368 0.27528095
vt 0.20975856 0.27528095
vt 0.20975856 0.27528095
vt 0.20975856 0.27528095
vt 0.20975856 0.27528095
vt 0.21948282 0.27528095
vt 0.21948282 0.27528095
vt 0.21948282 0.27528095
vt 0.21948282 0.27528095
vt 0.19931531 0.27528095
vt 0.19931531 0.27528095
vt 0.19931531 0.27528095
vt 0.19931531 0.27528095
vt 0.85044247 0.43360311
vt 0.85095805 0.43530202
vt 0.84969431 0.43357897
vt 0.85118818 0.43518847
vt 0.84968543 0.43335360
vt 0.85043502 0.43336558
vt 0.85489202 0.43385309
vt 0.85188824 0.43619829
vt 0.85563415 0.43390661
vt 0.85171205 0.43639380
vt 0.85562980 0.43367177
vt 0.85488588 0.43361098
vt 0.85045385 0.43384469
vt 0.85078710 0.43549722
vt 0.84970683 0.43380916
vt 0.85490328 0.43409806
vt 0.85198081 0.43594843
vt 0.85564458 0.43414348
vt 0.85047841 0.43433619
vt 0.84973097 0.43428367
vt 0.85071152 0.43601286
vt 0.84972012 0.43404484
vt 0.85070020 0.43574661
vt 0.85046685 0.43408990
vt 0.85491639 0.43434179
vt 0.85197484 0.43568444
vt 0.85565776 0.43437719
vt 0.85048527 0.43457955
vt 0.84973586 0.43452054
vt 0.85081899 0.43625301
vt 0.85492802 0.43458158
vt 0.85187221 0.43544608
vt 0.85567009 0.43460542
vt 0.85048449 0.43481791
vt 0.85100287 0.43642777
vt 0.84973150 0.43475121
vt 0.85493571 0.43481719
vt 0.85168815 0.43526727
vt 0.85567886 0.43482888
vt 0.85490489 0.43314528
vt 0.85046893 0.43504870
vt 0.85565609 0.43322510
vt 0.85123861 0.43649435
vt 0.84971076 0.43497109
vt 0.85043496 0.43313420
vt 0.85493588 0.43504637
vt 0.84968454 0.43313420
vt 0.85144442 0.43518847
vt 0.85567975 0.43504637
vt 0.85488790 0.43337411
vt 0.85148335 0.43650347
vt 0.85563475 0.43344301
vt 0.85156554 0.43614590
vt 0.85144150 0.43594533
vt 0.42926899 0.72933304
vt 0.85138351 0.43597496
vt 0.42521900 0.73140299
vt 0.85143006 0.43621570
vt 0.85112709 0.43550217
vt 0.85125411 0.43567002
vt 0.41617799 0.71010303
vt 0.42015600 0.70813000
vt 0.85131103 0.43564177
vt 0.85126060 0.43543875
vt 0.85166711 0.43602717
vt 0.85148472 0.43589473
vt 0.43228701 0.72579700
vt 0.85102522 0.43561459
vt 0.85121059 0.43571836
vt 0.41313899 0.71348000
vt 0.85171854 0.43587822
vt 0.43381399 0.72135699
vt 0.85150653 0.43583113
vt 0.42270201 0.71941197
vt 0.85171223 0.43572283
vt 0.43362701 0.71670902
vt 0.85150391 0.43576461
vt 0.85097134 0.43576050
vt 0.85118753 0.43578088
vt 0.41153100 0.71784604
vt 0.85103464 0.43606222
vt 0.41340300 0.72683203
vt 0.85121435 0.43590951
vt 0.85118884 0.43584806
vt 0.41161901 0.72254002
vt 0.85097450 0.43591803
vt 0.85164988 0.43558455
vt 0.43177399 0.71256101
vt 0.85147738 0.43570518
vt 0.85114205 0.43617028
vt 0.41661999 0.73004800
vt 0.85126042 0.43595558
vt 0.85154229 0.43548310
vt 0.85143185 0.43566084
vt 0.42859501 0.70946002
vt 0.85128450 0.43620300
vt 0.42087600 0.73100102
vt 0.85132134 0.43596923
vt 0.85140347 0.43544811
vt 0.42442301 0.70849597
vt 0.85137212 0.43564701
vt 0.85177803 0.43550342
vt 0.85186476 0.43569940
vt 0.85105830 0.43632495
vt 0.85090703 0.43617588
vt 0.85162586 0.43535942
vt 0.85125732 0.43637532
vt 0.85142660 0.43530124
vt 0.85146224 0.43638861
vt 0.85121912 0.43529528
vt 0.85165203 0.43629330
vt 0.85103005 0.43538553
vt 0.85179716 0.43612808
vt 0.85088724 0.43554538
vt 0.85187203 0.43591881
vt 0.85081977 0.43597406
vt 0.85081291 0.43575191
vt 0.85293651 0.43366092
vt 0.85318375 0.43361598
vt 0.85311908 0.43338788
vt 0.85281193 0.43345708
vt 0.85338444 0.43358833
vt 0.85407031 0.43357360
vt 0.85406560 0.43333268
vt 0.85335529 0.43334687
vt 0.85447812 0.43359226
vt 0.85447675 0.43335342
vt 0.85209841 0.43344247
vt 0.85190535 0.43341064
vt 0.85347807 0.43499899
vt 0.85190803 0.43318462
vt 0.85332239 0.43497097
vt 0.85206342 0.43321705
vt 0.85175651 0.43339401
vt 0.85127074 0.43338126
vt 0.85127783 0.43314034
vt 0.85410196 0.43504113
vt 0.85360926 0.43501800
vt 0.85177714 0.43316531
vt 0.85085291 0.43337339
vt 0.85085642 0.43313730
vt 0.85451889 0.43504375
vt 0.85231054 0.43502367
vt 0.85308212 0.43316358
vt 0.85267603 0.43499464
vt 0.85272831 0.43324834
vt 0.85131401 0.43508953
vt 0.85406798 0.43309635
vt 0.85203636 0.43503881
vt 0.85334808 0.43311518
vt 0.85089141 0.43506908
vt 0.85448641 0.43312085
vt 0.85353142 0.43478274
vt 0.85341179 0.43476552
vt 0.85410744 0.43480504
vt 0.85363430 0.43479210
vt 0.85452157 0.43481112
vt 0.85228270 0.43479902
vt 0.85268557 0.43476903
vt 0.85131031 0.43485165
vt 0.85199946 0.43481147
vt 0.85089737 0.43483478
vt 0.85351151 0.43455690
vt 0.85340703 0.43453592
vt 0.85410666 0.43456137
vt 0.85360843 0.43456751
vt 0.85451734 0.43457150
vt 0.85223317 0.43456787
vt 0.85264415 0.43453860
vt 0.85130107 0.43461138
vt 0.85195148 0.43458235
vt 0.85089320 0.43459547
vt 0.85344970 0.43432528
vt 0.85334045 0.43430322
vt 0.85410035 0.43431503
vt 0.85355628 0.43433434
vt 0.85450834 0.43432844
vt 0.85216987 0.43433374
vt 0.85256535 0.43430954
vt 0.85129046 0.43436849
vt 0.85190076 0.43434852
vt 0.85088444 0.43435234
vt 0.85336113 0.43408799
vt 0.85322183 0.43407875
vt 0.85409009 0.43406636
vt 0.85349190 0.43408930
vt 0.85449666 0.43408221
vt 0.85245639 0.43408507
vt 0.85209703 0.43409824
vt 0.85202163 0.43386489
vt 0.85232991 0.43386799
vt 0.85185063 0.43410903
vt 0.85128051 0.43412209
vt 0.85127300 0.43387401
vt 0.85180581 0.43386728
vt 0.85087371 0.43410599
vt 0.85086346 0.43385935
vt 0.85326713 0.43384957
vt 0.85307878 0.43386614
vt 0.85407907 0.43381828
vt 0.85343105 0.43383747
vt 0.85448551 0.43383569
vt 0.85195333 0.43363607
vt 0.85220313 0.43365651
vt 0.85126954 0.43362683
vt 0.85177171 0.43362814
vt 0.85085601 0.43361497
vt 0.85106277 0.43362093
vt 0.85106188 0.43337739
vt 0.85428226 0.43382698
vt 0.85427415 0.43358296
vt 0.85106826 0.43386668
vt 0.85429335 0.43407428
vt 0.85108745 0.43436038
vt 0.85107714 0.43411404
vt 0.85430431 0.43432170
vt 0.85109711 0.43460339
vt 0.85431194 0.43456644
vt 0.85110384 0.43484318
vt 0.85431451 0.43480808
vt 0.85110271 0.43507928
vt 0.85427719 0.43310857
vt 0.85106707 0.43313879
vt 0.85431045 0.43504244
vt 0.85427117 0.43334305
vt 0.85245299 0.43367702
vt 0.85229146 0.43347430
vt 0.85289037 0.43388271
vt 0.85268933 0.43370593
vt 0.85263819 0.43387115
vt 0.85308254 0.43406951
vt 0.85296088 0.43428528
vt 0.85281581 0.43407196
vt 0.85323131 0.43428117
vt 0.85305506 0.43450934
vt 0.85330242 0.43451494
vt 0.85308838 0.43473905
vt 0.85329217 0.43474835
vt 0.85304147 0.43496555
vt 0.85237437 0.43333316
vt 0.85316664 0.43494296
vt 0.85221875 0.43324941
vt 0.85250473 0.43352628
vt 0.33699793 0.73147529
vt 0.33809212 0.73151064
vt 0.33624393 0.72899073
vt 0.30661100 0.54830199
vt 0.33810499 0.73184025
vt 0.33810499 0.73184025
vt 0.33590731 0.72915679
vt 0.33700886 0.73182273
vt 0.33700886 0.73182273
vt 0.33049071 0.73110980
vt 0.32940528 0.73103142
vt 0.33488357 0.72767997
vt 0.32941163 0.73137498
vt 0.33514118 0.72739410
vt 0.33049956 0.73146391
vt 0.33698121 0.73112208
vt 0.33807376 0.73117399
vt 0.33649388 0.72870523
vt 0.33047423 0.73075151
vt 0.32939005 0.73068511
vt 0.33474809 0.72804540
vt 0.33694544 0.73040330
vt 0.33660454 0.72795123
vt 0.33803847 0.73048007
vt 0.33662096 0.72834051
vt 0.33805424 0.73082930
vt 0.33696222 0.73076344
vt 0.33045498 0.73039502
vt 0.32937083 0.73034328
vt 0.33475691 0.72843146
vt 0.33693531 0.73004729
vt 0.33644733 0.72759992
vt 0.33803132 0.73013365
vt 0.33043796 0.73004431
vt 0.32935265 0.73000950
vt 0.33490694 0.72878003
vt 0.33693650 0.72969872
vt 0.33803767 0.72979629
vt 0.33617836 0.72734439
vt 0.33042675 0.72969979
vt 0.33042675 0.72969979
vt 0.32933995 0.72968268
vt 0.32933995 0.72968268
vt 0.33517614 0.72904158
vt 0.72524101 0.65135199
vt 0.33695921 0.72936124
vt 0.33047181 0.73214483
vt 0.33806801 0.72947472
vt 0.33583358 0.72724700
vt 0.32937315 0.73202813
vt 0.42947000 0.67646801
vt 0.33553267 0.72915679
vt 0.33049664 0.73181021
vt 0.32940438 0.73170948
vt 0.33547559 0.72723365
vt 0.33535549 0.72775656
vt 0.33553681 0.72804993
vt 0.33562163 0.72800660
vt 0.33555359 0.72765452
vt 0.33599669 0.72869807
vt 0.33581099 0.72845256
vt 0.33572766 0.72849387
vt 0.33580139 0.72879082
vt 0.33520696 0.72793025
vt 0.33547363 0.72812396
vt 0.33614570 0.72853369
vt 0.33587465 0.72838187
vt 0.33513168 0.72814804
vt 0.33544168 0.72821695
vt 0.33567432 0.72825766
vt 0.33514100 0.72837532
vt 0.33544564 0.72831422
vt 0.33622447 0.72832024
vt 0.33590820 0.72829044
vt 0.33613184 0.72787893
vt 0.33586901 0.72810227
vt 0.33590642 0.72819215
vt 0.33621985 0.72808987
vt 0.33523214 0.72857755
vt 0.33548436 0.72840106
vt 0.33597475 0.72772092
vt 0.33580169 0.72803497
vt 0.33538947 0.72872591
vt 0.33555096 0.72846603
vt 0.33576649 0.72767311
vt 0.33571261 0.72801501
vt 0.33559245 0.72877711
vt 0.33563834 0.72848618
vt 0.33504474 0.72869623
vt 0.33491790 0.72840959
vt 0.33609733 0.72749478
vt 0.33631855 0.72771275
vt 0.33526731 0.72890681
vt 0.33580619 0.72742110
vt 0.33555862 0.72899187
vt 0.33550647 0.72740167
vt 0.33586204 0.72900057
vt 0.33522895 0.72754103
vt 0.33613861 0.72886860
vt 0.33501670 0.72778261
vt 0.33634746 0.72863483
vt 0.33490729 0.72808874
vt 0.33644617 0.72800791
vt 0.33645618 0.72833282
vt 0.33371782 0.73076123
vt 0.33371782 0.73076123
vt 0.33372244 0.73076147
vt 0.51592600 0.59982699
vt 0.33372244 0.73076147
f 118/118/118 122/122/122 109/109/109
f 120/120/120 122/122/122 115/115/115
f 133/133/133 122/122/122 128/128/128
f 128/128/128 122/122/122 118/118/118
f 124/124/124 122/122/122 120/120/120
f 130/130/130 122/122/122 133/133/133
f 136/136/136 122/122/122 124/124/124
f 139/139/139 122/122/122 130/130/130
f 143/143/143 122/122/122 136/136/136
f 145/145/145 122/122/122 139/139/139
f 148/148/148 122/122/122 143/143/143
f 105/105/105 122/122/122 145/145/145
f 110/110/110 122/122/122 148/148/148
f 103/103/103 122/122/122 105/105/105
f 109/109/109 122/122/122 110/110/110
f 115/115/115 122/122/122 103/103/103
f 358/358/358 361/361/361 352/352/352
f 360/360/360 361/361/361 356/356/356
f 368/368/368 361/361/361 365/365/365
f 365/365/365 361/361/361 358/358/358
f 363/363/363 361/361/361 360/360/360
f 367/367/367 361/361/361 368/368/368
f 371/371/371 361/361/361 363/363/363
f 373/373/373 361/361/361 367/367/367
f 375/375/375 361/361/361 371/371/371
f 377/377/377 361/361/361 373/373/373
f 379/379/379 361/361/361 375/375/375
f 349/349/349 361/361/361 377/377/377
f 353/353/353 361/361/361 379/379/379
f 348/348/348 361/361/361 349/349/349
f 352/352/352 361/361/361 353/353/353
f 356/356/356 361/361/361 348/348/348
f 342/342/342 336/336/336 399/399/399
f 295/295/295 342/342/342 399/399/399
f 46/46/46 18/18/18 4/4/4
f 46/46/46 4/4/4 31/31/31
f 44/44/44 26/26/26 7/7/7
f 44/44/44 7/7/7 20/20/20
f 40/40/40 36/36/36 12/12/12
f 40/40/40 12/12/12 24/24/24
f 27/27/27 37/37/37 23/23/23
f 27/27/27 23/23/23 8/8/8
f 6/6/6 30/30/30 39/39/39
f 6/6/6 39/39/39 28/28/28
f 29/29/29 10/10/10 35/35/35
f 29/29/29 35/35/35 38/38/38
f 13/13/13 41/41/41 19/19/19
f 13/13/13 19/19/19 3/3/3
f 1/1/1 21/21/21 42/42/42
f 1/1/1 42/42/42 14/14/14
f 22/22/22 5/5/5 25/25/25
f 22/22/22 25/25/25 43/43/43
f 34/34/34 48/48/48 32/32/32
f 34/34/34 32/32/32 11/11/11
f 9/9/9 16/16/16 47/47/47
f 9/9/9 47/47/47 33/33/33
f 15/15/15 2/2/2 17/17/17
f 15/15/15 17/17/17 45/45/45
f 49/49/49 51/51/51 53/53/53
f 49/49/49 53/53/53 54/54/54
f 55/55/55 57/57/57 59/59/59
f 55/55/55 59/59/59 60/60/60
f 61/61/61 63/63/63 51/51/51
f 61/61/61 51/51/51 49/49/49
f 64/64/64 66/66/66 57/57/57
f 64/64/64 57/57/57 55/55/55
f 67/67/67 68/68/68 70/70/70
f 67/67/67 70/70/70 72/72/72
f 72/72/72 70/70/70 63/63/63
f 72/72/72 63/63/63 61/61/61
f 73/73/73 75/75/75 66/66/66
f 73/73/73 66/66/66 64/64/64
f 76/76/76 77/77/77 68/68/68
f 76/76/76 68/68/68 67/67/67
f 79/79/79 81/81/81 75/75/75
f 79/79/79 75/75/75 73/73/73
f 82/82/82 84/84/84 77/77/77
f 82/82/82 77/77/77 76/76/76
f 85/85/85 87/87/87 81/81/81
f 85/85/85 81/81/81 79/79/79
f 89/89/89 92/92/92 84/84/84
f 89/89/89 84/84/84 82/82/82
f 94/94/94 97/97/97 87/87/87
f 94/94/94 87/87/87 85/85/85
f 98/98/98 100/100/100 90/90/90
f 98/98/98 90/90/90 88/88/88
f 54/54/54 53/53/53 95/95/95
f 54/54/54 95/95/95 93/93/93
f 60/60/60 59/59/59 100/100/100
f 60/60/60 100/100/100 98/98/98
f 101/101/101 102/102/102 104/104/104
f 101/101/101 104/104/104 106/106/106
f 107/107/107 108/108/108 111/111/111
f 107/107/107 111/111/111 112/112/112
f 113/113/113 114/114/114 102/102/102
f 113/113/113 102/102/102 101/101/101
f 116/116/116 117/117/117 108/108/108
f 116/116/116 108/108/108 107/107/107
f 119/119/119 121/121/121 114/114/114
f 119/119/119 114/114/114 113/113/113
f 123/123/123 125/125/125 121/121/121
f 123/123/123 121/121/121 119/119/119
f 126/126/126 127/127/127 117/117/117
f 126/126/126 117/117/117 116/116/116
f 129/129/129 131/131/131 132/132/132
f 129/129/129 132/132/132 134/134/134
f 135/135/135 137/137/137 125/125/125
f 135/135/135 125/125/125 123/123/123
f 138/138/138 140/140/140 131/131/131
f 138/138/138 131/131/131 129/129/129
f 141/141/141 142/142/142 137/137/137
f 141/141/141 137/137/137 135/135/135
f 144/144/144 146/146/146 140/140/140
f 144/144/144 140/140/140 138/138/138
f 147/147/147 149/149/149 142/142/142
f 147/147/147 142/142/142 141/141/141
f 106/106/106 104/104/104 146/146/146
f 106/106/106 146/146/146 144/144/144
f 112/112/112 111/111/111 149/149/149
f 112/112/112 149/149/149 147/147/147
f 80/80/80 150/150/150 151/151/151
f 80/80/80 151/151/151 74/74/74
f 83/83/83 152/152/152 153/153/153
f 83/83/83 153/153/153 78/78/78
f 86/86/86 154/154/154 150/150/150
f 86/86/86 150/150/150 80/80/80
f 91/91/91 155/155/155 152/152/152
f 91/91/91 152/152/152 83/83/83
f 96/96/96 156/156/156 154/154/154
f 96/96/96 154/154/154 86/86/86
f 99/99/99 157/157/157 155/155/155
f 99/99/99 155/155/155 91/91/91
f 52/52/52 158/158/158 156/156/156
f 52/52/52 156/156/156 96/96/96
f 58/58/58 159/159/159 157/157/157
f 58/58/58 157/157/157 99/99/99
f 50/50/50 160/160/160 158/158/158
f 50/50/50 158/158/158 52/52/52
f 56/56/56 161/161/161 159/159/159
f 56/56/56 159/159/159 58/58/58
f 62/62/62 162/162/162 160/160/160
f 62/62/62 160/160/160 50/50/50
f 65/65/65 163/163/163 161/161/161
f 65/65/65 161/161/161 56/56/56
f 69/69/69 164/164/164 165/165/165
f 69/69/69 165/165/165 71/71/71
f 71/71/71 165/165/165 162/162/162
f 71/71/71 162/162/162 62/62/62
f 74/74/74 151/151/151 163/163/163
f 74/74/74 163/163/163 65/65/65
f 78/78/78 153/153/153 164/164/164
f 78/78/78 164/164/164 69/69/69
f 164/164/164 134/134/134 126/126/126
f 164/164/164 126/126/126 165/165/165
f 153/153/153 129/129/129 134/134/134
f 153/153/153 134/134/134 164/164/164
f 152/152/152 138/138/138 129/129/129
f 152/152/152 129/129/129 153/153/153
f 155/155/155 144/144/144 138/138/138
f 155/155/155 138/138/138 152/152/152
f 157/157/157 106/106/106 144/144/144
f 157/157/157 144/144/144 155/155/155
f 159/159/159 101/101/101 106/106/106
f 159/159/159 106/106/106 157/157/157
f 161/161/161 113/113/113 101/101/101
f 161/161/161 101/101/101 159/159/159
f 163/163/163 119/119/119 113/113/113
f 163/163/163 113/113/113 161/161/161
f 151/151/151 123/123/123 119/119/119
f 151/151/151 119/119/119 163/163/163
f 150/150/150 135/135/135 123/123/123
f 150/150/150 123/123/123 151/151/151
f 154/154/154 141/141/141 135/135/135
f 154/154/154 135/135/135 150/150/150
f 156/156/156 147/147/147 141/141/141
f 156/156/156 141/141/141 154/154/154
f 158/158/158 112/112/112 147/147/147
f 158/158/158 147/147/147 156/156/156
f 160/160/160 107/107/107 112/112/112
f 160/160/160 112/112/112 158/158/158
f 162/162/162 116/116/116 107/107/107
f 162/162/162 107/107/107 160/160/160
f 165/165/165 126/126/126 116/116/116
f 165/165/165 116/116/116 162/162/162
f 134/134/134 132/132/132 127/127/127
f 134/134/134 127/127/127 126/126/126
f 166/166/166 167/167/167 168/168/168
f 166/166/166 168/168/168 169/169/169
f 170/170/170 171/171/171 172/172/172
f 170/170/170 172/172/172 173/173/173
f 174/174/174 60/60/60 98/98/98
f 174/174/174 98/98/98 175/175/175
f 176/176/176 177/177/177 179/179/179
f 176/176/176 179/179/179 181/181/181
f 182/182/182 183/183/183 184/184/184
f 182/182/182 184/184/184 187/187/187
f 188/188/188 54/54/54 93/93/93
f 188/188/188 93/93/93 189/189/189
f 169/169/169 168/168/168 192/192/192
f 169/169/169 192/192/192 194/194/194
f 173/173/173 172/172/172 196/196/196
f 173/173/173 196/196/196 198/198/198
f 175/175/175 98/98/98 88/88/88
f 175/175/175 88/88/88 200/200/200
f 180/180/180 178/178/178 201/201/201
f 180/180/180 201/201/201 202/202/202
f 186/186/186 185/185/185 203/203/203
f 186/186/186 203/203/203 204/204/204
f 190/190/190 94/94/94 85/85/85
f 190/190/190 85/85/85 205/205/205
f 193/193/193 191/191/191 206/206/206
f 193/193/193 206/206/206 207/207/207
f 197/197/197 195/195/195 208/208/208
f 197/197/197 208/208/208 209/209/209
f 199/199/199 89/89/89 82/82/82
f 199/199/199 82/82/82 210/210/210
f 202/202/202 201/201/201 211/211/211
f 202/202/202 211/211/211 212/212/212
f 204/204/204 203/203/203 213/213/213
f 204/204/204 213/213/213 214/214/214
f 205/205/205 85/85/85 79/79/79
f 205/205/205 79/79/79 215/215/215
f 207/207/207 206/206/206 216/216/216
f 207/207/207 216/216/216 217/217/217
f 209/209/209 208/208/208 218/218/218
f 209/209/209 218/218/218 219/219/219
f 210/210/210 82/82/82 76/76/76
f 210/210/210 76/76/76 220/220/220
f 212/212/212 211/211/211 221/221/221
f 212/212/212 221/221/221 222/222/222
f 214/214/214 213/213/213 223/223/223
f 214/214/214 223/223/223 224/224/224
f 215/215/215 79/79/79 73/73/73
f 215/215/215 73/73/73 225/225/225
f 217/217/217 216/216/216 226/226/226
f 217/217/217 226/226/226 227/227/227
f 219/219/219 218/218/218 228/228/228
f 219/219/219 228/228/228 229/229/229
f 220/220/220 76/76/76 67/67/67
f 220/220/220 67/67/67 230/230/230
f 222/222/222 221/221/221 231/231/231
f 222/222/222 231/231/231 232/232/232
f 224/224/224 223/223/223 233/233/233
f 224/224/224 233/233/233 234/234/234
f 225/225/225 73/73/73 64/64/64
f 225/225/225 64/64/64 235/235/235
f 236/236/236 237/237/237 238/238/238
f 236/236/236 238/238/238 239/239/239
f 240/240/240 241/241/241 242/242/242
f 240/240/240 242/242/242 243/243/243
f 244/244/244 72/72/72 61/61/61
f 244/244/244 61/61/61 245/245/245
f 227/227/227 226/226/226 237/237/237
f 227/227/227 237/237/237 236/236/236
f 229/229/229 228/228/228 241/241/241
f 229/229/229 241/241/241 240/240/240
f 230/230/230 67/67/67 72/72/72
f 230/230/230 72/72/72 244/244/244
f 232/232/232 231/231/231 246/246/246
f 232/232/232 246/246/246 247/247/247
f 234/234/234 233/233/233 248/248/248
f 234/234/234 248/248/248 249/249/249
f 235/235/235 64/64/64 55/55/55
f 235/235/235 55/55/55 250/250/250
f 239/239/239 238/238/238 251/251/251
f 239/239/239 251/251/251 252/252/252
f 243/243/243 242/242/242 253/253/253
f 243/243/243 253/253/253 254/254/254
f 245/245/245 61/61/61 49/49/49
f 245/245/245 49/49/49 255/255/255
f 247/247/247 246/246/246 167/167/167
f 247/247/247 167/167/167 166/166/166
f 249/249/249 248/248/248 171/171/171
f 249/249/249 171/171/171 170/170/170
f 250/250/250 55/55/55 60/60/60
f 250/250/250 60/60/60 174/174/174
f 252/252/252 251/251/251 177/177/177
f 252/252/252 177/177/177 176/176/176
f 254/254/254 253/253/253 183/183/183
f 254/254/254 183/183/183 182/182/182
f 255/255/255 49/49/49 54/54/54
f 255/255/255 54/54/54 188/188/188
f 251/251/251 254/254/254 182/182/182
f 251/251/251 182/182/182 177/177/177
f 246/246/246 249/249/249 170/170/170
f 246/246/246 170/170/170 167/167/167
f 238/238/238 243/243/243 254/254/254
f 238/238/238 254/254/254 251/251/251
f 231/231/231 234/234/234 249/249/249
f 231/231/231 249/249/249 246/246/246
f 226/226/226 229/229/229 240/240/240
f 226/226/226 240/240/240 237/237/237
f 237/237/237 240/240/240 243/243/243
f 237/237/237 243/243/243 238/238/238
f 221/221/221 224/224/224 234/234/234
f 221/221/221 234/234/234 231/231/231
f 216/216/216 219/219/219 229/229/229
f 216/216/216 229/229/229 226/226/226
f 211/211/211 214/214/214 224/224/224
f 211/211/211 224/224/224 221/221/221
f 206/206/206 209/209/209 219/219/219
f 206/206/206 219/219/219 216/216/216
f 201/201/201 204/204/204 214/214/214
f 201/201/201 214/214/214 211/211/211
f 191/191/191 197/197/197 209/209/209
f 191/191/191 209/209/209 206/206/206
f 178/178/178 186/186/186 204/204/204
f 178/178/178 204/204/204 201/201/201
f 168/168/168 173/173/173 198/198/198
f 168/168/168 198/198/198 192/192/192
f 177/177/177 182/182/182 187/187/187
f 177/177/177 187/187/187 179/179/179
f 167/167/167 170/170/170 173/173/173
f 167/167/167 173/173/173 168/168/168
f 256/256/256 255/255/255 188/188/188
f 256/256/256 188/188/188 257/257/257
f 258/258/258 250/250/250 174/174/174
f 258/258/258 174/174/174 259/259/259
f 260/260/260 245/245/245 255/255/255
f 260/260/260 255/255/255 256/256/256
f 261/261/261 235/235/235 250/250/250
f 261/261/261 250/250/250 258/258/258
f 262/262/262 230/230/230 244/244/244
f 262/262/262 244/244/244 263/263/263
f 263/263/263 244/244/244 245/245/245
f 263/263/263 245/245/245 260/260/260
f 264/264/264 225/225/225 235/235/235
f 264/264/264 235/235/235 261/261/261
f 265/265/265 220/220/220 230/230/230
f 265/265/265 230/230/230 262/262/262
f 266/266/266 215/215/215 225/225/225
f 266/266/266 225/225/225 264/264/264
f 267/267/267 210/210/210 220/220/220
f 267/267/267 220/220/220 265/265/265
f 268/268/268 205/205/205 215/215/215
f 268/268/268 215/215/215 266/266/266
f 269/269/269 199/199/199 210/210/210
f 269/269/269 210/210/210 267/267/267
f 272/272/272 190/190/190 205/205/205
f 272/272/272 205/205/205 268/268/268
f 273/273/273 175/175/175 200/200/200
f 273/273/273 200/200/200 270/270/270
f 257/257/257 188/188/188 189/189/189
f 257/257/257 189/189/189 271/271/271
f 259/259/259 174/174/174 175/175/175
f 259/259/259 175/175/175 273/273/273
f 171/171/171 259/259/259 273/273/273
f 171/171/171 273/273/273 172/172/172
f 183/183/183 257/257/257 271/271/271
f 183/183/183 271/271/271 184/184/184
f 172/172/172 273/273/273 270/270/270
f 172/172/172 270/270/270 196/196/196
f 185/185/185 272/272/272 268/268/268
f 185/185/185 268/268/268 203/203/203
f 195/195/195 269/269/269 267/267/267
f 195/195/195 267/267/267 208/208/208
f 203/203/203 268/268/268 266/266/266
f 203/203/203 266/266/266 213/213/213
f 208/208/208 267/267/267 265/265/265
f 208/208/208 265/265/265 218/218/218
f 213/213/213 266/266/266 264/264/264
f 213/213/213 264/264/264 223/223/223
f 218/218/218 265/265/265 262/262/262
f 218/218/218 262/262/262 228/228/228
f 223/223/223 264/264/264 261/261/261
f 223/223/223 261/261/261 233/233/233
f 241/241/241 263/263/263 260/260/260
f 241/241/241 260/260/260 242/242/242
f 228/228/228 262/262/262 263/263/263
f 228/228/228 263/263/263 241/241/241
f 233/233/233 261/261/261 258/258/258
f 233/233/233 258/258/258 248/248/248
f 242/242/242 260/260/260 256/256/256
f 242/242/242 256/256/256 253/253/253
f 248/248/248 258/258/258 259/259/259
f 248/248/248 259/259/259 171/171/171
f 253/253/253 256/256/256 257/257/257
f 253/253/253 257/257/257 183/183/183
f 274/274/274 252/252/252 176/176/176
f 274/274/274 176/176/176 275/275/275
f 276/276/276 247/247/247 166/166/166
f 276/276/276 166/166/166 277/277/277
f 278/278/278 239/239/239 252/252/252
f 278/278/278 252/252/252 274/274/274
f 279/279/279 232/232/232 247/247/247
f 279/279/279 247/247/247 276/276/276
f 280/280/280 227/227/227 236/236/236
f 280/280/280 236/236/236 281/281/281
f 281/281/281 236/236/236 239/239/239
f 281/281/281 239/239/239 278/278/278
f 282/282/282 222/222/222 232/232/232
f 282/282/282 232/232/232 279/279/279
f 283/283/283 217/217/217 227/227/227
f 283/283/283 227/227/227 280/280/280
f 284/284/284 212/212/212 222/222/222
f 284/284/284 222/222/222 282/282/282
f 285/285/285 207/207/207 217/217/217
f 285/285/285 217/217/217 283/283/283
f 286/286/286 202/202/202 212/212/212
f 286/286/286 212/212/212 284/284/284
f 287/287/287 193/193/193 207/207/207
f 287/287/287 207/207/207 285/285/285
f 289/289/289 180/180/180 202/202/202
f 289/289/289 202/202/202 286/286/286
f 291/291/291 169/169/169 194/194/194
f 291/291/291 194/194/194 288/288/288
f 275/275/275 176/176/176 181/181/181
f 275/275/275 181/181/181 290/290/290
f 277/277/277 166/166/166 169/169/169
f 277/277/277 169/169/169 291/291/291
f 292/292/292 293/293/293 297/297/297
f 292/292/292 297/297/297 300/300/300
f 301/301/301 302/302/302 304/304/304
f 301/301/301 304/304/304 306/306/306
f 307/307/307 308/308/308 293/293/293
f 307/307/307 293/293/293 292/292/292
f 310/310/310 311/311/311 302/302/302
f 310/310/310 302/302/302 301/301/301
f 313/313/313 315/315/315 317/317/317
f 313/313/313 317/317/317 318/318/318
f 318/318/318 317/317/317 308/308/308
f 318/318/318 308/308/308 307/307/307
f 319/319/319 320/320/320 311/311/311
f 319/319/319 311/311/311 310/310/310
f 322/322/322 324/324/324 315/315/315
f 322/322/322 315/315/315 313/313/313
f 325/325/325 326/326/326 320/320/320
f 325/325/325 320/320/320 319/319/319
f 328/328/328 329/329/329 324/324/324
f 328/328/328 324/324/324 322/322/322
f 331/331/331 333/333/333 326/326/326
f 331/331/331 326/326/326 325/325/325
f 337/337/337 339/339/339 329/329/329
f 337/337/337 329/329/329 328/328/328
f 344/344/344 345/345/345 341/341/341
f 344/344/344 341/341/341 338/338/338
f 306/306/306 304/304/304 345/345/345
f 306/306/306 345/345/345 344/344/344
f 347/347/347 348/348/348 349/349/349
f 347/347/347 349/349/349 350/350/350
f 351/351/351 352/352/352 353/353/353
f 351/351/351 353/353/353 354/354/354
f 355/355/355 356/356/356 348/348/348
f 355/355/355 348/348/348 347/347/347
f 357/357/357 358/358/358 352/352/352
f 357/357/357 352/352/352 351/351/351
f 359/359/359 360/360/360 356/356/356
f 359/359/359 356/356/356 355/355/355
f 362/362/362 363/363/363 360/360/360
f 362/362/362 360/360/360 359/359/359
f 364/364/364 365/365/365 358/358/358
f 364/364/364 358/358/358 357/357/357
f 366/366/366 367/367/367 368/368/368
f 366/366/366 368/368/368 369/369/369
f 370/370/370 371/371/371 363/363/363
f 370/370/370 363/363/363 362/362/362
f 372/372/372 373/373/373 367/367/367
f 372/372/372 367/367/367 366/366/366
f 374/374/374 375/375/375 371/371/371
f 374/374/374 371/371/371 370/370/370
f 376/376/376 377/377/377 373/373/373
f 376/376/376 373/373/373 372/372/372
f 378/378/378 379/379/379 375/375/375
f 378/378/378 375/375/375 374/374/374
f 350/350/350 349/349/349 377/377/377
f 350/350/350 377/377/377 376/376/376
f 354/354/354 353/353/353 379/379/379
f 354/354/354 379/379/379 378/378/378
f 327/327/327 380/380/380 381/381/381
f 327/327/327 381/381/381 321/321/321
f 330/330/330 382/382/382 383/383/383
f 330/330/330 383/383/383 323/323/323
f 335/335/335 384/384/384 380/380/380
f 335/335/335 380/380/380 327/327/327
f 340/340/340 385/385/385 382/382/382
f 340/340/340 382/382/382 330/330/330
f 343/343/343 386/386/386 384/384/384
f 343/343/343 384/384/384 335/335/335
f 346/346/346 387/387/387 385/385/385
f 346/346/346 385/385/385 340/340/340
f 298/298/298 388/388/388 386/386/386
f 298/298/298 386/386/386 343/343/343
f 305/305/305 389/389/389 387/387/387
f 305/305/305 387/387/387 346/346/346
f 294/294/294 390/390/390 388/388/388
f 294/294/294 388/388/388 298/298/298
f 303/303/303 391/391/391 389/389/389
f 303/303/303 389/389/389 305/305/305
f 309/309/309 392/392/392 390/390/390
f 309/309/309 390/390/390 294/294/294
f 312/312/312 393/393/393 391/391/391
f 312/312/312 391/391/391 303/303/303
f 314/314/314 394/394/394 395/395/395
f 314/314/314 395/395/395 316/316/316
f 316/316/316 395/395/395 392/392/392
f 316/316/316 392/392/392 309/309/309
f 321/321/321 381/381/381 393/393/393
f 321/321/321 393/393/393 312/312/312
f 323/323/323 383/383/383 394/394/394
f 323/323/323 394/394/394 314/314/314
f 394/394/394 369/369/369 364/364/364
f 394/394/394 364/364/364 395/395/395
f 383/383/383 366/366/366 369/369/369
f 383/383/383 369/369/369 394/394/394
f 382/382/382 372/372/372 366/366/366
f 382/382/382 366/366/366 383/383/383
f 385/385/385 376/376/376 372/372/372
f 385/385/385 372/372/372 382/382/382
f 387/387/387 350/350/350 376/376/376
f 387/387/387 376/376/376 385/385/385
f 389/389/389 347/347/347 350/350/350
f 389/389/389 350/350/350 387/387/387
f 391/391/391 355/355/355 347/347/347
f 391/391/391 347/347/347 389/389/389
f 393/393/393 359/359/359 355/355/355
f 393/393/393 355/355/355 391/391/391
f 381/381/381 362/362/362 359/359/359
f 381/381/381 359/359/359 393/393/393
f 380/380/380 370/370/370 362/362/362
f 380/380/380 362/362/362 381/381/381
f 384/384/384 374/374/374 370/370/370
f 384/384/384 370/370/370 380/380/380
f 386/386/386 378/378/378 374/374/374
f 386/386/386 374/374/374 384/384/384
f 388/388/388 354/354/354 378/378/378
f 388/388/388 378/378/378 386/386/386
f 390/390/390 351/351/351 354/354/354
f 390/390/390 354/354/354 388/388/388
f 392/392/392 357/357/357 351/351/351
f 392/392/392 351/351/351 390/390/390
f 395/395/395 364/364/364 357/357/357
f 395/395/395 357/357/357 392/392/392
f 369/369/369 368/368/368 365/365/365
f 369/369/369 365/365/365 364/364/364
f 396/396/396 299/299/299 296/296/296
f 396/396/396 296/296/296 398/398/398
f 332/332/332 397/397/397 400/400/400
f 332/332/332 400/400/400 334/334/334

